{
copyright = "Copyright 2021 The Gantari Project Authors";
designer = "Anugrah Pasau";
familyName = Gantari;
customParameters = (
{
name = glyphOrder;
value = (
.notdef,
space,
exclam,
quotedbl,
numbersign,
dollar,
percent,
ampersand,
quotesingle,
parenleft,
parenright,
asterisk,
plus,
comma,
hyphen,
period,
slash,
zero,
one,
two,
three,
four,
five,
six,
seven,
eight,
nine,
colon,
semicolon,
less,
equal,
greater,
question,
at,
A,
B,
C,
D,
E,
F,
G,
H,
I,
J,
K,
L,
M,
N,
O,
P,
Q,
R,
S,
T,
U,
V,
W,
X,
Y,
Z,
bracketleft,
backslash,
bracketright,
asciicircum,
underscore,
grave,
a,
b,
c,
d,
e,
f,
g,
h,
i,
j,
k,
l,
m,
n,
o,
p,
q,
r,
s,
t,
u,
v,
w,
x,
y,
z,
braceleft,
bar,
braceright,
asciitilde,
uni00A0,
exclamdown,
cent,
sterling,
currency,
yen,
brokenbar,
section,
dieresis,
copyright,
ordfeminine,
guillemotleft,
logicalnot,
uni00AD,
registered,
macron,
degree,
plusminus,
twosuperior,
threesuperior,
acute,
mu,
paragraph,
periodcentered,
cedilla,
onesuperior,
ordmasculine,
guillemotright,
onequarter,
onehalf,
threequarters,
questiondown,
Agrave,
Aacute,
Acircumflex,
Atilde,
Adieresis,
Aring,
AE,
Ccedilla,
Egrave,
Eacute,
Ecircumflex,
Edieresis,
Igrave,
Iacute,
Icircumflex,
Idieresis,
Eth,
Ntilde,
Ograve,
Oacute,
Ocircumflex,
Otilde,
Odieresis,
multiply,
Oslash,
Ugrave,
Uacute,
Ucircumflex,
Udieresis,
Yacute,
Thorn,
germandbls,
agrave,
aacute,
acircumflex,
atilde,
adieresis,
aring,
ae,
ccedilla,
egrave,
eacute,
ecircumflex,
edieresis,
igrave,
iacute,
icircumflex,
idieresis,
eth,
ntilde,
ograve,
oacute,
ocircumflex,
otilde,
odieresis,
divide,
oslash,
ugrave,
uacute,
ucircumflex,
udieresis,
yacute,
thorn,
ydieresis,
dotlessi,
Lslash,
lslash,
OE,
oe,
Scaron,
scaron,
Ydieresis,
Zcaron,
zcaron,
florin,
circumflex,
caron,
breve,
dotaccent,
ring,
ogonek,
tilde,
hungarumlaut,
pi,
endash,
emdash,
quoteleft,
quoteright,
quotesinglbase,
quotedblleft,
quotedblright,
quotedblbase,
dagger,
daggerdbl,
bullet,
ellipsis,
perthousand,
guilsinglleft,
guilsinglright,
fraction,
Euro,

glyphs = (
{
glyphname = .notdef;
layers = (
{
layerId = "573A4E99-B1EA-4FCA-90B1-EE1ED57C0074";
paths = (
{
closed = 1;
nodes = (
"364 0 LINE",
"481 668 LINE",
"165 668 LINE",
"48 0 LINE"
);
},
{
closed = 1;
nodes = (
"338 28 LINE",
"82 28 LINE",
"190 640 LINE",
"446 640 LINE"
);
}
);
width = 496;
}
);
},
{
glyphname = exclam;
layers = (
{
layerId = "573A4E99-B1EA-4FCA-90B1-EE1ED57C0074";
paths = (
{
closed = 1;
nodes = (
"146 196 LINE",
"211 486 LINE",
"243 668 LINE",
"157 668 LINE",
"125 486 LINE",
"89 196 LINE"
);
},
{
closed = 1;
nodes = (
"119 -6 OFFCURVE",
"141 16 OFFCURVE",
"141 49 CURVE SMOOTH",
"141 73 OFFCURVE",
"125 91 OFFCURVE",
"96 91 CURVE SMOOTH",
"61 91 OFFCURVE",
"39 69 OFFCURVE",
"39 36 CURVE SMOOTH",
"39 12 OFFCURVE",
"56 -6 OFFCURVE",
"84 -6 CURVE SMOOTH"
);
}
);
width = 251;
}
);
unicode = 0021;
},
{
glyphname = quotedbl;
layers = (
{
layerId = "573A4E99-B1EA-4FCA-90B1-EE1ED57C0074";
paths = (
{
closed = 1;
nodes = (
"181 395 LINE",
"241 668 LINE",
"159 668 LINE",
"124 395 LINE"
);
},
{
closed = 1;
nodes = (
"350 395 LINE",
"410 668 LINE",
"329 668 LINE",
"293 395 LINE"
);
}
);
width = 420;
}
);
leftKerningGroup = _quotedbl;
rightKerningGroup = _quotedbl;
unicode = 0022;
},
{
glyphname = numbersign;
layers = (
{
layerId = "573A4E99-B1EA-4FCA-90B1-EE1ED57C0074";
paths = (
{
closed = 1;
nodes = (
"371 0 LINE",
"433 179 LINE",
"537 179 LINE",
"558 238 LINE",
"454 238 LINE",
"522 430 LINE",
"626 430 LINE",
"647 489 LINE",
"543 489 LINE",
"606 668 LINE",
"535 668 LINE",
"472 489 LINE",
"304 489 LINE",
"366 668 LINE",
"295 668 LINE",
"233 489 LINE",
"129 489 LINE",
"108 430 LINE",
"212 430 LINE",
"144 238 LINE",
"40 238 LINE",
"19 179 LINE",
"123 179 LINE",
"60 0 LINE",
"131 0 LINE",
"194 179 LINE",
"362 179 LINE",
"300 0 LINE"
);
},
{
closed = 1;
nodes = (
"383 238 LINE",
"215 238 LINE",
"283 430 LINE",
"451 430 LINE"
);
}
);
width = 633;
}
);
unicode = 0023;
},
{
glyphname = dollar;
layers = (
{
layerId = "573A4E99-B1EA-4FCA-90B1-EE1ED57C0074";
paths = (
{
closed = 1;
nodes = (
"165 -100 LINE",
"203 -6 LINE",
"219 -9 OFFCURVE",
"236 -10 OFFCURVE",
"253 -10 CURVE SMOOTH",
"425 -10 OFFCURVE",
"533 74 OFFCURVE",
"533 214 CURVE SMOOTH",
"533 285 OFFCURVE",
"491 352 OFFCURVE",
"395 371 CURVE SMOOTH",
"358 378 LINE",
"443 588 LINE",
"478 576 OFFCURVE",
"508 556 OFFCURVE",
"535 533 CURVE",
"581 596 LINE",
"550 625 OFFCURVE",
"513 645 OFFCURVE",
"472 660 CURVE",
"516 768 LINE",
"460 768 LINE",
"421 672 LINE",
"401 676 OFFCURVE",
"381 678 OFFCURVE",
"362 678 CURVE SMOOTH",
"203 678 OFFCURVE",
"110 586 OFFCURVE",
"110 462 CURVE SMOOTH",
"110 390 OFFCURVE",
"154 332 OFFCURVE",
"251 313 CURVE SMOOTH",
"274 308 LINE",
"181 79 LINE",
"146 92 OFFCURVE",
"110 115 OFFCURVE",
"73 149 CURVE",
"26 87 LINE",
"61 48 OFFCURVE",
"105 21 OFFCURVE",
"152 6 CURVE",
"109 -100 LINE"
);
},
{
closed = 1;
nodes = (
"362 291 LINE SMOOTH",
"418 280 OFFCURVE",
"446 251 OFFCURVE",
"446 202 CURVE SMOOTH",
"446 111 OFFCURVE",
"373 66 OFFCURVE",
"262 66 CURVE SMOOTH",
"251 66 OFFCURVE",
"243 66 OFFCURVE",
"232 67 CURVE",
"326 298 LINE"
);
},
{
closed = 1;
nodes = (
"198 555 OFFCURVE",
"260 602 OFFCURVE",
"363 602 CURVE SMOOTH",
"372 602 OFFCURVE",
"381 601 OFFCURVE",
"392 600 CURVE",
"306 388 LINE",
"284 393 LINE",
"225 404 OFFCURVE",
"198 428 OFFCURVE",
"198 475 CURVE SMOOTH"
);
}
);
width = 592;
}
);
unicode = 0024;
},
{
glyphname = percent;
layers = (
{
layerId = "573A4E99-B1EA-4FCA-90B1-EE1ED57C0074";
paths = (
{
closed = 1;
nodes = (
"357 268 OFFCURVE",
"414 400 OFFCURVE",
"414 519 CURVE SMOOTH",
"414 608 OFFCURVE",
"368 674 OFFCURVE",
"281 674 CURVE SMOOTH",
"148 674 OFFCURVE",
"88 542 OFFCURVE",
"88 423 CURVE SMOOTH",
"88 334 OFFCURVE",
"134 268 OFFCURVE",
"221 268 CURVE SMOOTH"
);
},
{
closed = 1;
nodes = (
"182 323 OFFCURVE",
"156 360 OFFCURVE",
"156 424 CURVE SMOOTH",
"156 513 OFFCURVE",
"193 619 OFFCURVE",
"277 619 CURVE SMOOTH",
"320 619 OFFCURVE",
"346 582 OFFCURVE",
"346 518 CURVE SMOOTH",
"346 429 OFFCURVE",
"309 323 OFFCURVE",
"225 323 CURVE SMOOTH"
);
},
{
closed = 1;
nodes = (
"294 0 LINE",
"762 668 LINE",
"691 668 LINE",
"223 0 LINE"
);
},
{
closed = 1;
nodes = (
"837 -6 OFFCURVE",
"897 126 OFFCURVE",
"897 245 CURVE SMOOTH",
"897 334 OFFCURVE",
"851 400 OFFCURVE",
"764 400 CURVE SMOOTH",
"631 400 OFFCURVE",
"571 268 OFFCURVE",
"571 149 CURVE SMOOTH",
"571 60 OFFCURVE",
"617 -6 OFFCURVE",
"704 -6 CURVE SMOOTH"
);
},
{
closed = 1;
nodes = (
"665 49 OFFCURVE",
"639 86 OFFCURVE",
"639 150 CURVE SMOOTH",
"639 239 OFFCURVE",
"676 345 OFFCURVE",
"760 345 CURVE SMOOTH",
"803 345 OFFCURVE",
"829 308 OFFCURVE",
"829 244 CURVE SMOOTH",
"829 155 OFFCURVE",
"792 49 OFFCURVE",
"708 49 CURVE SMOOTH"
);
}
);
width = 952;
}
);
unicode = 0025;
},
{
glyphname = ampersand;
layers = (
{
layerId = "573A4E99-B1EA-4FCA-90B1-EE1ED57C0074";
paths = (
{
closed = 1;
nodes = (
"307 -10 OFFCURVE",
"366 19 OFFCURVE",
"444 97 CURVE",
"528 0 LINE",
"622 0 LINE",
"496 150 LINE",
"647 324 LINE",
"561 324 LINE",
"455 200 LINE",
"340 334 LINE",
"386 351 LINE SMOOTH",
"499 392 OFFCURVE",
"548 448 OFFCURVE",
"548 528 CURVE SMOOTH",
"548 605 OFFCURVE",
"489 678 OFFCURVE",
"385 678 CURVE SMOOTH",
"259 678 OFFCURVE",
"181 592 OFFCURVE",
"181 488 CURVE SMOOTH",
"181 445 OFFCURVE",
"195 402 OFFCURVE",
"234 354 CURVE",
"196 340 LINE SMOOTH",
"91 301 OFFCURVE",
"37 240 OFFCURVE",
"37 149 CURVE SMOOTH",
"37 62 OFFCURVE",
"101 -10 OFFCURVE",
"221 -10 CURVE SMOOTH"
);
},
{
closed = 1;
nodes = (
"165 67 OFFCURVE",
"120 98 OFFCURVE",
"120 158 CURVE SMOOTH",
"120 217 OFFCURVE",
"158 262 OFFCURVE",
"229 287 CURVE SMOOTH",
"273 303 LINE",
"404 149 LINE",
"353 94 OFFCURVE",
"295 67 OFFCURVE",
"240 67 CURVE SMOOTH"
);
},
{
closed = 1;
nodes = (
"435 607 OFFCURVE",
"471 572 OFFCURVE",
"471 521 CURVE SMOOTH",
"471 461 OFFCURVE",
"433 431 OFFCURVE",
"361 403 CURVE SMOOTH",
"304 381 LINE",
"268 428 OFFCURVE",
"258 457 OFFCURVE",
"258 488 CURVE SMOOTH",
"258 560 OFFCURVE",
"307 607 OFFCURVE",
"379 607 CURVE SMOOTH"
);
}
);
width = 672;
}
);
unicode = 0026;
},
{
glyphname = quotesingle;
layers = (
{
layerId = "573A4E99-B1EA-4FCA-90B1-EE1ED57C0074";
paths = (
{
closed = 1;
nodes = (
"181 395 LINE",
"241 668 LINE",
"159 668 LINE",
"124 395 LINE"
);
}
);
width = 251;
}
);
leftKerningGroup = _quotedbl;
rightKerningGroup = _quotedbl;
unicode = 0027;
},
{
glyphname = parenleft;
layers = (
{
layerId = "573A4E99-B1EA-4FCA-90B1-EE1ED57C0074";
paths = (
{
closed = 1;
nodes = (
"50 -14 OFFCURVE",
"104 -185 OFFCURVE",
"160 -252 CURVE",
"224 -252 LINE",
"177 -186 OFFCURVE",
"130 -14 OFFCURVE",
"130 127 CURVE SMOOTH",
"130 364 OFFCURVE",
"269 642 OFFCURVE",
"399 738 CURVE",
"335 738 LINE",
"196 642 OFFCURVE",
"50 363 OFFCURVE",
"50 127 CURVE SMOOTH"
);
}
);
width = 342;
}
);
unicode = 0028;
},
{
glyphname = parenright;
layers = (
{
layerId = "573A4E99-B1EA-4FCA-90B1-EE1ED57C0074";
paths = (
{
closed = 1;
nodes = (
"293 502 OFFCURVE",
"239 669 OFFCURVE",
"183 738 CURVE",
"119 738 LINE",
"167 669 OFFCURVE",
"213 502 OFFCURVE",
"213 359 CURVE SMOOTH",
"213 122 OFFCURVE",
"76 -156 OFFCURVE",
"-56 -252 CURVE",
"8 -252 LINE",
"147 -156 OFFCURVE",
"293 123 OFFCURVE",
"293 359 CURVE SMOOTH"
);
}
);
width = 342;
}
);
unicode = 0029;
},
{
glyphname = asterisk;
layers = (
{
layerId = "573A4E99-B1EA-4FCA-90B1-EE1ED57C0074";
paths = (
{
closed = 1;
nodes = (
"342 301 LINE",
"400 339 LINE",
"321 464 LINE",
"482 504 LINE",
"473 567 LINE",
"316 510 LINE",
"352 668 LINE",
"286 668 LINE",
"268 510 LINE",
"129 567 LINE",
"99 504 LINE",
"245 464 LINE",
"122 339 LINE",
"172 301 LINE",
"281 434 LINE"
);
}
);
width = 488;
}
);
unicode = 002A;
},
{
glyphname = plus;
layers = (
{
layerId = "573A4E99-B1EA-4FCA-90B1-EE1ED57C0074";
paths = (
{
closed = 1;
nodes = (
"307 122 LINE",
"339 300 LINE",
"513 300 LINE",
"525 368 LINE",
"351 368 LINE",
"382 546 LINE",
"308 546 LINE",
"276 368 LINE",
"101 368 LINE",
"89 300 LINE",
"264 300 LINE",
"233 122 LINE"
);
}
);
width = 582;
}
);
leftKerningGroup = _plus;
rightKerningGroup = _plus;
unicode = 002B;
},
{
glyphname = comma;
layers = (
{
layerId = "573A4E99-B1EA-4FCA-90B1-EE1ED57C0074";
paths = (
{
closed = 1;
nodes = (
"29 -152 LINE",
"85 -115 OFFCURVE",
"108 -69 OFFCURVE",
"121 6 CURVE SMOOTH",
"135 84 LINE",
"60 84 LINE",
"47 6 LINE SMOOTH",
"38 -46 OFFCURVE",
"17 -88 OFFCURVE",
"-15 -131 CURVE"
);
}
);
width = 251;
}
);
leftKerningGroup = _comma;
rightKerningGroup = _comma;
unicode = 002C;
},
{
glyphname = hyphen;
layers = (
{
layerId = "573A4E99-B1EA-4FCA-90B1-EE1ED57C0074";
paths = (
{
closed = 1;
nodes = (
"318 253 LINE",
"329 319 LINE",
"66 319 LINE",
"54 253 LINE"
);
}
);
width = 368;
}
);
leftKerningGroup = _hypen;
rightKerningGroup = _hypen;
unicode = 002D;
},
{
glyphname = period;
layers = (
{
layerId = "573A4E99-B1EA-4FCA-90B1-EE1ED57C0074";
paths = (
{
closed = 1;
nodes = (
"119 -6 OFFCURVE",
"141 16 OFFCURVE",
"141 49 CURVE SMOOTH",
"141 73 OFFCURVE",
"125 91 OFFCURVE",
"96 91 CURVE SMOOTH",
"61 91 OFFCURVE",
"39 69 OFFCURVE",
"39 36 CURVE SMOOTH",
"39 12 OFFCURVE",
"56 -6 OFFCURVE",
"84 -6 CURVE SMOOTH"
);
}
);
width = 246;
}
);
leftKerningGroup = _comma;
rightKerningGroup = _comma;
unicode = 002E;
},
{
glyphname = slash;
layers = (
{
layerId = "573A4E99-B1EA-4FCA-90B1-EE1ED57C0074";
paths = (
{
closed = 1;
nodes = (
"54 0 LINE",
"386 668 LINE",
"308 668 LINE",
"-24 0 LINE"
);
}
);
width = 329;
}
);
unicode = 002F;
},
{
glyphname = zero;
layers = (
{
layerId = "573A4E99-B1EA-4FCA-90B1-EE1ED57C0074";
paths = (
{
closed = 1;
nodes = (
"205 61 OFFCURVE",
"148 122 OFFCURVE",
"148 251 CURVE SMOOTH",
"148 410 OFFCURVE",
"220 607 OFFCURVE",
"382 607 CURVE SMOOTH",
"469 607 OFFCURVE",
"526 546 OFFCURVE",
"526 417 CURVE SMOOTH",
"526 258 OFFCURVE",
"454 61 OFFCURVE",
"292 61 CURVE SMOOTH"
);
},
{
closed = 1;
nodes = (
"515 -10 OFFCURVE",
"614 213 OFFCURVE",
"614 416 CURVE SMOOTH",
"614 568 OFFCURVE",
"536 678 OFFCURVE",
"388 678 CURVE SMOOTH",
"160 678 OFFCURVE",
"60 455 OFFCURVE",
"60 252 CURVE SMOOTH",
"60 100 OFFCURVE",
"138 -10 OFFCURVE",
"286 -10 CURVE SMOOTH"
);
}
);
width = 642;
}
);
unicode = 0030;
},
{
glyphname = one;
layers = (
{
layerId = "573A4E99-B1EA-4FCA-90B1-EE1ED57C0074";
paths = (
{
closed = 1;
nodes = (
"264 0 LINE",
"381 668 LINE",
"316 668 LINE",
"88 557 LINE",
"112 489 LINE",
"280 573 LINE",
"179 0 LINE"
);
}
);
width = 389;
}
);
unicode = 0031;
},
{
glyphname = two;
layers = (
{
layerId = "573A4E99-B1EA-4FCA-90B1-EE1ED57C0074";
paths = (
{
closed = 1;
nodes = (
"460 0 LINE",
"471 71 LINE",
"139 71 LINE",
"413 292 LINE SMOOTH",
"497 360 OFFCURVE",
"534 431 OFFCURVE",
"534 502 CURVE SMOOTH",
"534 605 OFFCURVE",
"446 678 OFFCURVE",
"330 678 CURVE SMOOTH",
"258 678 OFFCURVE",
"184 655 OFFCURVE",
"112 591 CURVE",
"137 525 LINE",
"208 585 OFFCURVE",
"265 607 OFFCURVE",
"321 607 CURVE SMOOTH",
"396 607 OFFCURVE",
"446 558 OFFCURVE",
"446 493 CURVE SMOOTH",
"446 438 OFFCURVE",
"415 389 OFFCURVE",
"362 346 CURVE SMOOTH",
"22 71 LINE",
"10 0 LINE"
);
}
);
width = 554;
}
);
unicode = 0032;
},
{
glyphname = three;
layers = (
{
layerId = "573A4E99-B1EA-4FCA-90B1-EE1ED57C0074";
paths = (
{
closed = 1;
nodes = (
"403 -10 OFFCURVE",
"514 73 OFFCURVE",
"514 198 CURVE SMOOTH",
"514 270 OFFCURVE",
"473 319 OFFCURVE",
"401 342 CURVE",
"497 365 OFFCURVE",
"559 427 OFFCURVE",
"559 514 CURVE SMOOTH",
"559 614 OFFCURVE",
"472 678 OFFCURVE",
"345 678 CURVE SMOOTH",
"268 678 OFFCURVE",
"194 655 OFFCURVE",
"122 591 CURVE",
"149 524 LINE",
"221 583 OFFCURVE",
"279 607 OFFCURVE",
"339 607 CURVE SMOOTH",
"415 607 OFFCURVE",
"471 574 OFFCURVE",
"471 506 CURVE SMOOTH",
"471 419 OFFCURVE",
"394 378 OFFCURVE",
"305 378 CURVE SMOOTH",
"224 378 LINE",
"212 310 LINE",
"287 310 LINE SMOOTH",
"371 310 OFFCURVE",
"426 273 OFFCURVE",
"426 202 CURVE SMOOTH",
"426 117 OFFCURVE",
"349 61 OFFCURVE",
"249 61 CURVE SMOOTH",
"185 61 OFFCURVE",
"125 89 OFFCURVE",
"69 144 CURVE",
"25 85 LINE",
"80 24 OFFCURVE",
"146 -10 OFFCURVE",
"243 -10 CURVE SMOOTH"
);
}
);
width = 574;
}
);
unicode = 0033;
},
{
glyphname = four;
layers = (
{
layerId = "573A4E99-B1EA-4FCA-90B1-EE1ED57C0074";
paths = (
{
closed = 1;
nodes = (
"440 0 LINE",
"469 162 LINE",
"556 162 LINE",
"569 233 LINE",
"481 233 LINE",
"557 668 LINE",
"464 668 LINE",
"54 249 LINE",
"39 162 LINE",
"386 162 LINE",
"357 0 LINE"
);
},
{
closed = 1;
nodes = (
"398 233 LINE",
"134 233 LINE",
"456 568 LINE"
);
}
);
width = 622;
}
);
unicode = 0034;
},
{
glyphname = five;
layers = (
{
layerId = "573A4E99-B1EA-4FCA-90B1-EE1ED57C0074";
paths = (
{
closed = 1;
nodes = (
"420 -10 OFFCURVE",
"529 97 OFFCURVE",
"529 246 CURVE SMOOTH",
"529 362 OFFCURVE",
"450 432 OFFCURVE",
"313 432 CURVE SMOOTH",
"268 432 OFFCURVE",
"222 420 OFFCURVE",
"189 399 CURVE",
"263 607 LINE",
"544 607 LINE",
"557 678 LINE",
"209 678 LINE",
"75 297 LINE",
"147 283 LINE",
"170 339 OFFCURVE",
"228 364 OFFCURVE",
"295 364 CURVE SMOOTH",
"386 364 OFFCURVE",
"441 322 OFFCURVE",
"441 238 CURVE SMOOTH",
"441 128 OFFCURVE",
"362 61 OFFCURVE",
"256 61 CURVE SMOOTH",
"184 61 OFFCURVE",
"129 81 OFFCURVE",
"69 140 CURVE",
"28 85 LINE",
"95 16 OFFCURVE",
"151 -10 OFFCURVE",
"251 -10 CURVE SMOOTH"
);
}
);
width = 582;
}
);
unicode = 0035;
},
{
glyphname = six;
layers = (
{
layerId = "573A4E99-B1EA-4FCA-90B1-EE1ED57C0074";
paths = (
{
closed = 1;
nodes = (
"450 -10 OFFCURVE",
"559 97 OFFCURVE",
"559 246 CURVE SMOOTH",
"559 362 OFFCURVE",
"480 432 OFFCURVE",
"343 432 CURVE SMOOTH",
"260 432 OFFCURVE",
"193 401 OFFCURVE",
"150 350 CURVE",
"185 534 OFFCURVE",
"290 607 OFFCURVE",
"403 607 CURVE SMOOTH",
"463 607 OFFCURVE",
"517 582 OFFCURVE",
"560 531 CURVE",
"601 583 LINE",
"564 639 OFFCURVE",
"481 678 OFFCURVE",
"404 678 CURVE SMOOTH",
"164 678 OFFCURVE",
"53 451 OFFCURVE",
"53 224 CURVE SMOOTH",
"53 81 OFFCURVE",
"142 -10 OFFCURVE",
"281 -10 CURVE SMOOTH"
);
},
{
closed = 1;
nodes = (
"179 61 OFFCURVE",
"141 118 OFFCURVE",
"141 219 CURVE",
"157 311 OFFCURVE",
"221 364 OFFCURVE",
"325 364 CURVE SMOOTH",
"416 364 OFFCURVE",
"471 322 OFFCURVE",
"471 238 CURVE SMOOTH",
"471 128 OFFCURVE",
"392 61 OFFCURVE",
"286 61 CURVE SMOOTH"
);
}
);
width = 612;
}
);
unicode = 0036;
},
{
glyphname = seven;
layers = (
{
layerId = "573A4E99-B1EA-4FCA-90B1-EE1ED57C0074";
paths = (
{
closed = 1;
nodes = (
"171 0 LINE",
"545 605 LINE",
"557 668 LINE",
"107 668 LINE",
"95 597 LINE",
"455 597 LINE",
"83 0 LINE"
);
}
);
width = 514;
}
);
unicode = 0037;
},
{
glyphname = eight;
layers = (
{
layerId = "573A4E99-B1EA-4FCA-90B1-EE1ED57C0074";
paths = (
{
closed = 1;
nodes = (
"444 -10 OFFCURVE",
"552 77 OFFCURVE",
"552 198 CURVE SMOOTH",
"552 269 OFFCURVE",
"508 321 OFFCURVE",
"436 344 CURVE",
"540 367 OFFCURVE",
"597 431 OFFCURVE",
"597 515 CURVE SMOOTH",
"597 615 OFFCURVE",
"513 678 OFFCURVE",
"373 678 CURVE SMOOTH",
"210 678 OFFCURVE",
"104 599 OFFCURVE",
"104 481 CURVE SMOOTH",
"104 416 OFFCURVE",
"144 367 OFFCURVE",
"212 344 CURVE",
"99 321 OFFCURVE",
"39 256 OFFCURVE",
"39 163 CURVE SMOOTH",
"39 63 OFFCURVE",
"123 -10 OFFCURVE",
"271 -10 CURVE SMOOTH"
);
},
{
closed = 1;
nodes = (
"180 61 OFFCURVE",
"126 102 OFFCURVE",
"126 170 CURVE SMOOTH",
"126 258 OFFCURVE",
"199 309 OFFCURVE",
"314 309 CURVE SMOOTH",
"410 309 OFFCURVE",
"464 265 OFFCURVE",
"464 202 CURVE SMOOTH",
"464 114 OFFCURVE",
"393 61 OFFCURVE",
"276 61 CURVE SMOOTH"
);
},
{
closed = 1;
nodes = (
"246 379 OFFCURVE",
"193 410 OFFCURVE",
"193 478 CURVE SMOOTH",
"193 566 OFFCURVE",
"261 607 OFFCURVE",
"368 607 CURVE SMOOTH",
"456 607 OFFCURVE",
"509 575 OFFCURVE",
"509 508 CURVE SMOOTH",
"509 420 OFFCURVE",
"441 379 OFFCURVE",
"334 379 CURVE SMOOTH"
);
}
);
width = 612;
}
);
unicode = 0038;
},
{
glyphname = nine;
layers = (
{
layerId = "573A4E99-B1EA-4FCA-90B1-EE1ED57C0074";
paths = (
{
closed = 1;
nodes = (
"385 236 OFFCURVE",
"452 267 OFFCURVE",
"495 318 CURVE",
"460 134 OFFCURVE",
"355 61 OFFCURVE",
"242 61 CURVE SMOOTH",
"182 61 OFFCURVE",
"128 86 OFFCURVE",
"85 137 CURVE",
"44 85 LINE",
"81 29 OFFCURVE",
"164 -10 OFFCURVE",
"241 -10 CURVE SMOOTH",
"481 -10 OFFCURVE",
"592 217 OFFCURVE",
"592 444 CURVE SMOOTH",
"592 587 OFFCURVE",
"503 678 OFFCURVE",
"364 678 CURVE SMOOTH",
"195 678 OFFCURVE",
"86 571 OFFCURVE",
"86 422 CURVE SMOOTH",
"86 306 OFFCURVE",
"165 236 OFFCURVE",
"302 236 CURVE SMOOTH"
);
},
{
closed = 1;
nodes = (
"229 304 OFFCURVE",
"174 346 OFFCURVE",
"174 430 CURVE SMOOTH",
"174 540 OFFCURVE",
"252 607 OFFCURVE",
"359 607 CURVE SMOOTH",
"466 607 OFFCURVE",
"504 550 OFFCURVE",
"504 449 CURVE",
"488 357 OFFCURVE",
"424 304 OFFCURVE",
"320 304 CURVE SMOOTH"
);
}
);
width = 612;
}
);
unicode = 0039;
},
{
glyphname = colon;
layers = (
{
layerId = "573A4E99-B1EA-4FCA-90B1-EE1ED57C0074";
paths = (
{
closed = 1;
nodes = (
"119 -6 OFFCURVE",
"141 16 OFFCURVE",
"141 49 CURVE SMOOTH",
"141 73 OFFCURVE",
"125 91 OFFCURVE",
"96 91 CURVE SMOOTH",
"61 91 OFFCURVE",
"39 69 OFFCURVE",
"39 36 CURVE SMOOTH",
"39 12 OFFCURVE",
"56 -6 OFFCURVE",
"84 -6 CURVE SMOOTH"
);
},
{
closed = 1;
nodes = (
"189 395 OFFCURVE",
"212 417 OFFCURVE",
"212 450 CURVE SMOOTH",
"212 474 OFFCURVE",
"195 492 OFFCURVE",
"167 492 CURVE SMOOTH",
"132 492 OFFCURVE",
"109 470 OFFCURVE",
"109 437 CURVE SMOOTH",
"109 413 OFFCURVE",
"126 395 OFFCURVE",
"154 395 CURVE SMOOTH"
);
}
);
width = 251;
}
);
unicode = 003A;
},
{
glyphname = semicolon;
layers = (
{
layerId = "573A4E99-B1EA-4FCA-90B1-EE1ED57C0074";
paths = (
{
closed = 1;
nodes = (
"29 -152 LINE",
"85 -115 OFFCURVE",
"108 -69 OFFCURVE",
"121 6 CURVE SMOOTH",
"135 84 LINE",
"60 84 LINE",
"47 6 LINE SMOOTH",
"38 -46 OFFCURVE",
"17 -88 OFFCURVE",
"-15 -131 CURVE"
);
},
{
closed = 1;
nodes = (
"189 395 OFFCURVE",
"212 417 OFFCURVE",
"212 450 CURVE SMOOTH",
"212 474 OFFCURVE",
"195 492 OFFCURVE",
"167 492 CURVE SMOOTH",
"132 492 OFFCURVE",
"109 470 OFFCURVE",
"109 437 CURVE SMOOTH",
"109 413 OFFCURVE",
"126 395 OFFCURVE",
"154 395 CURVE SMOOTH"
);
}
);
width = 251;
}
);
unicode = 003B;
},
{
glyphname = less;
layers = (
{
layerId = "573A4E99-B1EA-4FCA-90B1-EE1ED57C0074";
paths = (
{
closed = 1;
nodes = (
"484 131 LINE",
"496 202 LINE",
"179 330 LINE",
"541 458 LINE",
"555 537 LINE",
"102 370 LINE",
"89 298 LINE"
);
}
);
width = 582;
}
);
unicode = 003C;
},
{
glyphname = equal;
layers = (
{
layerId = "573A4E99-B1EA-4FCA-90B1-EE1ED57C0074";
paths = (
{
closed = 1;
nodes = (
"494 190 LINE",
"506 258 LINE",
"82 258 LINE",
"70 190 LINE"
);
},
{
closed = 1;
nodes = (
"533 410 LINE",
"545 478 LINE",
"121 478 LINE",
"109 410 LINE"
);
}
);
width = 582;
}
);
unicode = 003D;
},
{
glyphname = greater;
layers = (
{
layerId = "573A4E99-B1EA-4FCA-90B1-EE1ED57C0074";
paths = (
{
closed = 1;
nodes = (
"513 298 LINE",
"526 370 LINE",
"131 537 LINE",
"119 466 LINE",
"436 338 LINE",
"74 210 LINE",
"60 131 LINE"
);
}
);
width = 582;
}
);
unicode = 003E;
},
{
glyphname = question;
layers = (
{
layerId = "573A4E99-B1EA-4FCA-90B1-EE1ED57C0074";
paths = (
{
closed = 1;
nodes = (
"225 -6 OFFCURVE",
"247 16 OFFCURVE",
"247 49 CURVE SMOOTH",
"247 73 OFFCURVE",
"230 91 OFFCURVE",
"202 91 CURVE SMOOTH",
"167 91 OFFCURVE",
"145 69 OFFCURVE",
"145 36 CURVE SMOOTH",
"145 12 OFFCURVE",
"161 -6 OFFCURVE",
"190 -6 CURVE SMOOTH"
);
},
{
closed = 1;
nodes = (
"257 196 LINE",
"261 219 LINE SMOOTH",
"281 346 OFFCURVE",
"482 371 OFFCURVE",
"482 517 CURVE SMOOTH",
"482 612 OFFCURVE",
"397 678 OFFCURVE",
"289 678 CURVE SMOOTH",
"216 678 OFFCURVE",
"150 655 OFFCURVE",
"87 591 CURVE",
"110 529 LINE",
"179 585 OFFCURVE",
"225 607 OFFCURVE",
"276 607 CURVE SMOOTH",
"348 607 OFFCURVE",
"394 563 OFFCURVE",
"394 503 CURVE SMOOTH",
"394 405 OFFCURVE",
"218 366 OFFCURVE",
"194 226 CURVE SMOOTH",
"189 196 LINE"
);
}
);
width = 473;
}
);
unicode = 003F;
},
{
glyphname = at;
layers = (
{
layerId = "573A4E99-B1EA-4FCA-90B1-EE1ED57C0074";
paths = (
{
closed = 1;
nodes = (
"486 94 OFFCURVE",
"536 128 OFFCURVE",
"567 188 CURVE",
"575 125 OFFCURVE",
"612 94 OFFCURVE",
"671 94 CURVE SMOOTH",
"806 94 OFFCURVE",
"879 238 OFFCURVE",
"879 378 CURVE SMOOTH",
"879 551 OFFCURVE",
"724 678 OFFCURVE",
"520 678 CURVE SMOOTH",
"240 678 OFFCURVE",
"57 500 OFFCURVE",
"57 228 CURVE SMOOTH",
"57 28 OFFCURVE",
"209 -110 OFFCURVE",
"410 -110 CURVE SMOOTH",
"483 -110 OFFCURVE",
"559 -89 OFFCURVE",
"612 -53 CURVE",
"599 -6 LINE",
"543 -37 OFFCURVE",
"483 -54 OFFCURVE",
"415 -54 CURVE SMOOTH",
"243 -54 OFFCURVE",
"119 64 OFFCURVE",
"119 233 CURVE SMOOTH",
"119 474 OFFCURVE",
"278 622 OFFCURVE",
"515 622 CURVE SMOOTH",
"694 622 OFFCURVE",
"817 516 OFFCURVE",
"817 373 CURVE SMOOTH",
"817 270 OFFCURVE",
"772 152 OFFCURVE",
"683 152 CURVE SMOOTH",
"643 152 OFFCURVE",
"620 179 OFFCURVE",
"620 222 CURVE SMOOTH",
"620 229 OFFCURVE",
"621 236 OFFCURVE",
"622 243 CURVE",
"662 466 LINE",
"596 466 LINE",
"584 396 LINE",
"565 447 OFFCURVE",
"525 474 OFFCURVE",
"466 474 CURVE SMOOTH",
"341 474 OFFCURVE",
"270 381 OFFCURVE",
"270 249 CURVE SMOOTH",
"270 156 OFFCURVE",
"325 94 OFFCURVE",
"414 94 CURVE SMOOTH"
);
},
{
closed = 1;
nodes = (
"374 152 OFFCURVE",
"338 188 OFFCURVE",
"338 256 CURVE SMOOTH",
"338 352 OFFCURVE",
"389 416 OFFCURVE",
"474 416 CURVE SMOOTH",
"534 416 OFFCURVE",
"569 380 OFFCURVE",
"569 312 CURVE SMOOTH",
"569 216 OFFCURVE",
"520 152 OFFCURVE",
"433 152 CURVE SMOOTH"
);
}
);
width = 908;
}
);
unicode = 0040;
},
{
glyphname = A;
layers = (
{
layerId = "573A4E99-B1EA-4FCA-90B1-EE1ED57C0074";
paths = (
{
closed = 1;
nodes = (
"628 0 LINE",
"470 668 LINE",
"377 668 LINE",
"-14 0 LINE",
"84 0 LINE",
"167 146 LINE",
"508 146 LINE",
"541 0 LINE"
);
},
{
closed = 1;
nodes = (
"492 218 LINE",
"208 218 LINE",
"413 575 LINE"
);
}
);
width = 699;
}
);
leftKerningGroup = _A1;
rightKerningGroup = _A;
unicode = 0041;
},
{
glyphname = B;
layers = (
{
layerId = "573A4E99-B1EA-4FCA-90B1-EE1ED57C0074";
paths = (
{
closed = 1;
nodes = (
"634 283 OFFCURVE",
"599 327 OFFCURVE",
"530 344 CURVE",
"618 364 OFFCURVE",
"670 418 OFFCURVE",
"670 526 CURVE SMOOTH",
"670 627 OFFCURVE",
"586 668 OFFCURVE",
"451 668 CURVE SMOOTH",
"157 668 LINE",
"40 0 LINE",
"355 0 LINE SMOOTH",
"534 0 OFFCURVE",
"634 52 OFFCURVE",
"634 204 CURVE SMOOTH"
);
},
{
closed = 1;
nodes = (
"547 112 OFFCURVE",
"491 74 OFFCURVE",
"350 74 CURVE SMOOTH",
"139 74 LINE",
"180 308 LINE",
"377 308 LINE SMOOTH",
"497 308 OFFCURVE",
"547 272 OFFCURVE",
"547 211 CURVE SMOOTH"
);
},
{
closed = 1;
nodes = (
"579 415 OFFCURVE",
"530 380 OFFCURVE",
"407 380 CURVE SMOOTH",
"193 380 LINE",
"230 594 LINE",
"431 594 LINE SMOOTH",
"535 594 OFFCURVE",
"579 571 OFFCURVE",
"579 512 CURVE SMOOTH"
);
}
);
width = 694;
}
);
unicode = 0042;
},
{
glyphname = C;
layers = (
{
layerId = "573A4E99-B1EA-4FCA-90B1-EE1ED57C0074";
paths = (
{
closed = 1;
nodes = (
"444 -10 OFFCURVE",
"521 12 OFFCURVE",
"588 61 CURVE",
"565 130 LINE",
"501 86 OFFCURVE",
"440 66 OFFCURVE",
"364 66 CURVE SMOOTH",
"239 66 OFFCURVE",
"152 146 OFFCURVE",
"152 279 CURVE SMOOTH",
"152 480 OFFCURVE",
"276 602 OFFCURVE",
"448 602 CURVE SMOOTH",
"524 602 OFFCURVE",
"585 577 OFFCURVE",
"636 538 CURVE",
"680 597 LINE",
"619 649 OFFCURVE",
"540 678 OFFCURVE",
"456 678 CURVE SMOOTH",
"226 678 OFFCURVE",
"65 523 OFFCURVE",
"65 277 CURVE SMOOTH",
"65 105 OFFCURVE",
"187 -10 OFFCURVE",
"356 -10 CURVE SMOOTH"
);
}
);
width = 665;
}
);
leftKerningGroup = _C1;
rightKerningGroup = _C;
unicode = 0043;
},
{
glyphname = D;
layers = (
{
layerId = "573A4E99-B1EA-4FCA-90B1-EE1ED57C0074";
paths = (
{
closed = 1;
nodes = (
"677 574 OFFCURVE",
"573 668 OFFCURVE",
"374 668 CURVE SMOOTH",
"157 668 LINE",
"40 0 LINE",
"278 0 LINE SMOOTH",
"538 0 OFFCURVE",
"677 138 OFFCURVE",
"677 391 CURVE SMOOTH"
);
},
{
closed = 1;
nodes = (
"590 179 OFFCURVE",
"486 74 OFFCURVE",
"279 74 CURVE SMOOTH",
"139 74 LINE",
"230 594 LINE",
"360 594 LINE SMOOTH",
"516 594 OFFCURVE",
"590 538 OFFCURVE",
"590 389 CURVE SMOOTH"
);
}
);
width = 710;
}
);
rightKerningGroup = _D;
unicode = 0044;
},
{
glyphname = E;
layers = (
{
layerId = "573A4E99-B1EA-4FCA-90B1-EE1ED57C0074";
paths = (
{
closed = 1;
nodes = (
"496 0 LINE",
"509 74 LINE",
"139 74 LINE",
"180 308 LINE",
"520 308 LINE",
"533 380 LINE",
"193 380 LINE",
"230 594 LINE",
"600 594 LINE",
"613 668 LINE",
"157 668 LINE",
"40 0 LINE"
);
}
);
width = 593;
}
);
unicode = 0045;
},
{
glyphname = F;
layers = (
{
layerId = "573A4E99-B1EA-4FCA-90B1-EE1ED57C0074";
paths = (
{
closed = 1;
nodes = (
"126 0 LINE",
"180 308 LINE",
"520 308 LINE",
"533 380 LINE",
"193 380 LINE",
"230 594 LINE",
"600 594 LINE",
"613 668 LINE",
"157 668 LINE",
"40 0 LINE"
);
}
);
width = 583;
}
);
unicode = 0046;
},
{
glyphname = G;
layers = (
{
layerId = "573A4E99-B1EA-4FCA-90B1-EE1ED57C0074";
paths = (
{
closed = 1;
nodes = (
"477 -10 OFFCURVE",
"574 31 OFFCURVE",
"643 104 CURVE",
"689 363 LINE",
"402 363 LINE",
"389 287 LINE",
"591 287 LINE",
"565 141 LINE",
"516 96 OFFCURVE",
"451 66 OFFCURVE",
"364 66 CURVE SMOOTH",
"239 66 OFFCURVE",
"152 146 OFFCURVE",
"152 279 CURVE SMOOTH",
"152 480 OFFCURVE",
"276 602 OFFCURVE",
"448 602 CURVE SMOOTH",
"531 602 OFFCURVE",
"601 577 OFFCURVE",
"652 536 CURVE",
"697 595 LINE",
"640 647 OFFCURVE",
"551 678 OFFCURVE",
"456 678 CURVE SMOOTH",
"226 678 OFFCURVE",
"65 523 OFFCURVE",
"65 277 CURVE SMOOTH",
"65 105 OFFCURVE",
"187 -10 OFFCURVE",
"356 -10 CURVE SMOOTH"
);
}
);
width = 730;
}
);
leftKerningGroup = _C1;
rightKerningGroup = _G;
unicode = 0047;
},
{
glyphname = H;
layers = (
{
layerId = "573A4E99-B1EA-4FCA-90B1-EE1ED57C0074";
paths = (
{
closed = 1;
nodes = (
"596 0 LINE",
"713 668 LINE",
"627 668 LINE",
"577 382 LINE",
"193 382 LINE",
"243 668 LINE",
"157 668 LINE",
"40 0 LINE",
"126 0 LINE",
"180 306 LINE",
"564 306 LINE",
"510 0 LINE"
);
}
);
width = 720;
}
);
unicode = 0048;
},
{
glyphname = I;
layers = (
{
layerId = "573A4E99-B1EA-4FCA-90B1-EE1ED57C0074";
paths = (
{
closed = 1;
nodes = (
"126 0 LINE",
"243 668 LINE",
"157 668 LINE",
"40 0 LINE"
);
}
);
width = 251;
}
);
unicode = 0049;
},
{
glyphname = J;
layers = (
{
layerId = "573A4E99-B1EA-4FCA-90B1-EE1ED57C0074";
paths = (
{
closed = 1;
nodes = (
"338 -10 OFFCURVE",
"412 61 OFFCURVE",
"439 218 CURVE",
"519 668 LINE",
"433 668 LINE",
"354 218 LINE SMOOTH",
"335 110 OFFCURVE",
"277 66 OFFCURVE",
"189 66 CURVE SMOOTH",
"142 66 OFFCURVE",
"99 87 OFFCURVE",
"56 126 CURVE",
"14 68 LINE",
"61 13 OFFCURVE",
"118 -10 OFFCURVE",
"189 -10 CURVE SMOOTH"
);
}
);
width = 526;
}
);
leftKerningGroup = _J1;
rightKerningGroup = _J;
unicode = 004A;
},
{
glyphname = K;
layers = (
{
layerId = "573A4E99-B1EA-4FCA-90B1-EE1ED57C0074";
paths = (
{
closed = 1;
nodes = (
"561 0 LINE",
"347 375 LINE",
"668 668 LINE",
"553 668 LINE",
"183 327 LINE",
"243 668 LINE",
"157 668 LINE",
"40 0 LINE",
"126 0 LINE",
"162 205 LINE",
"285 318 LINE",
"464 0 LINE"
);
}
);
width = 632;
}
);
rightKerningGroup = _K;
unicode = 004B;
},
{
glyphname = L;
layers = (
{
layerId = "573A4E99-B1EA-4FCA-90B1-EE1ED57C0074";
paths = (
{
closed = 1;
nodes = (
"446 0 LINE",
"458 76 LINE",
"139 76 LINE",
"243 668 LINE",
"157 668 LINE",
"40 0 LINE"
);
}
);
width = 533;
}
);
rightKerningGroup = _L;
unicode = 004C;
},
{
glyphname = M;
layers = (
{
layerId = "573A4E99-B1EA-4FCA-90B1-EE1ED57C0074";
paths = (
{
closed = 1;
nodes = (
"778 0 LINE",
"895 668 LINE",
"756 668 LINE",
"423 106 LINE",
"288 668 LINE",
"157 668 LINE",
"40 0 LINE",
"126 0 LINE",
"228 580 LINE",
"371 0 LINE",
"447 0 LINE",
"794 580 LINE",
"692 0 LINE"
);
}
);
width = 903;
}
);
unicode = 004D;
},
{
glyphname = N;
layers = (
{
layerId = "573A4E99-B1EA-4FCA-90B1-EE1ED57C0074";
paths = (
{
closed = 1;
nodes = (
"596 0 LINE",
"713 668 LINE",
"627 668 LINE",
"530 114 LINE",
"252 668 LINE",
"157 668 LINE",
"40 0 LINE",
"126 0 LINE",
"223 554 LINE",
"501 0 LINE"
);
}
);
width = 720;
}
);
unicode = 004E;
},
{
glyphname = O;
layers = (
{
layerId = "573A4E99-B1EA-4FCA-90B1-EE1ED57C0074";
paths = (
{
closed = 1;
nodes = (
"585 -10 OFFCURVE",
"747 145 OFFCURVE",
"747 391 CURVE SMOOTH",
"747 563 OFFCURVE",
"625 678 OFFCURVE",
"456 678 CURVE SMOOTH",
"226 678 OFFCURVE",
"65 523 OFFCURVE",
"65 277 CURVE SMOOTH",
"65 105 OFFCURVE",
"187 -10 OFFCURVE",
"356 -10 CURVE SMOOTH"
);
},
{
closed = 1;
nodes = (
"239 66 OFFCURVE",
"152 146 OFFCURVE",
"152 279 CURVE SMOOTH",
"152 480 OFFCURVE",
"276 602 OFFCURVE",
"448 602 CURVE SMOOTH",
"573 602 OFFCURVE",
"660 522 OFFCURVE",
"660 389 CURVE SMOOTH",
"660 188 OFFCURVE",
"536 66 OFFCURVE",
"364 66 CURVE SMOOTH"
);
}
);
width = 780;
}
);
leftKerningGroup = _C1;
rightKerningGroup = _D;
unicode = 004F;
},
{
glyphname = P;
layers = (
{
layerId = "573A4E99-B1EA-4FCA-90B1-EE1ED57C0074";
paths = (
{
closed = 1;
nodes = (
"629 609 OFFCURVE",
"550 668 OFFCURVE",
"406 668 CURVE SMOOTH",
"157 668 LINE",
"40 0 LINE",
"126 0 LINE",
"170 254 LINE",
"354 254 LINE SMOOTH",
"522 254 OFFCURVE",
"629 325 OFFCURVE",
"629 496 CURVE SMOOTH"
);
},
{
closed = 1;
nodes = (
"541 364 OFFCURVE",
"463 328 OFFCURVE",
"346 328 CURVE SMOOTH",
"184 328 LINE",
"230 594 LINE",
"382 594 LINE SMOOTH",
"486 594 OFFCURVE",
"541 564 OFFCURVE",
"541 488 CURVE SMOOTH"
);
}
);
width = 639;
}
);
unicode = 0050;
},
{
glyphname = Q;
layers = (
{
layerId = "573A4E99-B1EA-4FCA-90B1-EE1ED57C0074";
paths = (
{
closed = 1;
nodes = (
"591 -192 OFFCURVE",
"654 -173 OFFCURVE",
"701 -138 CURVE",
"680 -75 LINE",
"644 -103 OFFCURVE",
"586 -122 OFFCURVE",
"533 -122 CURVE SMOOTH",
"474 -122 OFFCURVE",
"423 -99 OFFCURVE",
"423 -39 CURVE SMOOTH",
"423 -30 OFFCURVE",
"423 -16 OFFCURVE",
"426 -5 CURVE",
"618 22 OFFCURVE",
"747 172 OFFCURVE",
"747 391 CURVE SMOOTH",
"747 563 OFFCURVE",
"625 678 OFFCURVE",
"456 678 CURVE SMOOTH",
"226 678 OFFCURVE",
"65 523 OFFCURVE",
"65 277 CURVE SMOOTH",
"65 105 OFFCURVE",
"187 -10 OFFCURVE",
"356 -10 CURVE",
"353 -25 OFFCURVE",
"352 -41 OFFCURVE",
"352 -53 CURVE SMOOTH",
"352 -147 OFFCURVE",
"437 -192 OFFCURVE",
"531 -192 CURVE SMOOTH"
);
},
{
closed = 1;
nodes = (
"239 66 OFFCURVE",
"152 146 OFFCURVE",
"152 279 CURVE SMOOTH",
"152 480 OFFCURVE",
"276 602 OFFCURVE",
"448 602 CURVE SMOOTH",
"573 602 OFFCURVE",
"660 522 OFFCURVE",
"660 389 CURVE SMOOTH",
"660 188 OFFCURVE",
"536 66 OFFCURVE",
"364 66 CURVE SMOOTH"
);
}
);
width = 780;
}
);
leftKerningGroup = _C1;
rightKerningGroup = _D;
unicode = 0051;
},
{
glyphname = R;
layers = (
{
layerId = "573A4E99-B1EA-4FCA-90B1-EE1ED57C0074";
paths = (
{
closed = 1;
nodes = (
"631 616 OFFCURVE",
"552 668 OFFCURVE",
"405 668 CURVE SMOOTH",
"157 668 LINE",
"40 0 LINE",
"126 0 LINE",
"174 276 LINE",
"330 276 LINE",
"482 0 LINE",
"578 0 LINE",
"418 281 LINE",
"541 294 OFFCURVE",
"631 355 OFFCURVE",
"631 507 CURVE SMOOTH"
);
},
{
closed = 1;
nodes = (
"542 380 OFFCURVE",
"471 349 OFFCURVE",
"348 349 CURVE SMOOTH",
"188 349 LINE",
"230 594 LINE",
"381 594 LINE SMOOTH",
"489 594 OFFCURVE",
"542 571 OFFCURVE",
"542 498 CURVE SMOOTH"
);
}
);
width = 639;
}
);
rightKerningGroup = _R;
unicode = 0052;
},
{
glyphname = S;
layers = (
{
layerId = "573A4E99-B1EA-4FCA-90B1-EE1ED57C0074";
paths = (
{
closed = 1;
nodes = (
"425 -10 OFFCURVE",
"533 74 OFFCURVE",
"533 214 CURVE SMOOTH",
"533 285 OFFCURVE",
"491 352 OFFCURVE",
"395 371 CURVE SMOOTH",
"284 393 LINE SMOOTH",
"225 404 OFFCURVE",
"198 428 OFFCURVE",
"198 475 CURVE SMOOTH",
"198 555 OFFCURVE",
"260 602 OFFCURVE",
"363 602 CURVE SMOOTH",
"430 602 OFFCURVE",
"488 574 OFFCURVE",
"535 533 CURVE",
"581 596 LINE",
"524 652 OFFCURVE",
"438 678 OFFCURVE",
"362 678 CURVE SMOOTH",
"203 678 OFFCURVE",
"110 586 OFFCURVE",
"110 462 CURVE SMOOTH",
"110 390 OFFCURVE",
"154 332 OFFCURVE",
"251 313 CURVE SMOOTH",
"362 291 LINE SMOOTH",
"418 280 OFFCURVE",
"446 251 OFFCURVE",
"446 202 CURVE SMOOTH",
"446 111 OFFCURVE",
"373 66 OFFCURVE",
"262 66 CURVE SMOOTH",
"191 66 OFFCURVE",
"137 92 OFFCURVE",
"73 149 CURVE",
"26 87 LINE",
"86 20 OFFCURVE",
"170 -10 OFFCURVE",
"253 -10 CURVE SMOOTH"
);
}
);
width = 592;
}
);
leftKerningGroup = _S;
rightKerningGroup = _S;
unicode = 0053;
},
{
glyphname = T;
layers = (
{
layerId = "573A4E99-B1EA-4FCA-90B1-EE1ED57C0074";
paths = (
{
closed = 1;
nodes = (
"299 0 LINE",
"402 592 LINE",
"612 592 LINE",
"625 668 LINE",
"120 668 LINE",
"107 592 LINE",
"317 592 LINE",
"213 0 LINE"
);
}
);
width = 596;
}
);
leftKerningGroup = _T;
rightKerningGroup = _T;
unicode = 0054;
},
{
glyphname = U;
layers = (
{
layerId = "573A4E99-B1EA-4FCA-90B1-EE1ED57C0074";
paths = (
{
closed = 1;
nodes = (
"496 -10 OFFCURVE",
"606 61 OFFCURVE",
"641 258 CURVE SMOOTH",
"713 668 LINE",
"627 668 LINE",
"556 261 LINE",
"532 117 OFFCURVE",
"448 66 OFFCURVE",
"333 66 CURVE SMOOTH",
"214 66 OFFCURVE",
"169 134 OFFCURVE",
"169 221 CURVE SMOOTH",
"169 238 OFFCURVE",
"171 256 OFFCURVE",
"174 275 CURVE SMOOTH",
"243 668 LINE",
"157 668 LINE",
"89 278 LINE SMOOTH",
"85 256 OFFCURVE",
"83 235 OFFCURVE",
"83 215 CURVE SMOOTH",
"83 74 OFFCURVE",
"175 -10 OFFCURVE",
"326 -10 CURVE SMOOTH"
);
}
);
width = 720;
}
);
leftKerningGroup = _U;
rightKerningGroup = _U;
unicode = 0055;
},
{
glyphname = V;
layers = (
{
layerId = "573A4E99-B1EA-4FCA-90B1-EE1ED57C0074";
paths = (
{
closed = 1;
nodes = (
"354 0 LINE",
"745 668 LINE",
"646 668 LINE",
"320 98 LINE",
"193 668 LINE",
"103 668 LINE",
"261 0 LINE"
);
}
);
width = 699;
}
);
unicode = 0056;
},
{
glyphname = W;
layers = (
{
layerId = "573A4E99-B1EA-4FCA-90B1-EE1ED57C0074";
paths = (
{
closed = 1;
nodes = (
"719 0 LINE",
"1049 668 LINE",
"951 668 LINE",
"686 111 LINE",
"619 668 LINE",
"526 668 LINE",
"262 111 LINE",
"194 668 LINE",
"103 668 LINE",
"200 0 LINE",
"292 0 LINE",
"557 555 LINE",
"626 0 LINE"
);
}
);
width = 1003;
}
);
leftKerningGroup = _W;
rightKerningGroup = _W;
unicode = 0057;
},
{
glyphname = X;
layers = (
{
layerId = "573A4E99-B1EA-4FCA-90B1-EE1ED57C0074";
paths = (
{
closed = 1;
nodes = (
"608 0 LINE",
"412 344 LINE",
"715 668 LINE",
"604 668 LINE",
"361 405 LINE",
"208 668 LINE",
"113 668 LINE",
"304 344 LINE",
"-14 0 LINE",
"97 0 LINE",
"355 283 LINE",
"514 0 LINE"
);
}
);
width = 679;
}
);
unicode = 0058;
},
{
glyphname = Y;
layers = (
{
layerId = "573A4E99-B1EA-4FCA-90B1-EE1ED57C0074";
paths = (
{
closed = 1;
nodes = (
"340 0 LINE",
"386 260 LINE",
"725 668 LINE",
"619 668 LINE",
"351 340 LINE",
"198 668 LINE",
"103 668 LINE",
"300 260 LINE",
"255 0 LINE"
);
}
);
width = 679;
}
);
leftKerningGroup = _Y;
rightKerningGroup = _Y;
unicode = 0059;
},
{
glyphname = Z;
layers = (
{
layerId = "573A4E99-B1EA-4FCA-90B1-EE1ED57C0074";
paths = (
{
closed = 1;
nodes = (
"483 0 LINE",
"496 76 LINE",
"123 76 LINE",
"578 600 LINE",
"590 668 LINE",
"128 668 LINE",
"115 592 LINE",
"468 592 LINE",
"13 68 LINE",
"1 0 LINE"
);
}
);
width = 568;
}
);
leftKerningGroup = _Z;
rightKerningGroup = _Z;
unicode = 005A;
},
{
glyphname = bracketleft;
layers = (
{
layerId = "573A4E99-B1EA-4FCA-90B1-EE1ED57C0074";
paths = (
{
closed = 1;
nodes = (
"232 -252 LINE",
"244 -185 LINE",
"83 -185 LINE",
"233 671 LINE",
"395 671 LINE",
"407 738 LINE",
"170 738 LINE",
"-5 -252 LINE"
);
}
);
width = 377;
}
);
unicode = 005B;
},
{
glyphname = backslash;
layers = (
{
layerId = "573A4E99-B1EA-4FCA-90B1-EE1ED57C0074";
paths = (
{
closed = 1;
nodes = (
"269 0 LINE",
"166 668 LINE",
"93 668 LINE",
"197 0 LINE"
);
}
);
width = 329;
}
);
unicode = 005C;
},
{
glyphname = bracketright;
layers = (
{
layerId = "573A4E99-B1EA-4FCA-90B1-EE1ED57C0074";
paths = (
{
closed = 1;
nodes = (
"208 -252 LINE",
"383 738 LINE",
"146 738 LINE",
"134 671 LINE",
"295 671 LINE",
"144 -185 LINE",
"-17 -185 LINE",
"-28 -252 LINE"
);
}
);
width = 377;
}
);
unicode = 005D;
},
{
glyphname = asciicircum;
layers = (
{
layerId = "573A4E99-B1EA-4FCA-90B1-EE1ED57C0074";
paths = (
{
closed = 1;
nodes = (
"489 314 LINE",
"405 668 LINE",
"326 668 LINE",
"119 314 LINE",
"197 314 LINE",
"357 590 LINE",
"418 314 LINE"
);
}
);
width = 582;
}
);
unicode = 005E;
},
{
glyphname = underscore;
layers = (
{
layerId = "573A4E99-B1EA-4FCA-90B1-EE1ED57C0074";
paths = (
{
closed = 1;
nodes = (
"406 -103 LINE",
"417 -44 LINE",
"-50 -44 LINE",
"-60 -103 LINE"
);
}
);
width = 467;
}
);
unicode = 005F;
},
{
glyphname = grave;
layers = (
{
anchors = (
{
name = _top;
position = "{387, 510}";
}
);
layerId = "573A4E99-B1EA-4FCA-90B1-EE1ED57C0074";
paths = (
{
closed = 1;
nodes = (
"420 547 LINE",
"372 696 LINE",
"292 696 LINE",
"366 547 LINE"
);
}
);
width = 600;
}
);
unicode = 0060;
},
{
glyphname = a;
layers = (
{
layerId = "573A4E99-B1EA-4FCA-90B1-EE1ED57C0074";
paths = (
{
closed = 1;
nodes = (
"279 -10 OFFCURVE",
"335 18 OFFCURVE",
"371 61 CURVE",
"361 0 LINE",
"439 0 LINE",
"489 286 LINE",
"492 298 OFFCURVE",
"493 314 OFFCURVE",
"493 327 CURVE SMOOTH",
"493 430 OFFCURVE",
"410 480 OFFCURVE",
"298 480 CURVE SMOOTH",
"235 480 OFFCURVE",
"173 460 OFFCURVE",
"116 417 CURVE",
"138 353 LINE",
"194 390 OFFCURVE",
"247 409 OFFCURVE",
"297 409 CURVE SMOOTH",
"369 409 OFFCURVE",
"410 379 OFFCURVE",
"410 314 CURVE SMOOTH",
"410 307 OFFCURVE",
"410 303 OFFCURVE",
"409 296 CURVE",
"235 275 LINE SMOOTH",
"99 258 OFFCURVE",
"32 211 OFFCURVE",
"32 122 CURVE SMOOTH",
"32 39 OFFCURVE",
"100 -10 OFFCURVE",
"194 -10 CURVE SMOOTH"
);
},
{
closed = 1;
nodes = (
"154 61 OFFCURVE",
"114 88 OFFCURVE",
"114 128 CURVE SMOOTH",
"114 169 OFFCURVE",
"146 197 OFFCURVE",
"245 210 CURVE SMOOTH",
"398 229 LINE",
"391 189 LINE SMOOTH",
"378 122 OFFCURVE",
"319 61 OFFCURVE",
"218 61 CURVE SMOOTH"
);
}
);
width = 560;
}
);
leftKerningGroup = _a1;
rightKerningGroup = _a;
unicode = 0061;
},
{
glyphname = b;
layers = (
{
layerId = "573A4E99-B1EA-4FCA-90B1-EE1ED57C0074";
paths = (
{
closed = 1;
nodes = (
"451 -10 OFFCURVE",
"558 104 OFFCURVE",
"558 277 CURVE SMOOTH",
"558 393 OFFCURVE",
"484 480 OFFCURVE",
"364 480 CURVE SMOOTH",
"289 480 OFFCURVE",
"226 453 OFFCURVE",
"189 405 CURVE",
"235 668 LINE",
"154 668 LINE",
"37 0 LINE",
"115 0 LINE",
"130 87 LINE",
"154 26 OFFCURVE",
"213 -10 OFFCURVE",
"294 -10 CURVE SMOOTH"
);
},
{
closed = 1;
nodes = (
"202 61 OFFCURVE",
"154 117 OFFCURVE",
"154 197 CURVE SMOOTH",
"154 327 OFFCURVE",
"229 409 OFFCURVE",
"341 409 CURVE SMOOTH",
"426 409 OFFCURVE",
"475 353 OFFCURVE",
"475 273 CURVE SMOOTH",
"475 143 OFFCURVE",
"399 61 OFFCURVE",
"287 61 CURVE SMOOTH"
);
}
);
width = 607;
}
);
rightKerningGroup = _b;
unicode = 0062;
},
{
glyphname = c;
layers = (
{
layerId = "573A4E99-B1EA-4FCA-90B1-EE1ED57C0074";
paths = (
{
closed = 1;
nodes = (
"323 -10 OFFCURVE",
"379 10 OFFCURVE",
"428 49 CURVE",
"407 109 LINE",
"359 74 OFFCURVE",
"319 61 OFFCURVE",
"268 61 CURVE SMOOTH",
"183 61 OFFCURVE",
"132 117 OFFCURVE",
"132 197 CURVE SMOOTH",
"132 327 OFFCURVE",
"210 409 OFFCURVE",
"322 409 CURVE SMOOTH",
"373 409 OFFCURVE",
"415 396 OFFCURVE",
"451 361 CURVE",
"493 421 LINE",
"454 460 OFFCURVE",
"402 480 OFFCURVE",
"330 480 CURVE SMOOTH",
"164 480 OFFCURVE",
"49 369 OFFCURVE",
"49 193 CURVE SMOOTH",
"49 78 OFFCURVE",
"128 -10 OFFCURVE",
"260 -10 CURVE SMOOTH"
);
}
);
width = 508;
}
);
leftKerningGroup = _c1;
unicode = 0063;
},
{
glyphname = d;
layers = (
{
layerId = "573A4E99-B1EA-4FCA-90B1-EE1ED57C0074";
paths = (
{
closed = 1;
nodes = (
"318 -10 OFFCURVE",
"383 16 OFFCURVE",
"419 67 CURVE",
"408 0 LINE",
"486 0 LINE",
"603 668 LINE",
"522 668 LINE",
"473 388 LINE",
"450 448 OFFCURVE",
"389 480 OFFCURVE",
"312 480 CURVE SMOOTH",
"156 480 OFFCURVE",
"49 366 OFFCURVE",
"49 193 CURVE SMOOTH",
"49 77 OFFCURVE",
"122 -10 OFFCURVE",
"242 -10 CURVE SMOOTH"
);
},
{
closed = 1;
nodes = (
"181 61 OFFCURVE",
"132 117 OFFCURVE",
"132 197 CURVE SMOOTH",
"132 327 OFFCURVE",
"207 409 OFFCURVE",
"320 409 CURVE SMOOTH",
"404 409 OFFCURVE",
"453 353 OFFCURVE",
"453 273 CURVE SMOOTH",
"453 143 OFFCURVE",
"377 61 OFFCURVE",
"265 61 CURVE SMOOTH"
);
}
);
width = 607;
}
);
leftKerningGroup = _c1;
unicode = 0064;
},
{
glyphname = e;
layers = (
{
layerId = "573A4E99-B1EA-4FCA-90B1-EE1ED57C0074";
paths = (
{
closed = 1;
nodes = (
"340 -10 OFFCURVE",
"401 11 OFFCURVE",
"456 52 CURVE",
"434 117 LINE",
"387 80 OFFCURVE",
"334 61 OFFCURVE",
"275 61 CURVE SMOOTH",
"191 61 OFFCURVE",
"132 101 OFFCURVE",
"132 189 CURVE SMOOTH",
"132 196 OFFCURVE",
"132 203 OFFCURVE",
"133 210 CURVE",
"486 210 LINE",
"503 234 OFFCURVE",
"512 270 OFFCURVE",
"512 293 CURVE SMOOTH",
"512 405 OFFCURVE",
"437 480 OFFCURVE",
"320 480 CURVE SMOOTH",
"170 480 OFFCURVE",
"49 373 OFFCURVE",
"49 193 CURVE SMOOTH",
"49 78 OFFCURVE",
"127 -10 OFFCURVE",
"263 -10 CURVE SMOOTH"
);
},
{
closed = 1;
nodes = (
"387 409 OFFCURVE",
"429 375 OFFCURVE",
"429 300 CURVE SMOOTH",
"429 291 OFFCURVE",
"428 284 OFFCURVE",
"426 278 CURVE",
"140 278 LINE",
"161 360 OFFCURVE",
"235 409 OFFCURVE",
"312 409 CURVE SMOOTH"
);
}
);
width = 560;
}
);
leftKerningGroup = _c1;
rightKerningGroup = _b;
unicode = 0065;
},
{
glyphname = f;
layers = (
{
layerId = "573A4E99-B1EA-4FCA-90B1-EE1ED57C0074";
paths = (
{
closed = 1;
nodes = (
"169 0 LINE",
"239 400 LINE",
"363 400 LINE",
"375 470 LINE",
"251 470 LINE",
"262 532 LINE SMOOTH",
"271 583 OFFCURVE",
"297 604 OFFCURVE",
"348 604 CURVE SMOOTH",
"365 604 OFFCURVE",
"386 603 OFFCURVE",
"398 600 CURVE",
"410 666 LINE",
"395 671 OFFCURVE",
"367 674 OFFCURVE",
"342 674 CURVE SMOOTH",
"247 674 OFFCURVE",
"198 630 OFFCURVE",
"182 537 CURVE SMOOTH",
"170 470 LINE",
"65 470 LINE",
"53 400 LINE",
"158 400 LINE",
"88 0 LINE"
);
}
);
width = 360;
}
);
unicode = 0066;
},
{
glyphname = g;
layers = (
{
layerId = "573A4E99-B1EA-4FCA-90B1-EE1ED57C0074";
paths = (
{
closed = 1;
nodes = (
"320 20 OFFCURVE",
"381 41 OFFCURVE",
"420 88 CURVE",
"411 35 LINE",
"389 -78 OFFCURVE",
"312 -121 OFFCURVE",
"217 -121 CURVE SMOOTH",
"160 -121 OFFCURVE",
"106 -99 OFFCURVE",
"55 -55 CURVE",
"17 -110 LINE",
"73 -163 OFFCURVE",
"140 -192 OFFCURVE",
"215 -192 CURVE SMOOTH",
"376 -192 OFFCURVE",
"463 -120 OFFCURVE",
"494 51 CURVE SMOOTH",
"568 470 LINE",
"491 470 LINE",
"477 389 LINE",
"450 449 OFFCURVE",
"392 480 OFFCURVE",
"312 480 CURVE SMOOTH",
"152 480 OFFCURVE",
"53 365 OFFCURVE",
"53 208 CURVE SMOOTH",
"53 96 OFFCURVE",
"135 20 OFFCURVE",
"247 20 CURVE SMOOTH"
);
},
{
closed = 1;
nodes = (
"189 91 OFFCURVE",
"136 141 OFFCURVE",
"136 213 CURVE SMOOTH",
"136 317 OFFCURVE",
"194 409 OFFCURVE",
"320 409 CURVE SMOOTH",
"400 409 OFFCURVE",
"453 359 OFFCURVE",
"453 287 CURVE SMOOTH",
"453 183 OFFCURVE",
"394 91 OFFCURVE",
"269 91 CURVE SMOOTH"
);
}
);
width = 607;
}
);
leftKerningGroup = _c1;
unicode = 0067;
},
{
glyphname = h;
layers = (
{
layerId = "573A4E99-B1EA-4FCA-90B1-EE1ED57C0074";
paths = (
{
closed = 1;
nodes = (
"449 0 LINE",
"500 289 LINE SMOOTH",
"503 308 OFFCURVE",
"505 325 OFFCURVE",
"505 341 CURVE SMOOTH",
"505 436 OFFCURVE",
"451 480 OFFCURVE",
"350 480 CURVE SMOOTH",
"277 480 OFFCURVE",
"229 461 OFFCURVE",
"190 414 CURVE",
"235 668 LINE",
"154 668 LINE",
"37 0 LINE",
"118 0 LINE",
"162 252 LINE",
"181 356 OFFCURVE",
"236 409 OFFCURVE",
"323 409 CURVE SMOOTH",
"388 409 OFFCURVE",
"421 382 OFFCURVE",
"421 321 CURVE SMOOTH",
"421 309 OFFCURVE",
"420 295 OFFCURVE",
"417 280 CURVE SMOOTH",
"368 0 LINE"
);
}
);
width = 570;
}
);
rightKerningGroup = _h;
unicode = 0068;
},
{
glyphname = i;
layers = (
{
layerId = "573A4E99-B1EA-4FCA-90B1-EE1ED57C0074";
paths = (
{
closed = 1;
nodes = (
"118 0 LINE",
"200 470 LINE",
"119 470 LINE",
"37 0 LINE"
);
},
{
closed = 1;
nodes = (
"215 574 OFFCURVE",
"238 595 OFFCURVE",
"238 628 CURVE SMOOTH",
"238 652 OFFCURVE",
"221 669 OFFCURVE",
"192 669 CURVE SMOOTH",
"157 669 OFFCURVE",
"134 648 OFFCURVE",
"134 615 CURVE SMOOTH",
"134 591 OFFCURVE",
"151 574 OFFCURVE",
"180 574 CURVE SMOOTH"
);
}
);
width = 239;
}
);
unicode = 0069;
},
{
glyphname = j;
layers = (
{
layerId = "573A4E99-B1EA-4FCA-90B1-EE1ED57C0074";
paths = (
{
closed = 1;
nodes = (
"44 -188 OFFCURVE",
"92 -147 OFFCURVE",
"109 -51 CURVE SMOOTH",
"200 470 LINE",
"119 470 LINE",
"29 -45 LINE SMOOTH",
"20 -96 OFFCURVE",
"-6 -118 OFFCURVE",
"-57 -118 CURVE SMOOTH",
"-72 -118 OFFCURVE",
"-89 -117 OFFCURVE",
"-102 -114 CURVE",
"-112 -181 LINE",
"-97 -185 OFFCURVE",
"-71 -188 OFFCURVE",
"-51 -188 CURVE SMOOTH"
);
},
{
closed = 1;
nodes = (
"215 574 OFFCURVE",
"238 595 OFFCURVE",
"238 628 CURVE SMOOTH",
"238 652 OFFCURVE",
"221 669 OFFCURVE",
"192 669 CURVE SMOOTH",
"157 669 OFFCURVE",
"134 648 OFFCURVE",
"134 615 CURVE SMOOTH",
"134 591 OFFCURVE",
"151 574 OFFCURVE",
"180 574 CURVE SMOOTH"
);
}
);
width = 239;
}
);
unicode = 006A;
},
{
glyphname = k;
layers = (
{
layerId = "573A4E99-B1EA-4FCA-90B1-EE1ED57C0074";
paths = (
{
closed = 1;
nodes = (
"465 0 LINE",
"303 278 LINE",
"537 470 LINE",
"428 470 LINE",
"161 247 LINE",
"235 668 LINE",
"154 668 LINE",
"37 0 LINE",
"118 0 LINE",
"143 147 LINE",
"242 228 LINE",
"375 0 LINE"
);
}
);
width = 535;
}
);
rightKerningGroup = _k;
unicode = 006B;
},
{
glyphname = l;
layers = (
{
layerId = "573A4E99-B1EA-4FCA-90B1-EE1ED57C0074";
paths = (
{
closed = 1;
nodes = (
"118 0 LINE",
"235 668 LINE",
"154 668 LINE",
"37 0 LINE"
);
}
);
width = 239;
}
);
unicode = 006C;
},
{
glyphname = m;
layers = (
{
layerId = "573A4E99-B1EA-4FCA-90B1-EE1ED57C0074";
paths = (
{
closed = 1;
nodes = (
"727 0 LINE",
"778 289 LINE SMOOTH",
"781 308 OFFCURVE",
"783 328 OFFCURVE",
"783 341 CURVE SMOOTH",
"783 432 OFFCURVE",
"732 480 OFFCURVE",
"637 480 CURVE SMOOTH",
"562 480 OFFCURVE",
"509 462 OFFCURVE",
"466 405 CURVE",
"445 452 OFFCURVE",
"405 480 OFFCURVE",
"337 480 CURVE SMOOTH",
"273 480 OFFCURVE",
"226 462 OFFCURVE",
"187 417 CURVE",
"197 470 LINE",
"119 470 LINE",
"37 0 LINE",
"118 0 LINE",
"162 252 LINE",
"181 356 OFFCURVE",
"226 409 OFFCURVE",
"310 409 CURVE SMOOTH",
"370 409 OFFCURVE",
"394 374 OFFCURVE",
"394 321 CURVE SMOOTH",
"394 310 OFFCURVE",
"393 295 OFFCURVE",
"390 280 CURVE SMOOTH",
"341 0 LINE",
"422 0 LINE",
"466 252 LINE",
"485 356 OFFCURVE",
"531 409 OFFCURVE",
"615 409 CURVE SMOOTH",
"674 409 OFFCURVE",
"699 374 OFFCURVE",
"699 321 CURVE SMOOTH",
"699 310 OFFCURVE",
"698 295 OFFCURVE",
"695 280 CURVE SMOOTH",
"646 0 LINE"
);
}
);
width = 848;
}
);
leftKerningGroup = _m1;
rightKerningGroup = _h;
unicode = 006D;
},
{
glyphname = n;
layers = (
{
layerId = "573A4E99-B1EA-4FCA-90B1-EE1ED57C0074";
paths = (
{
closed = 1;
nodes = (
"449 0 LINE",
"500 289 LINE SMOOTH",
"503 308 OFFCURVE",
"505 325 OFFCURVE",
"505 341 CURVE SMOOTH",
"505 436 OFFCURVE",
"451 480 OFFCURVE",
"350 480 CURVE SMOOTH",
"274 480 OFFCURVE",
"226 460 OFFCURVE",
"186 409 CURVE",
"197 470 LINE",
"119 470 LINE",
"37 0 LINE",
"118 0 LINE",
"162 252 LINE",
"181 356 OFFCURVE",
"236 409 OFFCURVE",
"323 409 CURVE SMOOTH",
"388 409 OFFCURVE",
"421 382 OFFCURVE",
"421 321 CURVE SMOOTH",
"421 309 OFFCURVE",
"420 295 OFFCURVE",
"417 280 CURVE SMOOTH",
"368 0 LINE"
);
}
);
width = 570;
}
);
leftKerningGroup = _m1;
rightKerningGroup = _h;
unicode = 006E;
},
{
glyphname = o;
layers = (
{
layerId = "573A4E99-B1EA-4FCA-90B1-EE1ED57C0074";
paths = (
{
closed = 1;
nodes = (
"426 -10 OFFCURVE",
"541 101 OFFCURVE",
"541 277 CURVE SMOOTH",
"541 392 OFFCURVE",
"462 480 OFFCURVE",
"330 480 CURVE SMOOTH",
"164 480 OFFCURVE",
"49 369 OFFCURVE",
"49 193 CURVE SMOOTH",
"49 78 OFFCURVE",
"128 -10 OFFCURVE",
"260 -10 CURVE SMOOTH"
);
},
{
closed = 1;
nodes = (
"183 61 OFFCURVE",
"132 117 OFFCURVE",
"132 197 CURVE SMOOTH",
"132 327 OFFCURVE",
"210 409 OFFCURVE",
"322 409 CURVE SMOOTH",
"407 409 OFFCURVE",
"458 353 OFFCURVE",
"458 273 CURVE SMOOTH",
"458 143 OFFCURVE",
"380 61 OFFCURVE",
"268 61 CURVE SMOOTH"
);
}
);
width = 590;
}
);
leftKerningGroup = _c1;
rightKerningGroup = _b;
unicode = 006F;
},
{
glyphname = p;
layers = (
{
layerId = "573A4E99-B1EA-4FCA-90B1-EE1ED57C0074";
paths = (
{
closed = 1;
nodes = (
"451 -10 OFFCURVE",
"558 104 OFFCURVE",
"558 277 CURVE SMOOTH",
"558 393 OFFCURVE",
"484 480 OFFCURVE",
"364 480 CURVE SMOOTH",
"288 480 OFFCURVE",
"223 452 OFFCURVE",
"186 401 CURVE",
"198 470 LINE",
"120 470 LINE",
"5 -182 LINE",
"86 -182 LINE",
"133 83 LINE",
"156 23 OFFCURVE",
"217 -10 OFFCURVE",
"294 -10 CURVE SMOOTH"
);
},
{
closed = 1;
nodes = (
"202 61 OFFCURVE",
"154 117 OFFCURVE",
"154 197 CURVE SMOOTH",
"154 327 OFFCURVE",
"229 409 OFFCURVE",
"341 409 CURVE SMOOTH",
"426 409 OFFCURVE",
"475 353 OFFCURVE",
"475 273 CURVE SMOOTH",
"475 143 OFFCURVE",
"399 61 OFFCURVE",
"287 61 CURVE SMOOTH"
);
}
);
width = 607;
}
);
leftKerningGroup = _m1;
rightKerningGroup = _b;
unicode = 0070;
},
{
glyphname = q;
layers = (
{
layerId = "573A4E99-B1EA-4FCA-90B1-EE1ED57C0074";
paths = (
{
closed = 1;
nodes = (
"317 -10 OFFCURVE",
"380 16 OFFCURVE",
"416 63 CURVE",
"372 -182 LINE",
"453 -182 LINE",
"568 470 LINE",
"491 470 LINE",
"476 384 LINE",
"452 445 OFFCURVE",
"393 480 OFFCURVE",
"312 480 CURVE SMOOTH",
"156 480 OFFCURVE",
"49 366 OFFCURVE",
"49 193 CURVE SMOOTH",
"49 77 OFFCURVE",
"122 -10 OFFCURVE",
"242 -10 CURVE SMOOTH"
);
},
{
closed = 1;
nodes = (
"181 61 OFFCURVE",
"132 117 OFFCURVE",
"132 197 CURVE SMOOTH",
"132 327 OFFCURVE",
"207 409 OFFCURVE",
"320 409 CURVE SMOOTH",
"404 409 OFFCURVE",
"453 353 OFFCURVE",
"453 273 CURVE SMOOTH",
"453 143 OFFCURVE",
"377 61 OFFCURVE",
"265 61 CURVE SMOOTH"
);
}
);
width = 607;
}
);
leftKerningGroup = _c1;
unicode = 0071;
},
{
glyphname = r;
layers = (
{
layerId = "573A4E99-B1EA-4FCA-90B1-EE1ED57C0074";
paths = (
{
closed = 1;
nodes = (
"118 0 LINE",
"160 240 LINE SMOOTH",
"179 349 OFFCURVE",
"235 400 OFFCURVE",
"310 400 CURVE SMOOTH",
"327 400 OFFCURVE",
"345 398 OFFCURVE",
"362 394 CURVE",
"375 470 LINE",
"362 474 OFFCURVE",
"344 476 OFFCURVE",
"329 476 CURVE SMOOTH",
"266 476 OFFCURVE",
"220 458 OFFCURVE",
"184 397 CURVE",
"197 470 LINE",
"119 470 LINE",
"37 0 LINE"
);
}
);
width = 368;
}
);
leftKerningGroup = _m1;
rightKerningGroup = _r;
unicode = 0072;
},
{
glyphname = s;
layers = (
{
layerId = "573A4E99-B1EA-4FCA-90B1-EE1ED57C0074";
paths = (
{
closed = 1;
nodes = (
"343 -10 OFFCURVE",
"422 49 OFFCURVE",
"422 148 CURVE SMOOTH",
"422 208 OFFCURVE",
"389 253 OFFCURVE",
"305 269 CURVE SMOOTH",
"220 285 LINE SMOOTH",
"177 293 OFFCURVE",
"166 309 OFFCURVE",
"166 336 CURVE SMOOTH",
"166 384 OFFCURVE",
"210 409 OFFCURVE",
"279 409 CURVE SMOOTH",
"336 409 OFFCURVE",
"374 388 OFFCURVE",
"409 359 CURVE",
"452 419 LINE",
"412 458 OFFCURVE",
"354 480 OFFCURVE",
"282 480 CURVE SMOOTH",
"153 480 OFFCURVE",
"83 416 OFFCURVE",
"83 325 CURVE SMOOTH",
"83 271 OFFCURVE",
"113 225 OFFCURVE",
"195 209 CURVE SMOOTH",
"280 193 LINE SMOOTH",
"327 184 OFFCURVE",
"339 166 OFFCURVE",
"339 139 CURVE SMOOTH",
"339 90 OFFCURVE",
"293 61 OFFCURVE",
"212 61 CURVE SMOOTH",
"155 61 OFFCURVE",
"118 81 OFFCURVE",
"67 121 CURVE",
"22 58 LINE",
"73 14 OFFCURVE",
"132 -10 OFFCURVE",
"207 -10 CURVE SMOOTH"
);
}
);
width = 490;
}
);
leftKerningGroup = _s;
rightKerningGroup = _s;
unicode = 0073;
},
{
glyphname = t;
layers = (
{
layerId = "573A4E99-B1EA-4FCA-90B1-EE1ED57C0074";
paths = (
{
closed = 1;
nodes = (
"250 -6 OFFCURVE",
"276 -3 OFFCURVE",
"293 2 CURVE",
"304 68 LINE",
"292 65 OFFCURVE",
"269 64 OFFCURVE",
"252 64 CURVE SMOOTH",
"211 64 OFFCURVE",
"191 86 OFFCURVE",
"191 119 CURVE SMOOTH",
"191 126 OFFCURVE",
"192 130 OFFCURVE",
"193 137 CURVE SMOOTH",
"239 400 LINE",
"363 400 LINE",
"375 470 LINE",
"251 470 LINE",
"275 604 LINE",
"194 604 LINE",
"170 470 LINE",
"65 470 LINE",
"53 400 LINE",
"158 400 LINE",
"111 132 LINE SMOOTH",
"109 121 OFFCURVE",
"108 110 OFFCURVE",
"108 100 CURVE SMOOTH",
"108 31 OFFCURVE",
"154 -6 OFFCURVE",
"225 -6 CURVE SMOOTH"
);
}
);
width = 376;
}
);
leftKerningGroup = _t1;
unicode = 0074;
},
{
glyphname = u;
layers = (
{
layerId = "573A4E99-B1EA-4FCA-90B1-EE1ED57C0074";
paths = (
{
closed = 1;
nodes = (
"294 -10 OFFCURVE",
"342 10 OFFCURVE",
"382 61 CURVE",
"371 0 LINE",
"449 0 LINE",
"531 470 LINE",
"450 470 LINE",
"406 218 LINE",
"387 114 OFFCURVE",
"332 61 OFFCURVE",
"245 61 CURVE SMOOTH",
"180 61 OFFCURVE",
"147 88 OFFCURVE",
"147 149 CURVE SMOOTH",
"147 161 OFFCURVE",
"148 175 OFFCURVE",
"151 190 CURVE SMOOTH",
"200 470 LINE",
"119 470 LINE",
"68 181 LINE SMOOTH",
"65 162 OFFCURVE",
"63 145 OFFCURVE",
"63 129 CURVE SMOOTH",
"63 34 OFFCURVE",
"117 -10 OFFCURVE",
"218 -10 CURVE SMOOTH"
);
}
);
width = 570;
}
);
leftKerningGroup = _u;
unicode = 0075;
},
{
glyphname = v;
layers = (
{
layerId = "573A4E99-B1EA-4FCA-90B1-EE1ED57C0074";
paths = (
{
closed = 1;
nodes = (
"266 0 LINE",
"540 470 LINE",
"449 470 LINE",
"233 85 LINE",
"151 470 LINE",
"68 470 LINE",
"178 0 LINE"
);
}
);
width = 529;
}
);
leftKerningGroup = _v;
rightKerningGroup = _v;
unicode = 0076;
},
{
glyphname = w;
layers = (
{
layerId = "573A4E99-B1EA-4FCA-90B1-EE1ED57C0074";
paths = (
{
closed = 1;
nodes = (
"561 0 LINE",
"810 470 LINE",
"719 470 LINE",
"534 102 LINE",
"474 470 LINE",
"397 470 LINE",
"208 102 LINE",
"151 470 LINE",
"68 470 LINE",
"153 0 LINE",
"232 0 LINE",
"422 368 LINE",
"482 0 LINE"
);
}
);
width = 799;
}
);
leftKerningGroup = _w;
rightKerningGroup = _w;
unicode = 0077;
},
{
glyphname = x;
layers = (
{
layerId = "573A4E99-B1EA-4FCA-90B1-EE1ED57C0074";
paths = (
{
closed = 1;
nodes = (
"458 0 LINE",
"316 243 LINE",
"530 470 LINE",
"427 470 LINE",
"267 295 LINE",
"167 470 LINE",
"78 470 LINE",
"212 243 LINE",
"-14 0 LINE",
"89 0 LINE",
"262 187 LINE",
"370 0 LINE"
);
}
);
width = 529;
}
);
unicode = 0078;
},
{
glyphname = y;
layers = (
{
layerId = "573A4E99-B1EA-4FCA-90B1-EE1ED57C0074";
paths = (
{
closed = 1;
nodes = (
"116 -188 OFFCURVE",
"181 -146 OFFCURVE",
"266 0 CURVE SMOOTH",
"540 470 LINE",
"449 470 LINE",
"233 85 LINE",
"151 470 LINE",
"68 470 LINE",
"180 -7 LINE",
"124 -95 OFFCURVE",
"84 -118 OFFCURVE",
"41 -118 CURVE SMOOTH",
"14 -118 OFFCURVE",
"-11 -107 OFFCURVE",
"-32 -96 CURVE",
"-66 -157 LINE",
"-41 -176 OFFCURVE",
"-2 -188 OFFCURVE",
"34 -188 CURVE SMOOTH"
);
}
);
width = 529;
}
);
leftKerningGroup = _v;
rightKerningGroup = _v;
unicode = 0079;
},
{
glyphname = z;
layers = (
{
layerId = "573A4E99-B1EA-4FCA-90B1-EE1ED57C0074";
paths = (
{
closed = 1;
nodes = (
"375 0 LINE",
"387 70 LINE",
"110 70 LINE",
"436 408 LINE",
"447 470 LINE",
"93 470 LINE",
"81 400 LINE",
"339 400 LINE",
"12 62 LINE",
"1 0 LINE"
);
}
);
width = 460;
}
);
leftKerningGroup = _z;
rightKerningGroup = _z;
unicode = 007A;
},
{
glyphname = braceleft;
layers = (
{
layerId = "573A4E99-B1EA-4FCA-90B1-EE1ED57C0074";
paths = (
{
closed = 1;
nodes = (
"232 -252 LINE",
"244 -185 LINE",
"191 -185 LINE SMOOTH",
"156 -185 OFFCURVE",
"133 -170 OFFCURVE",
"133 -135 CURVE SMOOTH",
"133 -128 OFFCURVE",
"134 -123 OFFCURVE",
"135 -116 CURVE",
"184 163 LINE",
"185 170 OFFCURVE",
"186 175 OFFCURVE",
"186 182 CURVE SMOOTH",
"186 213 OFFCURVE",
"169 235 OFFCURVE",
"129 243 CURVE",
"188 254 OFFCURVE",
"206 283 OFFCURVE",
"213 323 CURVE SMOOTH",
"262 602 LINE SMOOTH",
"270 648 OFFCURVE",
"296 671 OFFCURVE",
"341 671 CURVE SMOOTH",
"395 671 LINE",
"408 738 LINE",
"324 738 LINE SMOOTH",
"248 738 OFFCURVE",
"202 688 OFFCURVE",
"189 616 CURVE SMOOTH",
"141 346 LINE SMOOTH",
"132 295 OFFCURVE",
"110 276 OFFCURVE",
"59 276 CURVE",
"47 210 LINE",
"88 210 OFFCURVE",
"108 194 OFFCURVE",
"108 163 CURVE SMOOTH",
"108 156 OFFCURVE",
"106 147 OFFCURVE",
"105 140 CURVE",
"57 -130 LINE",
"56 -138 OFFCURVE",
"56 -144 OFFCURVE",
"56 -151 CURVE SMOOTH",
"56 -214 OFFCURVE",
"103 -252 OFFCURVE",
"168 -252 CURVE SMOOTH"
);
}
);
width = 377;
}
);
unicode = 007B;
},
{
glyphname = bar;
layers = (
{
layerId = "573A4E99-B1EA-4FCA-90B1-EE1ED57C0074";
paths = (
{
closed = 1;
nodes = (
"64 -252 LINE",
"239 738 LINE",
"170 738 LINE",
"-5 -252 LINE"
);
}
);
width = 234;
}
);
unicode = 007C;
},
{
glyphname = braceright;
layers = (
{
layerId = "573A4E99-B1EA-4FCA-90B1-EE1ED57C0074";
paths = (
{
closed = 1;
nodes = (
"-29 -252 LINE",
"55 -252 LINE SMOOTH",
"131 -252 OFFCURVE",
"177 -202 OFFCURVE",
"190 -130 CURVE SMOOTH",
"238 140 LINE SMOOTH",
"247 191 OFFCURVE",
"269 210 OFFCURVE",
"320 210 CURVE",
"332 276 LINE",
"291 276 OFFCURVE",
"271 292 OFFCURVE",
"271 323 CURVE SMOOTH",
"271 331 OFFCURVE",
"272 339 OFFCURVE",
"274 346 CURVE",
"321 616 LINE",
"324 624 OFFCURVE",
"323 630 OFFCURVE",
"323 637 CURVE SMOOTH",
"323 700 OFFCURVE",
"275 738 OFFCURVE",
"211 738 CURVE SMOOTH",
"147 738 LINE",
"134 671 LINE",
"188 671 LINE SMOOTH",
"223 671 OFFCURVE",
"245 656 OFFCURVE",
"245 621 CURVE SMOOTH",
"245 614 OFFCURVE",
"244 609 OFFCURVE",
"243 602 CURVE",
"195 323 LINE",
"194 316 OFFCURVE",
"193 311 OFFCURVE",
"193 304 CURVE SMOOTH",
"193 273 OFFCURVE",
"210 251 OFFCURVE",
"250 243 CURVE",
"191 232 OFFCURVE",
"173 203 OFFCURVE",
"166 163 CURVE SMOOTH",
"117 -116 LINE SMOOTH",
"109 -162 OFFCURVE",
"82 -185 OFFCURVE",
"37 -185 CURVE SMOOTH",
"-16 -185 LINE"
);
}
);
width = 377;
}
);
unicode = 007D;
},
{
glyphname = asciitilde;
layers = (
{
layerId = "573A4E99-B1EA-4FCA-90B1-EE1ED57C0074";
paths = (
{
closed = 1;
nodes = (
"478 253 OFFCURVE",
"519 307 OFFCURVE",
"534 415 CURVE",
"470 415 LINE",
"454 351 OFFCURVE",
"434 321 OFFCURVE",
"395 321 CURVE SMOOTH",
"342 321 OFFCURVE",
"303 415 OFFCURVE",
"217 415 CURVE SMOOTH",
"137 415 OFFCURVE",
"96 361 OFFCURVE",
"81 253 CURVE",
"145 253 LINE",
"161 317 OFFCURVE",
"181 347 OFFCURVE",
"220 347 CURVE SMOOTH",
"271 347 OFFCURVE",
"313 253 OFFCURVE",
"398 253 CURVE SMOOTH"
);
}
);
width = 582;
}
);
leftKerningGroup = _plus;
rightKerningGroup = _plus;
unicode = 007E;
},
{
glyphname = exclamdown;
layers = (
{
layerId = "573A4E99-B1EA-4FCA-90B1-EE1ED57C0074";
paths = (
{
closed = 1;
nodes = (
"95 -182 LINE",
"127 0 LINE",
"163 290 LINE",
"106 290 LINE",
"41 0 LINE",
"9 -182 LINE"
);
},
{
closed = 1;
nodes = (
"191 395 OFFCURVE",
"213 417 OFFCURVE",
"213 450 CURVE SMOOTH",
"213 474 OFFCURVE",
"197 492 OFFCURVE",
"168 492 CURVE SMOOTH",
"133 492 OFFCURVE",
"111 470 OFFCURVE",
"111 437 CURVE SMOOTH",
"111 413 OFFCURVE",
"127 395 OFFCURVE",
"156 395 CURVE SMOOTH"
);
}
);
width = 251;
}
);
unicode = 00A1;
},
{
glyphname = cent;
layers = (
{
layerId = "573A4E99-B1EA-4FCA-90B1-EE1ED57C0074";
paths = (
{
closed = 1;
nodes = (
"183 -100 LINE",
"220 -7 LINE",
"233 -9 OFFCURVE",
"246 -10 OFFCURVE",
"260 -10 CURVE SMOOTH",
"323 -10 OFFCURVE",
"379 10 OFFCURVE",
"428 49 CURVE",
"407 109 LINE",
"359 74 OFFCURVE",
"319 61 OFFCURVE",
"268 61 CURVE SMOOTH",
"261 61 OFFCURVE",
"255 61 OFFCURVE",
"248 62 CURVE",
"384 400 LINE",
"409 392 OFFCURVE",
"431 380 OFFCURVE",
"451 361 CURVE",
"493 421 LINE",
"470 442 OFFCURVE",
"444 458 OFFCURVE",
"412 469 CURVE",
"453 570 LINE",
"401 570 LINE",
"364 478 LINE",
"353 479 OFFCURVE",
"342 480 OFFCURVE",
"330 480 CURVE SMOOTH",
"164 480 OFFCURVE",
"49 369 OFFCURVE",
"49 193 CURVE SMOOTH",
"49 106 OFFCURVE",
"93 36 OFFCURVE",
"173 5 CURVE",
"131 -100 LINE"
);
},
{
closed = 1;
nodes = (
"132 327 OFFCURVE",
"210 409 OFFCURVE",
"322 409 CURVE SMOOTH",
"336 409 LINE",
"201 75 LINE",
"157 96 OFFCURVE",
"132 141 OFFCURVE",
"132 197 CURVE SMOOTH"
);
}
);
width = 508;
}
);
unicode = 00A2;
},
{
glyphname = sterling;
layers = (
{
layerId = "573A4E99-B1EA-4FCA-90B1-EE1ED57C0074";
paths = (
{
closed = 1;
nodes = (
"376 273 LINE",
"385 325 LINE",
"193 325 LINE",
"188 356 OFFCURVE",
"184 387 OFFCURVE",
"184 418 CURVE SMOOTH",
"184 530 OFFCURVE",
"253 607 OFFCURVE",
"356 607 CURVE SMOOTH",
"416 607 OFFCURVE",
"463 588 OFFCURVE",
"523 531 CURVE",
"562 583 LINE",
"506 651 OFFCURVE",
"434 678 OFFCURVE",
"358 678 CURVE SMOOTH",
"213 678 OFFCURVE",
"97 579 OFFCURVE",
"97 424 CURVE SMOOTH",
"97 389 OFFCURVE",
"102 357 OFFCURVE",
"109 325 CURVE",
"47 325 LINE",
"38 273 LINE",
"118 273 LINE",
"120 259 OFFCURVE",
"121 246 OFFCURVE",
"121 233 CURVE SMOOTH",
"121 166 OFFCURVE",
"93 96 OFFCURVE",
"21 63 CURVE",
"10 0 LINE",
"460 0 LINE",
"471 71 LINE",
"113 71 LINE",
"185 108 OFFCURVE",
"201 193 OFFCURVE",
"201 241 CURVE SMOOTH",
"201 252 OFFCURVE",
"200 262 OFFCURVE",
"199 273 CURVE"
);
}
);
width = 554;
}
);
unicode = 00A3;
},
{
glyphname = currency;
layers = (
{
layerId = "573A4E99-B1EA-4FCA-90B1-EE1ED57C0074";
paths = (
{
closed = 1;
nodes = (
"620 -10 LINE",
"680 41 LINE",
"554 194 LINE",
"593 242 OFFCURVE",
"616 306 OFFCURVE",
"616 382 CURVE SMOOTH",
"616 414 OFFCURVE",
"610 443 OFFCURVE",
"598 468 CURVE",
"783 626 LINE",
"740 678 LINE",
"557 523 LINE",
"524 551 OFFCURVE",
"478 568 OFFCURVE",
"422 568 CURVE SMOOTH",
"367 568 OFFCURVE",
"320 554 OFFCURVE",
"279 527 CURVE",
"155 678 LINE",
"95 627 LINE",
"220 474 LINE",
"181 426 OFFCURVE",
"158 362 OFFCURVE",
"158 286 CURVE SMOOTH",
"158 253 OFFCURVE",
"164 224 OFFCURVE",
"176 198 CURVE",
"-8 42 LINE",
"35 -10 LINE",
"217 144 LINE",
"250 115 OFFCURVE",
"295 100 OFFCURVE",
"352 100 CURVE SMOOTH",
"405 100 OFFCURVE",
"453 113 OFFCURVE",
"495 140 CURVE"
);
},
{
closed = 1;
nodes = (
"276 164 OFFCURVE",
"233 213 OFFCURVE",
"233 290 CURVE SMOOTH",
"233 414 OFFCURVE",
"312 504 OFFCURVE",
"417 504 CURVE SMOOTH",
"498 504 OFFCURVE",
"541 455 OFFCURVE",
"541 378 CURVE SMOOTH",
"541 254 OFFCURVE",
"462 164 OFFCURVE",
"357 164 CURVE SMOOTH"
);
}
);
width = 742;
}
);
unicode = 00A4;
},
{
glyphname = yen;
layers = (
{
layerId = "573A4E99-B1EA-4FCA-90B1-EE1ED57C0074";
paths = (
{
closed = 1;
nodes = (
"322 0 LINE",
"337 89 LINE",
"503 89 LINE",
"512 141 LINE",
"346 141 LINE",
"364 245 LINE",
"531 245 LINE",
"540 297 LINE",
"394 297 LINE",
"668 668 LINE",
"569 668 LINE",
"334 343 LINE",
"214 668 LINE",
"124 668 LINE",
"267 297 LINE",
"122 297 LINE",
"113 245 LINE",
"279 245 LINE",
"261 141 LINE",
"94 141 LINE",
"85 89 LINE",
"251 89 LINE",
"236 0 LINE"
);
}
);
width = 642;
}
);
unicode = 00A5;
},
{
glyphname = brokenbar;
layers = (
{
layerId = "573A4E99-B1EA-4FCA-90B1-EE1ED57C0074";
paths = (
{
closed = 1;
nodes = (
"64 -252 LINE",
"144 204 LINE",
"75 204 LINE",
"-5 -252 LINE"
);
},
{
closed = 1;
nodes = (
"158 282 LINE",
"239 738 LINE",
"170 738 LINE",
"89 282 LINE"
);
}
);
width = 234;
}
);
unicode = 00A6;
},
{
glyphname = section;
layers = (
{
layerId = "573A4E99-B1EA-4FCA-90B1-EE1ED57C0074";
paths = (
{
closed = 1;
nodes = (
"546 281 OFFCURVE",
"515 315 OFFCURVE",
"439 360 CURVE SMOOTH",
"308 439 LINE SMOOTH",
"271 462 OFFCURVE",
"250 492 OFFCURVE",
"250 521 CURVE SMOOTH",
"250 572 OFFCURVE",
"296 607 OFFCURVE",
"364 607 CURVE SMOOTH",
"421 607 OFFCURVE",
"459 586 OFFCURVE",
"494 557 CURVE",
"537 617 LINE",
"497 656 OFFCURVE",
"439 678 OFFCURVE",
"367 678 CURVE SMOOTH",
"248 678 OFFCURVE",
"167 613 OFFCURVE",
"167 516 CURVE SMOOTH",
"167 477 OFFCURVE",
"191 436 OFFCURVE",
"227 409 CURVE",
"134 398 OFFCURVE",
"64 346 OFFCURVE",
"64 263 CURVE SMOOTH",
"64 216 OFFCURVE",
"91 177 OFFCURVE",
"167 132 CURVE SMOOTH",
"298 53 LINE SMOOTH",
"339 28 OFFCURVE",
"359 0 OFFCURVE",
"359 -31 CURVE SMOOTH",
"359 -83 OFFCURVE",
"313 -121 OFFCURVE",
"232 -121 CURVE SMOOTH",
"176 -121 OFFCURVE",
"138 -101 OFFCURVE",
"87 -61 CURVE",
"42 -124 LINE",
"93 -168 OFFCURVE",
"152 -192 OFFCURVE",
"227 -192 CURVE SMOOTH",
"362 -192 OFFCURVE",
"442 -125 OFFCURVE",
"442 -26 CURVE SMOOTH",
"442 14 OFFCURVE",
"421 52 OFFCURVE",
"389 77 CURVE",
"481 88 OFFCURVE",
"546 138 OFFCURVE",
"546 226 CURVE SMOOTH"
);
},
{
closed = 1;
nodes = (
"462 155 OFFCURVE",
"403 118 OFFCURVE",
"335 113 CURVE",
"204 193 LINE SMOOTH",
"163 218 OFFCURVE",
"148 240 OFFCURVE",
"148 268 CURVE SMOOTH",
"148 336 OFFCURVE",
"215 368 OFFCURVE",
"282 373 CURVE",
"402 300 LINE SMOOTH",
"446 273 OFFCURVE",
"462 254 OFFCURVE",
"462 223 CURVE SMOOTH"
);
}
);
width = 595;
}
);
unicode = 00A7;
},
{
glyphname = dieresis;
layers = (
{
anchors = (
{
name = _top;
position = "{347, 510}";
}
);
layerId = "573A4E99-B1EA-4FCA-90B1-EE1ED57C0074";
paths = (
{
closed = 1;
nodes = (
"300 578 OFFCURVE",
"319 598 OFFCURVE",
"319 626 CURVE SMOOTH",
"319 647 OFFCURVE",
"305 665 OFFCURVE",
"278 665 CURVE SMOOTH",
"247 665 OFFCURVE",
"227 646 OFFCURVE",
"227 617 CURVE SMOOTH",
"227 594 OFFCURVE",
"241 578 OFFCURVE",
"268 578 CURVE SMOOTH"
);
},
{
closed = 1;
nodes = (
"488 578 OFFCURVE",
"507 598 OFFCURVE",
"507 626 CURVE SMOOTH",
"507 647 OFFCURVE",
"493 665 OFFCURVE",
"466 665 CURVE SMOOTH",
"435 665 OFFCURVE",
"415 646 OFFCURVE",
"415 617 CURVE SMOOTH",
"415 594 OFFCURVE",
"429 578 OFFCURVE",
"456 578 CURVE SMOOTH"
);
}
);
width = 600;
}
);
unicode = 00A8;
},
{
glyphname = copyright;
layers = (
{
layerId = "573A4E99-B1EA-4FCA-90B1-EE1ED57C0074";
paths = (
{
closed = 1;
nodes = (
"628 -10 OFFCURVE",
"770 134 OFFCURVE",
"770 334 CURVE SMOOTH",
"770 534 OFFCURVE",
"628 678 OFFCURVE",
"420 678 CURVE SMOOTH",
"210 678 OFFCURVE",
"69 534 OFFCURVE",
"69 334 CURVE SMOOTH",
"69 134 OFFCURVE",
"210 -10 OFFCURVE",
"420 -10 CURVE SMOOTH"
);
},
{
closed = 1;
nodes = (
"241 41 OFFCURVE",
"125 161 OFFCURVE",
"125 334 CURVE SMOOTH",
"125 507 OFFCURVE",
"241 627 OFFCURVE",
"420 627 CURVE SMOOTH",
"597 627 OFFCURVE",
"714 507 OFFCURVE",
"714 334 CURVE SMOOTH",
"714 161 OFFCURVE",
"597 41 OFFCURVE",
"420 41 CURVE SMOOTH"
);
},
{
closed = 1;
nodes = (
"470 168 OFFCURVE",
"507 181 OFFCURVE",
"537 207 CURVE",
"512 250 LINE",
"486 231 OFFCURVE",
"457 221 OFFCURVE",
"426 221 CURVE SMOOTH",
"366 221 OFFCURVE",
"330 266 OFFCURVE",
"330 334 CURVE SMOOTH",
"330 402 OFFCURVE",
"366 447 OFFCURVE",
"426 447 CURVE SMOOTH",
"457 447 OFFCURVE",
"486 437 OFFCURVE",
"512 417 CURVE",
"537 461 LINE",
"507 487 OFFCURVE",
"470 500 OFFCURVE",
"427 500 CURVE SMOOTH",
"327 500 OFFCURVE",
"268 433 OFFCURVE",
"268 334 CURVE SMOOTH",
"268 235 OFFCURVE",
"327 168 OFFCURVE",
"427 168 CURVE SMOOTH"
);
}
);
width = 806;
}
);
unicode = 00A9;
},
{
glyphname = ordfeminine;
layers = (
{
layerId = "573A4E99-B1EA-4FCA-90B1-EE1ED57C0074";
paths = (
{
closed = 1;
nodes = (
"294 232 OFFCURVE",
"341 257 OFFCURVE",
"376 297 CURVE",
"366 241 LINE",
"438 241 LINE",
"484 499 LINE",
"487 510 OFFCURVE",
"487 525 OFFCURVE",
"487 536 CURVE SMOOTH",
"487 629 OFFCURVE",
"413 674 OFFCURVE",
"312 674 CURVE SMOOTH",
"255 674 OFFCURVE",
"200 655 OFFCURVE",
"148 617 CURVE",
"168 559 LINE",
"220 594 OFFCURVE",
"271 610 OFFCURVE",
"311 610 CURVE SMOOTH",
"379 610 OFFCURVE",
"411 579 OFFCURVE",
"411 523 CURVE SMOOTH",
"411 516 OFFCURVE",
"411 511 OFFCURVE",
"410 508 CURVE",
"255 489 LINE SMOOTH",
"132 474 OFFCURVE",
"73 431 OFFCURVE",
"73 351 CURVE SMOOTH",
"73 275 OFFCURVE",
"133 232 OFFCURVE",
"218 232 CURVE SMOOTH"
);
},
{
closed = 1;
nodes = (
"184 296 OFFCURVE",
"148 317 OFFCURVE",
"148 356 CURVE SMOOTH",
"148 395 OFFCURVE",
"175 419 OFFCURVE",
"264 430 CURVE SMOOTH",
"400 447 LINE",
"394 412 LINE SMOOTH",
"383 353 OFFCURVE",
"332 296 OFFCURVE",
"240 296 CURVE SMOOTH"
);
}
);
width = 519;
}
);
unicode = 00AA;
},
{
glyphname = guillemotleft;
layers = (
{
layerId = "573A4E99-B1EA-4FCA-90B1-EE1ED57C0074";
paths = (
{
closed = 1;
nodes = (
"205 113 LINE",
"136 286 LINE",
"267 461 LINE",
"191 461 LINE",
"60 286 LINE",
"129 113 LINE"
);
},
{
closed = 1;
nodes = (
"401 113 LINE",
"332 286 LINE",
"463 461 LINE",
"387 461 LINE",
"256 286 LINE",
"325 113 LINE"
);
}
);
width = 476;
}
);
unicode = 00AB;
},
{
glyphname = logicalnot;
layers = (
{
layerId = "573A4E99-B1EA-4FCA-90B1-EE1ED57C0074";
paths = (
{
closed = 1;
nodes = (
"498 211 LINE",
"541 457 LINE",
"117 457 LINE",
"105 388 LINE",
"454 388 LINE",
"423 211 LINE"
);
}
);
width = 582;
}
);
unicode = 00AC;
},
{
glyphname = uni00AD;
layers = (
{
layerId = "573A4E99-B1EA-4FCA-90B1-EE1ED57C0074";
paths = (
{
closed = 1;
nodes = (
"318 253 LINE",
"329 319 LINE",
"66 319 LINE",
"54 253 LINE"
);
}
);
width = 368;
}
);
leftKerningGroup = _hypen;
rightKerningGroup = _hypen;
unicode = 00AD;
},
{
glyphname = registered;
layers = (
{
layerId = "573A4E99-B1EA-4FCA-90B1-EE1ED57C0074";
paths = (
{
closed = 1;
nodes = (
"481 190 OFFCURVE",
"581 294 OFFCURVE",
"581 434 CURVE SMOOTH",
"581 574 OFFCURVE",
"481 678 OFFCURVE",
"333 678 CURVE SMOOTH",
"186 678 OFFCURVE",
"86 574 OFFCURVE",
"86 434 CURVE SMOOTH",
"86 294 OFFCURVE",
"186 190 OFFCURVE",
"333 190 CURVE SMOOTH"
);
},
{
closed = 1;
nodes = (
"209 228 OFFCURVE",
"129 313 OFFCURVE",
"129 434 CURVE SMOOTH",
"129 555 OFFCURVE",
"209 640 OFFCURVE",
"333 640 CURVE SMOOTH",
"458 640 OFFCURVE",
"538 555 OFFCURVE",
"538 434 CURVE SMOOTH",
"538 313 OFFCURVE",
"458 228 OFFCURVE",
"333 228 CURVE SMOOTH"
);
},
{
closed = 1;
nodes = (
"429 532 OFFCURVE",
"399 556 OFFCURVE",
"340 556 CURVE SMOOTH",
"247 556 LINE",
"247 314 LINE",
"290 314 LINE",
"290 414 LINE",
"315 414 LINE",
"388 314 LINE",
"442 314 LINE",
"365 416 LINE",
"406 423 OFFCURVE",
"429 444 OFFCURVE",
"429 485 CURVE SMOOTH"
);
},
{
closed = 1;
nodes = (
"384 462 OFFCURVE",
"368 450 OFFCURVE",
"336 450 CURVE SMOOTH",
"290 450 LINE",
"290 519 LINE",
"336 519 LINE SMOOTH",
"368 519 OFFCURVE",
"384 508 OFFCURVE",
"384 485 CURVE SMOOTH"
);
}
);
width = 599;
}
);
unicode = 00AE;
},
{
glyphname = macron;
layers = (
{
anchors = (
{
name = _top;
position = "{347, 510}";
}
);
layerId = "573A4E99-B1EA-4FCA-90B1-EE1ED57C0074";
paths = (
{
closed = 1;
nodes = (
"492 594 LINE",
"502 650 LINE",
"240 650 LINE",
"230 594 LINE"
);
}
);
width = 600;
}
);
unicode = 00AF;
},
{
glyphname = degree;
layers = (
{
layerId = "573A4E99-B1EA-4FCA-90B1-EE1ED57C0074";
paths = (
{
closed = 1;
nodes = (
"315 426 OFFCURVE",
"379 485 OFFCURVE",
"379 570 CURVE SMOOTH",
"379 637 OFFCURVE",
"333 678 OFFCURVE",
"258 678 CURVE SMOOTH",
"169 678 OFFCURVE",
"105 619 OFFCURVE",
"105 534 CURVE SMOOTH",
"105 469 OFFCURVE",
"151 426 OFFCURVE",
"226 426 CURVE SMOOTH"
);
},
{
closed = 1;
nodes = (
"185 474 OFFCURVE",
"159 500 OFFCURVE",
"159 541 CURVE SMOOTH",
"159 597 OFFCURVE",
"199 631 OFFCURVE",
"254 631 CURVE SMOOTH",
"298 631 OFFCURVE",
"325 604 OFFCURVE",
"325 564 CURVE SMOOTH",
"325 508 OFFCURVE",
"285 474 OFFCURVE",
"230 474 CURVE SMOOTH"
);
}
);
width = 374;
}
);
unicode = 00B0;
},
{
glyphname = plusminus;
layers = (
{
layerId = "573A4E99-B1EA-4FCA-90B1-EE1ED57C0074";
paths = (
{
closed = 1;
nodes = (
"461 0 LINE",
"472 69 LINE",
"48 69 LINE",
"37 0 LINE"
);
},
{
closed = 1;
nodes = (
"314 159 LINE",
"344 330 LINE",
"519 330 LINE",
"531 398 LINE",
"356 398 LINE",
"387 569 LINE",
"312 569 LINE",
"281 398 LINE",
"107 398 LINE",
"95 330 LINE",
"269 330 LINE",
"239 159 LINE"
);
}
);
width = 582;
}
);
unicode = 00B1;
},
{
glyphname = twosuperior;
layers = (
{
layerId = "573A4E99-B1EA-4FCA-90B1-EE1ED57C0074";
paths = (
{
closed = 1;
nodes = (
"348 408 LINE",
"357 463 LINE",
"177 463 LINE",
"317 578 LINE SMOOTH",
"373 623 OFFCURVE",
"391 661 OFFCURVE",
"391 704 CURVE SMOOTH",
"391 765 OFFCURVE",
"339 808 OFFCURVE",
"271 808 CURVE SMOOTH",
"228 808 OFFCURVE",
"185 796 OFFCURVE",
"142 757 CURVE",
"161 708 LINE",
"202 740 OFFCURVE",
"229 753 OFFCURVE",
"261 753 CURVE SMOOTH",
"297 753 OFFCURVE",
"323 732 OFFCURVE",
"323 695 CURVE SMOOTH",
"323 664 OFFCURVE",
"302 639 OFFCURVE",
"269 611 CURVE SMOOTH",
"91 463 LINE",
"82 408 LINE"
);
}
);
width = 370;
}
);
unicode = 00B2;
},
{
glyphname = threesuperior;
layers = (
{
layerId = "573A4E99-B1EA-4FCA-90B1-EE1ED57C0074";
paths = (
{
closed = 1;
nodes = (
"315 402 OFFCURVE",
"379 450 OFFCURVE",
"379 525 CURVE SMOOTH",
"379 566 OFFCURVE",
"356 595 OFFCURVE",
"313 610 CURVE",
"369 625 OFFCURVE",
"406 660 OFFCURVE",
"406 711 CURVE SMOOTH",
"406 771 OFFCURVE",
"356 808 OFFCURVE",
"280 808 CURVE SMOOTH",
"235 808 OFFCURVE",
"194 794 OFFCURVE",
"149 757 CURVE",
"169 707 LINE",
"212 740 OFFCURVE",
"240 753 OFFCURVE",
"272 753 CURVE SMOOTH",
"316 753 OFFCURVE",
"338 736 OFFCURVE",
"338 702 CURVE SMOOTH",
"338 659 OFFCURVE",
"306 635 OFFCURVE",
"254 635 CURVE SMOOTH",
"209 635 LINE",
"201 587 LINE",
"241 587 LINE SMOOTH",
"289 587 OFFCURVE",
"313 565 OFFCURVE",
"313 528 CURVE SMOOTH",
"313 485 OFFCURVE",
"279 457 OFFCURVE",
"222 457 CURVE SMOOTH",
"185 457 OFFCURVE",
"156 472 OFFCURVE",
"123 503 CURVE",
"91 459 LINE",
"122 423 OFFCURVE",
"163 402 OFFCURVE",
"220 402 CURVE SMOOTH"
);
}
);
width = 383;
}
);
unicode = 00B3;
},
{
glyphname = acute;
layers = (
{
anchors = (
{
name = _top;
position = "{307, 510}";
}
);
layerId = "573A4E99-B1EA-4FCA-90B1-EE1ED57C0074";
paths = (
{
closed = 1;
nodes = (
"343 547 LINE",
"469 696 LINE",
"384 696 LINE",
"283 547 LINE"
);
}
);
width = 600;
}
);
unicode = 00B4;
},
{
glyphname = mu;
layers = (
{
layerId = "573A4E99-B1EA-4FCA-90B1-EE1ED57C0074";
paths = (
{
closed = 1;
nodes = (
"296 -10 OFFCURVE",
"346 14 OFFCURVE",
"382 61 CURVE",
"371 0 LINE",
"449 0 LINE",
"531 470 LINE",
"450 470 LINE",
"406 218 LINE",
"387 114 OFFCURVE",
"332 61 OFFCURVE",
"245 61 CURVE SMOOTH",
"180 61 OFFCURVE",
"147 88 OFFCURVE",
"147 149 CURVE SMOOTH",
"147 161 OFFCURVE",
"148 175 OFFCURVE",
"151 190 CURVE SMOOTH",
"200 470 LINE",
"119 470 LINE",
"4 -182 LINE",
"85 -182 LINE",
"125 46 LINE",
"140 9 OFFCURVE",
"176 -10 OFFCURVE",
"231 -10 CURVE SMOOTH"
);
}
);
width = 570;
}
);
leftKerningGroup = _m1;
unicode = 00B5;
},
{
glyphname = paragraph;
layers = (
{
layerId = "573A4E99-B1EA-4FCA-90B1-EE1ED57C0074";
paths = (
{
closed = 1;
nodes = (
"411 -182 LINE",
"561 668 LINE",
"298 668 LINE SMOOTH",
"177 668 OFFCURVE",
"93 590 OFFCURVE",
"93 471 CURVE SMOOTH",
"93 383 OFFCURVE",
"152 323 OFFCURVE",
"249 320 CURVE",
"160 -182 LINE",
"224 -182 LINE",
"363 607 LINE",
"486 607 LINE",
"347 -182 LINE"
);
}
);
width = 568;
}
);
unicode = 00B6;
},
{
glyphname = periodcentered;
layers = (
{
layerId = "573A4E99-B1EA-4FCA-90B1-EE1ED57C0074";
paths = (
{
closed = 1;
nodes = (
"162 238 OFFCURVE",
"184 259 OFFCURVE",
"184 292 CURVE SMOOTH",
"184 317 OFFCURVE",
"168 334 OFFCURVE",
"139 334 CURVE SMOOTH",
"104 334 OFFCURVE",
"82 313 OFFCURVE",
"82 280 CURVE SMOOTH",
"82 255 OFFCURVE",
"99 238 OFFCURVE",
"127 238 CURVE SMOOTH"
);
}
);
width = 246;
}
);
unicode = 00B7;
},
{
glyphname = cedilla;
layers = (
{
anchors = (
{
name = _bot;
position = "{253, -24}";
}
);
layerId = "573A4E99-B1EA-4FCA-90B1-EE1ED57C0074";
paths = (
{
closed = 1;
nodes = (
"281 -188 OFFCURVE",
"323 -154 OFFCURVE",
"323 -102 CURVE SMOOTH",
"323 -67 OFFCURVE",
"298 -47 OFFCURVE",
"251 -47 CURVE",
"286 11 LINE",
"241 11 LINE",
"206 -47 LINE",
"202 -71 LINE",
"224 -71 LINE SMOOTH",
"253 -71 OFFCURVE",
"267 -81 OFFCURVE",
"267 -100 CURVE SMOOTH",
"267 -127 OFFCURVE",
"247 -142 OFFCURVE",
"212 -142 CURVE SMOOTH",
"193 -142 OFFCURVE",
"166 -140 OFFCURVE",
"150 -136 CURVE",
"142 -178 LINE",
"161 -185 OFFCURVE",
"195 -188 OFFCURVE",
"212 -188 CURVE SMOOTH"
);
}
);
width = 600;
}
);
unicode = 00B8;
},
{
glyphname = onesuperior;
layers = (
{
layerId = "573A4E99-B1EA-4FCA-90B1-EE1ED57C0074";
paths = (
{
closed = 1;
nodes = (
"240 408 LINE",
"309 802 LINE",
"259 802 LINE",
"119 735 LINE",
"136 690 LINE",
"232 736 LINE",
"174 408 LINE"
);
}
);
width = 293;
}
);
unicode = 00B9;
},
{
glyphname = ordmasculine;
layers = (
{
layerId = "573A4E99-B1EA-4FCA-90B1-EE1ED57C0074";
paths = (
{
closed = 1;
nodes = (
"433 232 OFFCURVE",
"530 331 OFFCURVE",
"530 491 CURVE SMOOTH",
"530 594 OFFCURVE",
"459 674 OFFCURVE",
"340 674 CURVE SMOOTH",
"185 674 OFFCURVE",
"86 575 OFFCURVE",
"86 415 CURVE SMOOTH",
"86 312 OFFCURVE",
"158 232 OFFCURVE",
"277 232 CURVE SMOOTH"
);
},
{
closed = 1;
nodes = (
"207 298 OFFCURVE",
"163 346 OFFCURVE",
"163 419 CURVE SMOOTH",
"163 538 OFFCURVE",
"233 608 OFFCURVE",
"333 608 CURVE SMOOTH",
"409 608 OFFCURVE",
"453 560 OFFCURVE",
"453 487 CURVE SMOOTH",
"453 368 OFFCURVE",
"384 298 OFFCURVE",
"284 298 CURVE SMOOTH"
);
}
);
width = 543;
}
);
unicode = 00BA;
},
{
glyphname = guillemotright;
layers = (
{
layerId = "573A4E99-B1EA-4FCA-90B1-EE1ED57C0074";
paths = (
{
closed = 1;
nodes = (
"105 113 LINE",
"236 286 LINE",
"167 461 LINE",
"91 461 LINE",
"160 286 LINE",
"29 113 LINE"
);
},
{
closed = 1;
nodes = (
"301 113 LINE",
"432 286 LINE",
"363 461 LINE",
"287 461 LINE",
"356 286 LINE",
"225 113 LINE"
);
}
);
width = 476;
}
);
unicode = 00BB;
},
{
glyphname = onequarter;
layers = (
{
layerId = "573A4E99-B1EA-4FCA-90B1-EE1ED57C0074";
paths = (
{
closed = 1;
nodes = (
"216 274 LINE",
"285 668 LINE",
"235 668 LINE",
"95 601 LINE",
"114 547 LINE",
"206 592 LINE",
"150 274 LINE"
);
},
{
closed = 1;
nodes = (
"200 0 LINE",
"672 668 LINE",
"605 668 LINE",
"133 0 LINE"
);
},
{
closed = 1;
nodes = (
"669 0 LINE",
"684 88 LINE",
"734 88 LINE",
"744 143 LINE",
"694 143 LINE",
"738 394 LINE",
"682 394 LINE",
"438 147 LINE",
"428 88 LINE",
"622 88 LINE",
"607 0 LINE"
);
},
{
closed = 1;
nodes = (
"632 143 LINE",
"503 143 LINE",
"659 303 LINE"
);
}
);
width = 814;
}
);
unicode = 00BC;
},
{
glyphname = onehalf;
layers = (
{
layerId = "573A4E99-B1EA-4FCA-90B1-EE1ED57C0074";
paths = (
{
closed = 1;
nodes = (
"216 274 LINE",
"285 668 LINE",
"235 668 LINE",
"95 601 LINE",
"112 556 LINE",
"208 602 LINE",
"150 274 LINE"
);
},
{
closed = 1;
nodes = (
"200 0 LINE",
"672 668 LINE",
"605 668 LINE",
"133 0 LINE"
);
},
{
closed = 1;
nodes = (
"747 0 LINE",
"756 55 LINE",
"576 55 LINE",
"716 170 LINE SMOOTH",
"772 215 OFFCURVE",
"790 253 OFFCURVE",
"790 296 CURVE SMOOTH",
"790 357 OFFCURVE",
"738 400 OFFCURVE",
"670 400 CURVE SMOOTH",
"627 400 OFFCURVE",
"584 388 OFFCURVE",
"541 349 CURVE",
"560 300 LINE",
"601 332 OFFCURVE",
"628 345 OFFCURVE",
"660 345 CURVE SMOOTH",
"696 345 OFFCURVE",
"722 324 OFFCURVE",
"722 287 CURVE SMOOTH",
"722 256 OFFCURVE",
"701 231 OFFCURVE",
"668 203 CURVE SMOOTH",
"490 55 LINE",
"481 0 LINE"
);
}
);
width = 841;
}
);
unicode = 00BD;
},
{
glyphname = threequarters;
layers = (
{
layerId = "573A4E99-B1EA-4FCA-90B1-EE1ED57C0074";
paths = (
{
closed = 1;
nodes = (
"291 268 OFFCURVE",
"355 316 OFFCURVE",
"355 391 CURVE SMOOTH",
"355 432 OFFCURVE",
"332 461 OFFCURVE",
"289 476 CURVE",
"345 491 OFFCURVE",
"382 526 OFFCURVE",
"382 577 CURVE SMOOTH",
"382 637 OFFCURVE",
"332 674 OFFCURVE",
"256 674 CURVE SMOOTH",
"211 674 OFFCURVE",
"170 660 OFFCURVE",
"125 623 CURVE",
"145 573 LINE",
"188 606 OFFCURVE",
"216 619 OFFCURVE",
"248 619 CURVE SMOOTH",
"292 619 OFFCURVE",
"314 602 OFFCURVE",
"314 568 CURVE SMOOTH",
"314 525 OFFCURVE",
"282 501 OFFCURVE",
"230 501 CURVE SMOOTH",
"185 501 LINE",
"177 453 LINE",
"217 453 LINE SMOOTH",
"265 453 OFFCURVE",
"289 431 OFFCURVE",
"289 394 CURVE SMOOTH",
"289 351 OFFCURVE",
"255 323 OFFCURVE",
"198 323 CURVE SMOOTH",
"161 323 OFFCURVE",
"132 338 OFFCURVE",
"99 369 CURVE",
"67 325 LINE",
"98 289 OFFCURVE",
"139 268 OFFCURVE",
"196 268 CURVE SMOOTH"
);
},
{
closed = 1;
nodes = (
"276 0 LINE",
"748 668 LINE",
"682 668 LINE",
"210 0 LINE"
);
},
{
closed = 1;
nodes = (
"745 0 LINE",
"760 88 LINE",
"810 88 LINE",
"820 143 LINE",
"770 143 LINE",
"814 394 LINE",
"758 394 LINE",
"514 147 LINE",
"504 88 LINE",
"698 88 LINE",
"683 0 LINE"
);
},
{
closed = 1;
nodes = (
"708 143 LINE",
"579 143 LINE",
"735 303 LINE"
);
}
);
width = 890;
}
);
unicode = 00BE;
},
{
glyphname = questiondown;
layers = (
{
layerId = "573A4E99-B1EA-4FCA-90B1-EE1ED57C0074";
paths = (
{
closed = 1;
nodes = (
"258 -192 OFFCURVE",
"324 -169 OFFCURVE",
"387 -105 CURVE",
"364 -43 LINE",
"295 -99 OFFCURVE",
"249 -121 OFFCURVE",
"198 -121 CURVE SMOOTH",
"126 -121 OFFCURVE",
"80 -77 OFFCURVE",
"80 -17 CURVE SMOOTH",
"80 80 OFFCURVE",
"256 120 OFFCURVE",
"280 260 CURVE SMOOTH",
"285 290 LINE",
"217 290 LINE",
"213 267 LINE SMOOTH",
"189 141 OFFCURVE",
"-8 113 OFFCURVE",
"-8 -31 CURVE SMOOTH",
"-8 -126 OFFCURVE",
"77 -192 OFFCURVE",
"185 -192 CURVE SMOOTH"
);
},
{
closed = 1;
nodes = (
"307 395 OFFCURVE",
"329 417 OFFCURVE",
"329 450 CURVE SMOOTH",
"329 474 OFFCURVE",
"313 492 OFFCURVE",
"284 492 CURVE SMOOTH",
"249 492 OFFCURVE",
"227 470 OFFCURVE",
"227 437 CURVE SMOOTH",
"227 413 OFFCURVE",
"244 395 OFFCURVE",
"272 395 CURVE SMOOTH"
);
}
);
width = 473;
}
);
unicode = 00BF;
},
{
glyphname = Agrave;
layers = (
{
layerId = "573A4E99-B1EA-4FCA-90B1-EE1ED57C0074";
paths = (
{
closed = 1;
nodes = (
"628 0 LINE",
"470 668 LINE",
"377 668 LINE",
"-14 0 LINE",
"84 0 LINE",
"167 146 LINE",
"508 146 LINE",
"541 0 LINE"
);
},
{
closed = 1;
nodes = (
"492 218 LINE",
"208 218 LINE",
"413 575 LINE"
);
},
{
closed = 1;
nodes = (
"464 739 LINE",
"417 888 LINE",
"337 888 LINE",
"410 739 LINE"
);
}
);
width = 699;
}
);
leftKerningGroup = _A1;
rightKerningGroup = _A;
unicode = 00C0;
},
{
glyphname = Aacute;
layers = (
{
layerId = "573A4E99-B1EA-4FCA-90B1-EE1ED57C0074";
paths = (
{
closed = 1;
nodes = (
"628 0 LINE",
"470 668 LINE",
"377 668 LINE",
"-14 0 LINE",
"84 0 LINE",
"167 146 LINE",
"508 146 LINE",
"541 0 LINE"
);
},
{
closed = 1;
nodes = (
"492 218 LINE",
"208 218 LINE",
"413 575 LINE"
);
},
{
closed = 1;
nodes = (
"467 739 LINE",
"594 888 LINE",
"508 888 LINE",
"408 739 LINE"
);
}
);
width = 699;
}
);
leftKerningGroup = _A1;
rightKerningGroup = _A;
unicode = 00C1;
},
{
glyphname = Acircumflex;
layers = (
{
layerId = "573A4E99-B1EA-4FCA-90B1-EE1ED57C0074";
paths = (
{
closed = 1;
nodes = (
"628 0 LINE",
"470 668 LINE",
"377 668 LINE",
"-14 0 LINE",
"84 0 LINE",
"167 146 LINE",
"508 146 LINE",
"541 0 LINE"
);
},
{
closed = 1;
nodes = (
"492 218 LINE",
"208 218 LINE",
"413 575 LINE"
);
},
{
closed = 1;
nodes = (
"578 739 LINE",
"503 888 LINE",
"425 888 LINE",
"296 739 LINE",
"367 739 LINE",
"461 843 LINE",
"518 739 LINE"
);
}
);
width = 699;
}
);
leftKerningGroup = _A1;
rightKerningGroup = _A;
unicode = 00C2;
},
{
glyphname = Atilde;
layers = (
{
layerId = "573A4E99-B1EA-4FCA-90B1-EE1ED57C0074";
paths = (
{
closed = 1;
nodes = (
"628 0 LINE",
"470 668 LINE",
"377 668 LINE",
"-14 0 LINE",
"84 0 LINE",
"167 146 LINE",
"508 146 LINE",
"541 0 LINE"
);
},
{
closed = 1;
nodes = (
"492 218 LINE",
"208 218 LINE",
"413 575 LINE"
);
},
{
closed = 1;
nodes = (
"568 752 OFFCURVE",
"601 787 OFFCURVE",
"612 875 CURVE",
"561 875 LINE",
"548 823 OFFCURVE",
"535 807 OFFCURVE",
"512 807 CURVE SMOOTH",
"475 807 OFFCURVE",
"449 875 OFFCURVE",
"385 875 CURVE SMOOTH",
"332 875 OFFCURVE",
"299 840 OFFCURVE",
"288 752 CURVE",
"339 752 LINE",
"352 804 OFFCURVE",
"365 820 OFFCURVE",
"388 820 CURVE SMOOTH",
"424 820 OFFCURVE",
"452 752 OFFCURVE",
"515 752 CURVE SMOOTH"
);
}
);
width = 699;
}
);
leftKerningGroup = _A1;
rightKerningGroup = _A;
unicode = 00C3;
},
{
glyphname = Adieresis;
layers = (
{
layerId = "573A4E99-B1EA-4FCA-90B1-EE1ED57C0074";
paths = (
{
closed = 1;
nodes = (
"628 0 LINE",
"470 668 LINE",
"377 668 LINE",
"-14 0 LINE",
"84 0 LINE",
"167 146 LINE",
"508 146 LINE",
"541 0 LINE"
);
},
{
closed = 1;
nodes = (
"492 218 LINE",
"208 218 LINE",
"413 575 LINE"
);
},
{
closed = 1;
nodes = (
"384 770 OFFCURVE",
"403 790 OFFCURVE",
"403 818 CURVE SMOOTH",
"403 839 OFFCURVE",
"389 857 OFFCURVE",
"362 857 CURVE SMOOTH",
"331 857 OFFCURVE",
"311 838 OFFCURVE",
"311 809 CURVE SMOOTH",
"311 786 OFFCURVE",
"325 770 OFFCURVE",
"352 770 CURVE SMOOTH"
);
},
{
closed = 1;
nodes = (
"572 770 OFFCURVE",
"591 790 OFFCURVE",
"591 818 CURVE SMOOTH",
"591 839 OFFCURVE",
"577 857 OFFCURVE",
"550 857 CURVE SMOOTH",
"519 857 OFFCURVE",
"499 838 OFFCURVE",
"499 809 CURVE SMOOTH",
"499 786 OFFCURVE",
"513 770 OFFCURVE",
"540 770 CURVE SMOOTH"
);
}
);
width = 699;
}
);
leftKerningGroup = _A1;
rightKerningGroup = _A;
unicode = 00C4;
},
{
glyphname = Aring;
layers = (
{
layerId = "573A4E99-B1EA-4FCA-90B1-EE1ED57C0074";
paths = (
{
closed = 1;
nodes = (
"628 0 LINE",
"470 668 LINE",
"377 668 LINE",
"-14 0 LINE",
"84 0 LINE",
"167 146 LINE",
"508 146 LINE",
"541 0 LINE"
);
},
{
closed = 1;
nodes = (
"492 218 LINE",
"208 218 LINE",
"413 575 LINE"
);
},
{
closed = 1;
nodes = (
"515 709 OFFCURVE",
"565 760 OFFCURVE",
"565 828 CURVE SMOOTH",
"565 879 OFFCURVE",
"527 918 OFFCURVE",
"463 918 CURVE SMOOTH",
"384 918 OFFCURVE",
"336 867 OFFCURVE",
"336 799 CURVE SMOOTH",
"336 748 OFFCURVE",
"374 709 OFFCURVE",
"438 709 CURVE SMOOTH"
);
},
{
closed = 1;
nodes = (
"403 749 OFFCURVE",
"383 775 OFFCURVE",
"383 806 CURVE SMOOTH",
"383 847 OFFCURVE",
"414 878 OFFCURVE",
"459 878 CURVE SMOOTH",
"498 878 OFFCURVE",
"518 852 OFFCURVE",
"518 821 CURVE SMOOTH",
"518 780 OFFCURVE",
"487 749 OFFCURVE",
"442 749 CURVE SMOOTH"
);
}
);
width = 699;
}
);
leftKerningGroup = _A1;
rightKerningGroup = _A;
unicode = 00C5;
},
{
glyphname = AE;
layers = (
{
layerId = "573A4E99-B1EA-4FCA-90B1-EE1ED57C0074";
paths = (
{
closed = 1;
nodes = (
"894 0 LINE",
"907 74 LINE",
"538 74 LINE",
"579 308 LINE",
"919 308 LINE",
"932 380 LINE",
"592 380 LINE",
"629 594 LINE",
"999 594 LINE",
"1011 668 LINE",
"530 668 LINE",
"-14 0 LINE",
"90 0 LINE",
"207 146 LINE",
"465 146 LINE",
"439 0 LINE"
);
},
{
closed = 1;
nodes = (
"477 218 LINE",
"264 218 LINE",
"537 558 LINE"
);
}
);
width = 992;
}
);
leftKerningGroup = _A1;
unicode = 00C6;
},
{
glyphname = Ccedilla;
layers = (
{
layerId = "573A4E99-B1EA-4FCA-90B1-EE1ED57C0074";
paths = (
{
closed = 1;
nodes = (
"348 -188 OFFCURVE",
"390 -154 OFFCURVE",
"390 -102 CURVE SMOOTH",
"390 -67 OFFCURVE",
"364 -47 OFFCURVE",
"317 -47 CURVE",
"340 -9 LINE",
"345 -9 OFFCURVE",
"349 -10 OFFCURVE",
"356 -10 CURVE SMOOTH",
"444 -10 OFFCURVE",
"521 12 OFFCURVE",
"588 61 CURVE",
"565 130 LINE",
"501 86 OFFCURVE",
"440 66 OFFCURVE",
"364 66 CURVE SMOOTH",
"239 66 OFFCURVE",
"152 146 OFFCURVE",
"152 279 CURVE SMOOTH",
"152 480 OFFCURVE",
"276 602 OFFCURVE",
"448 602 CURVE SMOOTH",
"524 602 OFFCURVE",
"585 577 OFFCURVE",
"636 538 CURVE",
"680 597 LINE",
"619 649 OFFCURVE",
"540 678 OFFCURVE",
"456 678 CURVE SMOOTH",
"226 678 OFFCURVE",
"65 523 OFFCURVE",
"65 277 CURVE SMOOTH",
"65 124 OFFCURVE",
"159 19 OFFCURVE",
"298 -5 CURVE",
"272 -47 LINE",
"268 -71 LINE",
"291 -71 LINE SMOOTH",
"319 -71 OFFCURVE",
"333 -81 OFFCURVE",
"333 -100 CURVE SMOOTH",
"333 -127 OFFCURVE",
"313 -142 OFFCURVE",
"278 -142 CURVE SMOOTH",
"261 -142 OFFCURVE",
"233 -140 OFFCURVE",
"216 -136 CURVE",
"209 -178 LINE",
"228 -185 OFFCURVE",
"260 -188 OFFCURVE",
"279 -188 CURVE SMOOTH"
);
}
);
width = 665;
}
);
leftKerningGroup = _C1;
rightKerningGroup = _C;
unicode = 00C7;
},
{
glyphname = Egrave;
layers = (
{
layerId = "573A4E99-B1EA-4FCA-90B1-EE1ED57C0074";
paths = (
{
closed = 1;
nodes = (
"496 0 LINE",
"509 74 LINE",
"139 74 LINE",
"180 308 LINE",
"520 308 LINE",
"533 380 LINE",
"193 380 LINE",
"230 594 LINE",
"600 594 LINE",
"613 668 LINE",
"157 668 LINE",
"40 0 LINE"
);
},
{
closed = 1;
nodes = (
"425 739 LINE",
"377 888 LINE",
"297 888 LINE",
"371 739 LINE"
);
}
);
width = 593;
}
);
unicode = 00C8;
},
{
glyphname = Eacute;
layers = (
{
layerId = "573A4E99-B1EA-4FCA-90B1-EE1ED57C0074";
paths = (
{
closed = 1;
nodes = (
"496 0 LINE",
"509 74 LINE",
"139 74 LINE",
"180 308 LINE",
"520 308 LINE",
"533 380 LINE",
"193 380 LINE",
"230 594 LINE",
"600 594 LINE",
"613 668 LINE",
"157 668 LINE",
"40 0 LINE"
);
},
{
closed = 1;
nodes = (
"428 739 LINE",
"554 888 LINE",
"469 888 LINE",
"368 739 LINE"
);
}
);
width = 593;
}
);
unicode = 00C9;
},
{
glyphname = Ecircumflex;
layers = (
{
layerId = "573A4E99-B1EA-4FCA-90B1-EE1ED57C0074";
paths = (
{
closed = 1;
nodes = (
"496 0 LINE",
"509 74 LINE",
"139 74 LINE",
"180 308 LINE",
"520 308 LINE",
"533 380 LINE",
"193 380 LINE",
"230 594 LINE",
"600 594 LINE",
"613 668 LINE",
"157 668 LINE",
"40 0 LINE"
);
},
{
closed = 1;
nodes = (
"539 739 LINE",
"463 888 LINE",
"385 888 LINE",
"257 739 LINE",
"327 739 LINE",
"421 843 LINE",
"479 739 LINE"
);
}
);
width = 593;
}
);
unicode = 00CA;
},
{
glyphname = Edieresis;
layers = (
{
layerId = "573A4E99-B1EA-4FCA-90B1-EE1ED57C0074";
paths = (
{
closed = 1;
nodes = (
"496 0 LINE",
"509 74 LINE",
"139 74 LINE",
"180 308 LINE",
"520 308 LINE",
"533 380 LINE",
"193 380 LINE",
"230 594 LINE",
"600 594 LINE",
"613 668 LINE",
"157 668 LINE",
"40 0 LINE"
);
},
{
closed = 1;
nodes = (
"344 770 OFFCURVE",
"363 790 OFFCURVE",
"363 818 CURVE SMOOTH",
"363 839 OFFCURVE",
"349 857 OFFCURVE",
"322 857 CURVE SMOOTH",
"291 857 OFFCURVE",
"271 838 OFFCURVE",
"271 809 CURVE SMOOTH",
"271 786 OFFCURVE",
"285 770 OFFCURVE",
"312 770 CURVE SMOOTH"
);
},
{
closed = 1;
nodes = (
"532 770 OFFCURVE",
"551 790 OFFCURVE",
"551 818 CURVE SMOOTH",
"551 839 OFFCURVE",
"537 857 OFFCURVE",
"510 857 CURVE SMOOTH",
"479 857 OFFCURVE",
"459 838 OFFCURVE",
"459 809 CURVE SMOOTH",
"459 786 OFFCURVE",
"473 770 OFFCURVE",
"500 770 CURVE SMOOTH"
);
}
);
width = 593;
}
);
unicode = 00CB;
},
{
glyphname = Igrave;
layers = (
{
layerId = "573A4E99-B1EA-4FCA-90B1-EE1ED57C0074";
paths = (
{
closed = 1;
nodes = (
"126 0 LINE",
"243 668 LINE",
"157 668 LINE",
"40 0 LINE"
);
},
{
closed = 1;
nodes = (
"240 739 LINE",
"193 888 LINE",
"112 888 LINE",
"186 739 LINE"
);
}
);
width = 251;
}
);
unicode = 00CC;
},
{
glyphname = Iacute;
layers = (
{
layerId = "573A4E99-B1EA-4FCA-90B1-EE1ED57C0074";
paths = (
{
closed = 1;
nodes = (
"126 0 LINE",
"243 668 LINE",
"157 668 LINE",
"40 0 LINE"
);
},
{
closed = 1;
nodes = (
"243 739 LINE",
"369 888 LINE",
"284 888 LINE",
"184 739 LINE"
);
}
);
width = 251;
}
);
unicode = 00CD;
},
{
glyphname = Icircumflex;
layers = (
{
layerId = "573A4E99-B1EA-4FCA-90B1-EE1ED57C0074";
paths = (
{
closed = 1;
nodes = (
"126 0 LINE",
"243 668 LINE",
"157 668 LINE",
"40 0 LINE"
);
},
{
closed = 1;
nodes = (
"354 739 LINE",
"279 888 LINE",
"201 888 LINE",
"72 739 LINE",
"143 739 LINE",
"237 843 LINE",
"294 739 LINE"
);
}
);
width = 251;
}
);
unicode = 00CE;
},
{
glyphname = Idieresis;
layers = (
{
layerId = "573A4E99-B1EA-4FCA-90B1-EE1ED57C0074";
paths = (
{
closed = 1;
nodes = (
"126 0 LINE",
"243 668 LINE",
"157 668 LINE",
"40 0 LINE"
);
},
{
closed = 1;
nodes = (
"160 770 OFFCURVE",
"179 790 OFFCURVE",
"179 818 CURVE SMOOTH",
"179 839 OFFCURVE",
"165 857 OFFCURVE",
"138 857 CURVE SMOOTH",
"107 857 OFFCURVE",
"87 838 OFFCURVE",
"87 809 CURVE SMOOTH",
"87 786 OFFCURVE",
"101 770 OFFCURVE",
"128 770 CURVE SMOOTH"
);
},
{
closed = 1;
nodes = (
"348 770 OFFCURVE",
"367 790 OFFCURVE",
"367 818 CURVE SMOOTH",
"367 839 OFFCURVE",
"353 857 OFFCURVE",
"326 857 CURVE SMOOTH",
"295 857 OFFCURVE",
"275 838 OFFCURVE",
"275 809 CURVE SMOOTH",
"275 786 OFFCURVE",
"289 770 OFFCURVE",
"316 770 CURVE SMOOTH"
);
}
);
width = 251;
}
);
unicode = 00CF;
},
{
glyphname = Eth;
layers = (
{
layerId = "573A4E99-B1EA-4FCA-90B1-EE1ED57C0074";
paths = (
{
closed = 1;
nodes = (
"677 574 OFFCURVE",
"573 668 OFFCURVE",
"374 668 CURVE SMOOTH",
"157 668 LINE",
"105 373 LINE",
"32 373 LINE",
"22 315 LINE",
"95 315 LINE",
"40 0 LINE",
"278 0 LINE SMOOTH",
"538 0 OFFCURVE",
"677 138 OFFCURVE",
"677 391 CURVE SMOOTH"
);
},
{
closed = 1;
nodes = (
"590 179 OFFCURVE",
"486 74 OFFCURVE",
"279 74 CURVE SMOOTH",
"139 74 LINE",
"181 315 LINE",
"365 315 LINE",
"375 373 LINE",
"191 373 LINE",
"230 594 LINE",
"360 594 LINE SMOOTH",
"516 594 OFFCURVE",
"590 538 OFFCURVE",
"590 389 CURVE SMOOTH"
);
}
);
width = 710;
}
);
rightKerningGroup = _D;
unicode = 00D0;
},
{
glyphname = Ntilde;
layers = (
{
layerId = "573A4E99-B1EA-4FCA-90B1-EE1ED57C0074";
paths = (
{
closed = 1;
nodes = (
"596 0 LINE",
"713 668 LINE",
"627 668 LINE",
"530 114 LINE",
"252 668 LINE",
"157 668 LINE",
"40 0 LINE",
"126 0 LINE",
"223 554 LINE",
"501 0 LINE"
);
},
{
closed = 1;
nodes = (
"579 752 OFFCURVE",
"612 787 OFFCURVE",
"623 875 CURVE",
"572 875 LINE",
"559 823 OFFCURVE",
"546 807 OFFCURVE",
"523 807 CURVE SMOOTH",
"486 807 OFFCURVE",
"460 875 OFFCURVE",
"396 875 CURVE SMOOTH",
"343 875 OFFCURVE",
"310 840 OFFCURVE",
"299 752 CURVE",
"350 752 LINE",
"363 804 OFFCURVE",
"376 820 OFFCURVE",
"399 820 CURVE SMOOTH",
"435 820 OFFCURVE",
"463 752 OFFCURVE",
"526 752 CURVE SMOOTH"
);
}
);
width = 720;
}
);
unicode = 00D1;
},
{
glyphname = Ograve;
layers = (
{
layerId = "573A4E99-B1EA-4FCA-90B1-EE1ED57C0074";
paths = (
{
closed = 1;
nodes = (
"585 -10 OFFCURVE",
"747 145 OFFCURVE",
"747 391 CURVE SMOOTH",
"747 563 OFFCURVE",
"625 678 OFFCURVE",
"456 678 CURVE SMOOTH",
"226 678 OFFCURVE",
"65 523 OFFCURVE",
"65 277 CURVE SMOOTH",
"65 105 OFFCURVE",
"187 -10 OFFCURVE",
"356 -10 CURVE SMOOTH"
);
},
{
closed = 1;
nodes = (
"239 66 OFFCURVE",
"152 146 OFFCURVE",
"152 279 CURVE SMOOTH",
"152 480 OFFCURVE",
"276 602 OFFCURVE",
"448 602 CURVE SMOOTH",
"573 602 OFFCURVE",
"660 522 OFFCURVE",
"660 389 CURVE SMOOTH",
"660 188 OFFCURVE",
"536 66 OFFCURVE",
"364 66 CURVE SMOOTH"
);
},
{
closed = 1;
nodes = (
"505 739 LINE",
"457 888 LINE",
"377 888 LINE",
"451 739 LINE"
);
}
);
width = 780;
}
);
leftKerningGroup = _C1;
rightKerningGroup = _D;
unicode = 00D2;
},
{
glyphname = Oacute;
layers = (
{
layerId = "573A4E99-B1EA-4FCA-90B1-EE1ED57C0074";
paths = (
{
closed = 1;
nodes = (
"585 -10 OFFCURVE",
"747 145 OFFCURVE",
"747 391 CURVE SMOOTH",
"747 563 OFFCURVE",
"625 678 OFFCURVE",
"456 678 CURVE SMOOTH",
"226 678 OFFCURVE",
"65 523 OFFCURVE",
"65 277 CURVE SMOOTH",
"65 105 OFFCURVE",
"187 -10 OFFCURVE",
"356 -10 CURVE SMOOTH"
);
},
{
closed = 1;
nodes = (
"239 66 OFFCURVE",
"152 146 OFFCURVE",
"152 279 CURVE SMOOTH",
"152 480 OFFCURVE",
"276 602 OFFCURVE",
"448 602 CURVE SMOOTH",
"573 602 OFFCURVE",
"660 522 OFFCURVE",
"660 389 CURVE SMOOTH",
"660 188 OFFCURVE",
"536 66 OFFCURVE",
"364 66 CURVE SMOOTH"
);
},
{
closed = 1;
nodes = (
"508 739 LINE",
"634 888 LINE",
"549 888 LINE",
"448 739 LINE"
);
}
);
width = 780;
}
);
leftKerningGroup = _C1;
rightKerningGroup = _D;
unicode = 00D3;
},
{
glyphname = Ocircumflex;
layers = (
{
layerId = "573A4E99-B1EA-4FCA-90B1-EE1ED57C0074";
paths = (
{
closed = 1;
nodes = (
"585 -10 OFFCURVE",
"747 145 OFFCURVE",
"747 391 CURVE SMOOTH",
"747 563 OFFCURVE",
"625 678 OFFCURVE",
"456 678 CURVE SMOOTH",
"226 678 OFFCURVE",
"65 523 OFFCURVE",
"65 277 CURVE SMOOTH",
"65 105 OFFCURVE",
"187 -10 OFFCURVE",
"356 -10 CURVE SMOOTH"
);
},
{
closed = 1;
nodes = (
"239 66 OFFCURVE",
"152 146 OFFCURVE",
"152 279 CURVE SMOOTH",
"152 480 OFFCURVE",
"276 602 OFFCURVE",
"448 602 CURVE SMOOTH",
"573 602 OFFCURVE",
"660 522 OFFCURVE",
"660 389 CURVE SMOOTH",
"660 188 OFFCURVE",
"536 66 OFFCURVE",
"364 66 CURVE SMOOTH"
);
},
{
closed = 1;
nodes = (
"619 739 LINE",
"543 888 LINE",
"465 888 LINE",
"337 739 LINE",
"407 739 LINE",
"501 843 LINE",
"559 739 LINE"
);
}
);
width = 780;
}
);
leftKerningGroup = _C1;
rightKerningGroup = _D;
unicode = 00D4;
},
{
glyphname = Otilde;
layers = (
{
layerId = "573A4E99-B1EA-4FCA-90B1-EE1ED57C0074";
paths = (
{
closed = 1;
nodes = (
"585 -10 OFFCURVE",
"747 145 OFFCURVE",
"747 391 CURVE SMOOTH",
"747 563 OFFCURVE",
"625 678 OFFCURVE",
"456 678 CURVE SMOOTH",
"226 678 OFFCURVE",
"65 523 OFFCURVE",
"65 277 CURVE SMOOTH",
"65 105 OFFCURVE",
"187 -10 OFFCURVE",
"356 -10 CURVE SMOOTH"
);
},
{
closed = 1;
nodes = (
"239 66 OFFCURVE",
"152 146 OFFCURVE",
"152 279 CURVE SMOOTH",
"152 480 OFFCURVE",
"276 602 OFFCURVE",
"448 602 CURVE SMOOTH",
"573 602 OFFCURVE",
"660 522 OFFCURVE",
"660 389 CURVE SMOOTH",
"660 188 OFFCURVE",
"536 66 OFFCURVE",
"364 66 CURVE SMOOTH"
);
},
{
closed = 1;
nodes = (
"609 752 OFFCURVE",
"642 787 OFFCURVE",
"653 875 CURVE",
"602 875 LINE",
"589 823 OFFCURVE",
"576 807 OFFCURVE",
"553 807 CURVE SMOOTH",
"516 807 OFFCURVE",
"490 875 OFFCURVE",
"426 875 CURVE SMOOTH",
"373 875 OFFCURVE",
"340 840 OFFCURVE",
"329 752 CURVE",
"380 752 LINE",
"393 804 OFFCURVE",
"406 820 OFFCURVE",
"429 820 CURVE SMOOTH",
"465 820 OFFCURVE",
"493 752 OFFCURVE",
"556 752 CURVE SMOOTH"
);
}
);
width = 780;
}
);
leftKerningGroup = _C1;
rightKerningGroup = _D;
unicode = 00D5;
},
{
glyphname = Odieresis;
layers = (
{
layerId = "573A4E99-B1EA-4FCA-90B1-EE1ED57C0074";
paths = (
{
closed = 1;
nodes = (
"585 -10 OFFCURVE",
"747 145 OFFCURVE",
"747 391 CURVE SMOOTH",
"747 563 OFFCURVE",
"625 678 OFFCURVE",
"456 678 CURVE SMOOTH",
"226 678 OFFCURVE",
"65 523 OFFCURVE",
"65 277 CURVE SMOOTH",
"65 105 OFFCURVE",
"187 -10 OFFCURVE",
"356 -10 CURVE SMOOTH"
);
},
{
closed = 1;
nodes = (
"239 66 OFFCURVE",
"152 146 OFFCURVE",
"152 279 CURVE SMOOTH",
"152 480 OFFCURVE",
"276 602 OFFCURVE",
"448 602 CURVE SMOOTH",
"573 602 OFFCURVE",
"660 522 OFFCURVE",
"660 389 CURVE SMOOTH",
"660 188 OFFCURVE",
"536 66 OFFCURVE",
"364 66 CURVE SMOOTH"
);
},
{
closed = 1;
nodes = (
"424 770 OFFCURVE",
"443 790 OFFCURVE",
"443 818 CURVE SMOOTH",
"443 839 OFFCURVE",
"429 857 OFFCURVE",
"402 857 CURVE SMOOTH",
"371 857 OFFCURVE",
"351 838 OFFCURVE",
"351 809 CURVE SMOOTH",
"351 786 OFFCURVE",
"365 770 OFFCURVE",
"392 770 CURVE SMOOTH"
);
},
{
closed = 1;
nodes = (
"612 770 OFFCURVE",
"631 790 OFFCURVE",
"631 818 CURVE SMOOTH",
"631 839 OFFCURVE",
"617 857 OFFCURVE",
"590 857 CURVE SMOOTH",
"559 857 OFFCURVE",
"539 838 OFFCURVE",
"539 809 CURVE SMOOTH",
"539 786 OFFCURVE",
"553 770 OFFCURVE",
"580 770 CURVE SMOOTH"
);
}
);
width = 780;
}
);
leftKerningGroup = _C1;
rightKerningGroup = _D;
unicode = 00D6;
},
{
glyphname = multiply;
layers = (
{
layerId = "573A4E99-B1EA-4FCA-90B1-EE1ED57C0074";
paths = (
{
closed = 1;
nodes = (
"111 122 LINE",
"298 281 LINE",
"429 122 LINE",
"491 175 LINE",
"360 334 LINE",
"548 493 LINE",
"504 546 LINE",
"316 387 LINE",
"186 546 LINE",
"124 493 LINE",
"254 334 LINE",
"67 175 LINE"
);
}
);
width = 582;
}
);
unicode = 00D7;
},
{
glyphname = Oslash;
layers = (
{
layerId = "573A4E99-B1EA-4FCA-90B1-EE1ED57C0074";
paths = (
{
closed = 1;
nodes = (
"44 -10 LINE",
"141 74 LINE",
"193 21 OFFCURVE",
"268 -10 OFFCURVE",
"356 -10 CURVE SMOOTH",
"585 -10 OFFCURVE",
"747 145 OFFCURVE",
"747 391 CURVE SMOOTH",
"747 455 OFFCURVE",
"731 511 OFFCURVE",
"700 556 CURVE",
"798 640 LINE",
"769 678 LINE",
"670 593 LINE",
"618 648 OFFCURVE",
"544 678 OFFCURVE",
"456 678 CURVE SMOOTH",
"226 678 OFFCURVE",
"65 523 OFFCURVE",
"65 277 CURVE SMOOTH",
"65 213 OFFCURVE",
"81 158 OFFCURVE",
"112 111 CURVE",
"15 28 LINE"
);
},
{
closed = 1;
nodes = (
"152 480 OFFCURVE",
"276 602 OFFCURVE",
"448 602 CURVE SMOOTH",
"515 602 OFFCURVE",
"570 579 OFFCURVE",
"607 539 CURVE",
"177 167 LINE",
"160 198 OFFCURVE",
"152 235 OFFCURVE",
"152 279 CURVE SMOOTH"
);
},
{
closed = 1;
nodes = (
"296 66 OFFCURVE",
"243 87 OFFCURVE",
"204 129 CURVE",
"635 499 LINE",
"652 467 OFFCURVE",
"660 430 OFFCURVE",
"660 389 CURVE SMOOTH",
"660 188 OFFCURVE",
"536 66 OFFCURVE",
"364 66 CURVE SMOOTH"
);
}
);
width = 780;
}
);
leftKerningGroup = _C1;
rightKerningGroup = _D;
unicode = 00D8;
},
{
glyphname = Ugrave;
layers = (
{
layerId = "573A4E99-B1EA-4FCA-90B1-EE1ED57C0074";
paths = (
{
closed = 1;
nodes = (
"496 -10 OFFCURVE",
"606 61 OFFCURVE",
"641 258 CURVE SMOOTH",
"713 668 LINE",
"627 668 LINE",
"556 261 LINE",
"532 117 OFFCURVE",
"448 66 OFFCURVE",
"333 66 CURVE SMOOTH",
"214 66 OFFCURVE",
"169 134 OFFCURVE",
"169 221 CURVE SMOOTH",
"169 238 OFFCURVE",
"171 256 OFFCURVE",
"174 275 CURVE SMOOTH",
"243 668 LINE",
"157 668 LINE",
"89 278 LINE SMOOTH",
"85 256 OFFCURVE",
"83 235 OFFCURVE",
"83 215 CURVE SMOOTH",
"83 74 OFFCURVE",
"175 -10 OFFCURVE",
"326 -10 CURVE SMOOTH"
);
},
{
closed = 1;
nodes = (
"475 739 LINE",
"427 888 LINE",
"347 888 LINE",
"421 739 LINE"
);
}
);
width = 720;
}
);
leftKerningGroup = _U;
rightKerningGroup = _U;
unicode = 00D9;
},
{
glyphname = Uacute;
layers = (
{
layerId = "573A4E99-B1EA-4FCA-90B1-EE1ED57C0074";
paths = (
{
closed = 1;
nodes = (
"496 -10 OFFCURVE",
"606 61 OFFCURVE",
"641 258 CURVE SMOOTH",
"713 668 LINE",
"627 668 LINE",
"556 261 LINE",
"532 117 OFFCURVE",
"448 66 OFFCURVE",
"333 66 CURVE SMOOTH",
"214 66 OFFCURVE",
"169 134 OFFCURVE",
"169 221 CURVE SMOOTH",
"169 238 OFFCURVE",
"171 256 OFFCURVE",
"174 275 CURVE SMOOTH",
"243 668 LINE",
"157 668 LINE",
"89 278 LINE SMOOTH",
"85 256 OFFCURVE",
"83 235 OFFCURVE",
"83 215 CURVE SMOOTH",
"83 74 OFFCURVE",
"175 -10 OFFCURVE",
"326 -10 CURVE SMOOTH"
);
},
{
closed = 1;
nodes = (
"478 739 LINE",
"604 888 LINE",
"519 888 LINE",
"418 739 LINE"
);
}
);
width = 720;
}
);
leftKerningGroup = _U;
rightKerningGroup = _U;
unicode = 00DA;
},
{
glyphname = Ucircumflex;
layers = (
{
layerId = "573A4E99-B1EA-4FCA-90B1-EE1ED57C0074";
paths = (
{
closed = 1;
nodes = (
"496 -10 OFFCURVE",
"606 61 OFFCURVE",
"641 258 CURVE SMOOTH",
"713 668 LINE",
"627 668 LINE",
"556 261 LINE",
"532 117 OFFCURVE",
"448 66 OFFCURVE",
"333 66 CURVE SMOOTH",
"214 66 OFFCURVE",
"169 134 OFFCURVE",
"169 221 CURVE SMOOTH",
"169 238 OFFCURVE",
"171 256 OFFCURVE",
"174 275 CURVE SMOOTH",
"243 668 LINE",
"157 668 LINE",
"89 278 LINE SMOOTH",
"85 256 OFFCURVE",
"83 235 OFFCURVE",
"83 215 CURVE SMOOTH",
"83 74 OFFCURVE",
"175 -10 OFFCURVE",
"326 -10 CURVE SMOOTH"
);
},
{
closed = 1;
nodes = (
"589 739 LINE",
"513 888 LINE",
"435 888 LINE",
"307 739 LINE",
"377 739 LINE",
"471 843 LINE",
"529 739 LINE"
);
}
);
width = 720;
}
);
leftKerningGroup = _U;
rightKerningGroup = _U;
unicode = 00DB;
},
{
glyphname = Udieresis;
layers = (
{
layerId = "573A4E99-B1EA-4FCA-90B1-EE1ED57C0074";
paths = (
{
closed = 1;
nodes = (
"496 -10 OFFCURVE",
"606 61 OFFCURVE",
"641 258 CURVE SMOOTH",
"713 668 LINE",
"627 668 LINE",
"556 261 LINE",
"532 117 OFFCURVE",
"448 66 OFFCURVE",
"333 66 CURVE SMOOTH",
"214 66 OFFCURVE",
"169 134 OFFCURVE",
"169 221 CURVE SMOOTH",
"169 238 OFFCURVE",
"171 256 OFFCURVE",
"174 275 CURVE SMOOTH",
"243 668 LINE",
"157 668 LINE",
"89 278 LINE SMOOTH",
"85 256 OFFCURVE",
"83 235 OFFCURVE",
"83 215 CURVE SMOOTH",
"83 74 OFFCURVE",
"175 -10 OFFCURVE",
"326 -10 CURVE SMOOTH"
);
},
{
closed = 1;
nodes = (
"395 770 OFFCURVE",
"414 790 OFFCURVE",
"414 818 CURVE SMOOTH",
"414 839 OFFCURVE",
"400 857 OFFCURVE",
"373 857 CURVE SMOOTH",
"342 857 OFFCURVE",
"322 838 OFFCURVE",
"322 809 CURVE SMOOTH",
"322 786 OFFCURVE",
"336 770 OFFCURVE",
"363 770 CURVE SMOOTH"
);
},
{
closed = 1;
nodes = (
"583 770 OFFCURVE",
"602 790 OFFCURVE",
"602 818 CURVE SMOOTH",
"602 839 OFFCURVE",
"588 857 OFFCURVE",
"561 857 CURVE SMOOTH",
"530 857 OFFCURVE",
"510 838 OFFCURVE",
"510 809 CURVE SMOOTH",
"510 786 OFFCURVE",
"524 770 OFFCURVE",
"551 770 CURVE SMOOTH"
);
}
);
width = 720;
}
);
leftKerningGroup = _U;
rightKerningGroup = _U;
unicode = 00DC;
},
{
glyphname = Yacute;
layers = (
{
layerId = "573A4E99-B1EA-4FCA-90B1-EE1ED57C0074";
paths = (
{
closed = 1;
nodes = (
"340 0 LINE",
"386 260 LINE",
"725 668 LINE",
"619 668 LINE",
"351 340 LINE",
"198 668 LINE",
"103 668 LINE",
"300 260 LINE",
"255 0 LINE"
);
},
{
closed = 1;
nodes = (
"457 739 LINE",
"584 888 LINE",
"498 888 LINE",
"398 739 LINE"
);
}
);
width = 679;
}
);
leftKerningGroup = _Y;
rightKerningGroup = _Y;
unicode = 00DD;
},
{
glyphname = Thorn;
layers = (
{
layerId = "573A4E99-B1EA-4FCA-90B1-EE1ED57C0074";
paths = (
{
closed = 1;
nodes = (
"607 483 OFFCURVE",
"530 561 OFFCURVE",
"387 561 CURVE SMOOTH",
"224 561 LINE",
"243 668 LINE",
"157 668 LINE",
"40 0 LINE",
"126 0 LINE",
"144 107 LINE",
"329 107 LINE SMOOTH",
"497 107 OFFCURVE",
"607 195 OFFCURVE",
"607 371 CURVE SMOOTH"
);
},
{
closed = 1;
nodes = (
"518 232 OFFCURVE",
"437 181 OFFCURVE",
"320 181 CURVE SMOOTH",
"158 181 LINE",
"211 487 LINE",
"363 487 LINE SMOOTH",
"467 487 OFFCURVE",
"518 442 OFFCURVE",
"518 363 CURVE SMOOTH"
);
}
);
width = 639;
}
);
rightKerningGroup = _D;
unicode = 00DE;
},
{
glyphname = germandbls;
layers = (
{
layerId = "573A4E99-B1EA-4FCA-90B1-EE1ED57C0074";
paths = (
{
closed = 1;
nodes = (
"467 -10 OFFCURVE",
"549 85 OFFCURVE",
"549 220 CURVE SMOOTH",
"549 289 OFFCURVE",
"509 333 OFFCURVE",
"430 352 CURVE",
"510 377 OFFCURVE",
"562 432 OFFCURVE",
"562 520 CURVE SMOOTH",
"562 611 OFFCURVE",
"482 678 OFFCURVE",
"363 678 CURVE SMOOTH",
"222 678 OFFCURVE",
"141 592 OFFCURVE",
"114 440 CURVE SMOOTH",
"37 0 LINE",
"118 0 LINE",
"197 452 LINE",
"216 555 OFFCURVE",
"272 609 OFFCURVE",
"359 609 CURVE SMOOTH",
"432 609 OFFCURVE",
"480 569 OFFCURVE",
"480 509 CURVE SMOOTH",
"480 424 OFFCURVE",
"408 380 OFFCURVE",
"320 380 CURVE",
"309 318 LINE",
"408 318 OFFCURVE",
"466 293 OFFCURVE",
"466 221 CURVE SMOOTH",
"466 114 OFFCURVE",
"406 59 OFFCURVE",
"322 59 CURVE SMOOTH",
"302 59 OFFCURVE",
"277 63 OFFCURVE",
"264 66 CURVE",
"254 0 LINE",
"271 -5 OFFCURVE",
"309 -10 OFFCURVE",
"334 -10 CURVE SMOOTH"
);
}
);
width = 607;
}
);
unicode = 00DF;
},
{
glyphname = agrave;
layers = (
{
layerId = "573A4E99-B1EA-4FCA-90B1-EE1ED57C0074";
paths = (
{
closed = 1;
nodes = (
"279 -10 OFFCURVE",
"335 18 OFFCURVE",
"371 61 CURVE",
"361 0 LINE",
"439 0 LINE",
"489 286 LINE",
"492 298 OFFCURVE",
"493 314 OFFCURVE",
"493 327 CURVE SMOOTH",
"493 430 OFFCURVE",
"410 480 OFFCURVE",
"298 480 CURVE SMOOTH",
"235 480 OFFCURVE",
"173 460 OFFCURVE",
"116 417 CURVE",
"138 353 LINE",
"194 390 OFFCURVE",
"247 409 OFFCURVE",
"297 409 CURVE SMOOTH",
"369 409 OFFCURVE",
"410 379 OFFCURVE",
"410 314 CURVE SMOOTH",
"410 307 OFFCURVE",
"410 303 OFFCURVE",
"409 296 CURVE",
"235 275 LINE SMOOTH",
"99 258 OFFCURVE",
"32 211 OFFCURVE",
"32 122 CURVE SMOOTH",
"32 39 OFFCURVE",
"100 -10 OFFCURVE",
"194 -10 CURVE SMOOTH"
);
},
{
closed = 1;
nodes = (
"154 61 OFFCURVE",
"114 88 OFFCURVE",
"114 128 CURVE SMOOTH",
"114 169 OFFCURVE",
"146 197 OFFCURVE",
"245 210 CURVE SMOOTH",
"398 229 LINE",
"391 189 LINE SMOOTH",
"378 122 OFFCURVE",
"319 61 OFFCURVE",
"218 61 CURVE SMOOTH"
);
},
{
closed = 1;
nodes = (
"364 547 LINE",
"316 696 LINE",
"236 696 LINE",
"310 547 LINE"
);
}
);
width = 560;
}
);
leftKerningGroup = _a1;
rightKerningGroup = _a;
unicode = 00E0;
},
{
glyphname = aacute;
layers = (
{
layerId = "573A4E99-B1EA-4FCA-90B1-EE1ED57C0074";
paths = (
{
closed = 1;
nodes = (
"279 -10 OFFCURVE",
"335 18 OFFCURVE",
"371 61 CURVE",
"361 0 LINE",
"439 0 LINE",
"489 286 LINE",
"492 298 OFFCURVE",
"493 314 OFFCURVE",
"493 327 CURVE SMOOTH",
"493 430 OFFCURVE",
"410 480 OFFCURVE",
"298 480 CURVE SMOOTH",
"235 480 OFFCURVE",
"173 460 OFFCURVE",
"116 417 CURVE",
"138 353 LINE",
"194 390 OFFCURVE",
"247 409 OFFCURVE",
"297 409 CURVE SMOOTH",
"369 409 OFFCURVE",
"410 379 OFFCURVE",
"410 314 CURVE SMOOTH",
"410 307 OFFCURVE",
"410 303 OFFCURVE",
"409 296 CURVE",
"235 275 LINE SMOOTH",
"99 258 OFFCURVE",
"32 211 OFFCURVE",
"32 122 CURVE SMOOTH",
"32 39 OFFCURVE",
"100 -10 OFFCURVE",
"194 -10 CURVE SMOOTH"
);
},
{
closed = 1;
nodes = (
"154 61 OFFCURVE",
"114 88 OFFCURVE",
"114 128 CURVE SMOOTH",
"114 169 OFFCURVE",
"146 197 OFFCURVE",
"245 210 CURVE SMOOTH",
"398 229 LINE",
"391 189 LINE SMOOTH",
"378 122 OFFCURVE",
"319 61 OFFCURVE",
"218 61 CURVE SMOOTH"
);
},
{
closed = 1;
nodes = (
"366 547 LINE",
"493 696 LINE",
"407 696 LINE",
"307 547 LINE"
);
}
);
width = 560;
}
);
leftKerningGroup = _a1;
rightKerningGroup = _a;
unicode = 00E1;
},
{
glyphname = acircumflex;
layers = (
{
layerId = "573A4E99-B1EA-4FCA-90B1-EE1ED57C0074";
paths = (
{
closed = 1;
nodes = (
"279 -10 OFFCURVE",
"335 18 OFFCURVE",
"371 61 CURVE",
"361 0 LINE",
"439 0 LINE",
"489 286 LINE",
"492 298 OFFCURVE",
"493 314 OFFCURVE",
"493 327 CURVE SMOOTH",
"493 430 OFFCURVE",
"410 480 OFFCURVE",
"298 480 CURVE SMOOTH",
"235 480 OFFCURVE",
"173 460 OFFCURVE",
"116 417 CURVE",
"138 353 LINE",
"194 390 OFFCURVE",
"247 409 OFFCURVE",
"297 409 CURVE SMOOTH",
"369 409 OFFCURVE",
"410 379 OFFCURVE",
"410 314 CURVE SMOOTH",
"410 307 OFFCURVE",
"410 303 OFFCURVE",
"409 296 CURVE",
"235 275 LINE SMOOTH",
"99 258 OFFCURVE",
"32 211 OFFCURVE",
"32 122 CURVE SMOOTH",
"32 39 OFFCURVE",
"100 -10 OFFCURVE",
"194 -10 CURVE SMOOTH"
);
},
{
closed = 1;
nodes = (
"154 61 OFFCURVE",
"114 88 OFFCURVE",
"114 128 CURVE SMOOTH",
"114 169 OFFCURVE",
"146 197 OFFCURVE",
"245 210 CURVE SMOOTH",
"398 229 LINE",
"391 189 LINE SMOOTH",
"378 122 OFFCURVE",
"319 61 OFFCURVE",
"218 61 CURVE SMOOTH"
);
},
{
closed = 1;
nodes = (
"478 547 LINE",
"402 696 LINE",
"324 696 LINE",
"196 547 LINE",
"266 547 LINE",
"360 651 LINE",
"417 547 LINE"
);
}
);
width = 560;
}
);
leftKerningGroup = _a1;
rightKerningGroup = _a;
unicode = 00E2;
},
{
glyphname = atilde;
layers = (
{
layerId = "573A4E99-B1EA-4FCA-90B1-EE1ED57C0074";
paths = (
{
closed = 1;
nodes = (
"279 -10 OFFCURVE",
"335 18 OFFCURVE",
"371 61 CURVE",
"361 0 LINE",
"439 0 LINE",
"489 286 LINE",
"492 298 OFFCURVE",
"493 314 OFFCURVE",
"493 327 CURVE SMOOTH",
"493 430 OFFCURVE",
"410 480 OFFCURVE",
"298 480 CURVE SMOOTH",
"235 480 OFFCURVE",
"173 460 OFFCURVE",
"116 417 CURVE",
"138 353 LINE",
"194 390 OFFCURVE",
"247 409 OFFCURVE",
"297 409 CURVE SMOOTH",
"369 409 OFFCURVE",
"410 379 OFFCURVE",
"410 314 CURVE SMOOTH",
"410 307 OFFCURVE",
"410 303 OFFCURVE",
"409 296 CURVE",
"235 275 LINE SMOOTH",
"99 258 OFFCURVE",
"32 211 OFFCURVE",
"32 122 CURVE SMOOTH",
"32 39 OFFCURVE",
"100 -10 OFFCURVE",
"194 -10 CURVE SMOOTH"
);
},
{
closed = 1;
nodes = (
"154 61 OFFCURVE",
"114 88 OFFCURVE",
"114 128 CURVE SMOOTH",
"114 169 OFFCURVE",
"146 197 OFFCURVE",
"245 210 CURVE SMOOTH",
"398 229 LINE",
"391 189 LINE SMOOTH",
"378 122 OFFCURVE",
"319 61 OFFCURVE",
"218 61 CURVE SMOOTH"
);
},
{
closed = 1;
nodes = (
"467 560 OFFCURVE",
"500 595 OFFCURVE",
"511 683 CURVE",
"460 683 LINE",
"447 631 OFFCURVE",
"434 615 OFFCURVE",
"411 615 CURVE SMOOTH",
"374 615 OFFCURVE",
"348 683 OFFCURVE",
"284 683 CURVE SMOOTH",
"231 683 OFFCURVE",
"198 648 OFFCURVE",
"187 560 CURVE",
"238 560 LINE",
"251 612 OFFCURVE",
"264 628 OFFCURVE",
"287 628 CURVE SMOOTH",
"323 628 OFFCURVE",
"351 560 OFFCURVE",
"414 560 CURVE SMOOTH"
);
}
);
width = 560;
}
);
leftKerningGroup = _a1;
rightKerningGroup = _a;
unicode = 00E3;
},
{
glyphname = adieresis;
layers = (
{
layerId = "573A4E99-B1EA-4FCA-90B1-EE1ED57C0074";
paths = (
{
closed = 1;
nodes = (
"279 -10 OFFCURVE",
"335 18 OFFCURVE",
"371 61 CURVE",
"361 0 LINE",
"439 0 LINE",
"489 286 LINE",
"492 298 OFFCURVE",
"493 314 OFFCURVE",
"493 327 CURVE SMOOTH",
"493 430 OFFCURVE",
"410 480 OFFCURVE",
"298 480 CURVE SMOOTH",
"235 480 OFFCURVE",
"173 460 OFFCURVE",
"116 417 CURVE",
"138 353 LINE",
"194 390 OFFCURVE",
"247 409 OFFCURVE",
"297 409 CURVE SMOOTH",
"369 409 OFFCURVE",
"410 379 OFFCURVE",
"410 314 CURVE SMOOTH",
"410 307 OFFCURVE",
"410 303 OFFCURVE",
"409 296 CURVE",
"235 275 LINE SMOOTH",
"99 258 OFFCURVE",
"32 211 OFFCURVE",
"32 122 CURVE SMOOTH",
"32 39 OFFCURVE",
"100 -10 OFFCURVE",
"194 -10 CURVE SMOOTH"
);
},
{
closed = 1;
nodes = (
"154 61 OFFCURVE",
"114 88 OFFCURVE",
"114 128 CURVE SMOOTH",
"114 169 OFFCURVE",
"146 197 OFFCURVE",
"245 210 CURVE SMOOTH",
"398 229 LINE",
"391 189 LINE SMOOTH",
"378 122 OFFCURVE",
"319 61 OFFCURVE",
"218 61 CURVE SMOOTH"
);
},
{
closed = 1;
nodes = (
"283 578 OFFCURVE",
"302 598 OFFCURVE",
"302 626 CURVE SMOOTH",
"302 647 OFFCURVE",
"288 665 OFFCURVE",
"261 665 CURVE SMOOTH",
"230 665 OFFCURVE",
"210 646 OFFCURVE",
"210 617 CURVE SMOOTH",
"210 594 OFFCURVE",
"224 578 OFFCURVE",
"251 578 CURVE SMOOTH"
);
},
{
closed = 1;
nodes = (
"471 578 OFFCURVE",
"490 598 OFFCURVE",
"490 626 CURVE SMOOTH",
"490 647 OFFCURVE",
"476 665 OFFCURVE",
"449 665 CURVE SMOOTH",
"418 665 OFFCURVE",
"398 646 OFFCURVE",
"398 617 CURVE SMOOTH",
"398 594 OFFCURVE",
"412 578 OFFCURVE",
"439 578 CURVE SMOOTH"
);
}
);
width = 560;
}
);
leftKerningGroup = _a1;
rightKerningGroup = _a;
unicode = 00E4;
},
{
glyphname = aring;
layers = (
{
layerId = "573A4E99-B1EA-4FCA-90B1-EE1ED57C0074";
paths = (
{
closed = 1;
nodes = (
"279 -10 OFFCURVE",
"335 18 OFFCURVE",
"371 61 CURVE",
"361 0 LINE",
"439 0 LINE",
"489 286 LINE",
"492 298 OFFCURVE",
"493 314 OFFCURVE",
"493 327 CURVE SMOOTH",
"493 430 OFFCURVE",
"410 480 OFFCURVE",
"298 480 CURVE SMOOTH",
"235 480 OFFCURVE",
"173 460 OFFCURVE",
"116 417 CURVE",
"138 353 LINE",
"194 390 OFFCURVE",
"247 409 OFFCURVE",
"297 409 CURVE SMOOTH",
"369 409 OFFCURVE",
"410 379 OFFCURVE",
"410 314 CURVE SMOOTH",
"410 307 OFFCURVE",
"410 303 OFFCURVE",
"409 296 CURVE",
"235 275 LINE SMOOTH",
"99 258 OFFCURVE",
"32 211 OFFCURVE",
"32 122 CURVE SMOOTH",
"32 39 OFFCURVE",
"100 -10 OFFCURVE",
"194 -10 CURVE SMOOTH"
);
},
{
closed = 1;
nodes = (
"416 517 OFFCURVE",
"464 568 OFFCURVE",
"464 636 CURVE SMOOTH",
"464 687 OFFCURVE",
"426 726 OFFCURVE",
"362 726 CURVE SMOOTH",
"285 726 OFFCURVE",
"235 675 OFFCURVE",
"235 607 CURVE SMOOTH",
"235 556 OFFCURVE",
"273 517 OFFCURVE",
"337 517 CURVE SMOOTH"
);
},
{
closed = 1;
nodes = (
"154 61 OFFCURVE",
"114 88 OFFCURVE",
"114 128 CURVE SMOOTH",
"114 169 OFFCURVE",
"146 197 OFFCURVE",
"245 210 CURVE SMOOTH",
"398 229 LINE",
"391 189 LINE SMOOTH",
"378 122 OFFCURVE",
"319 61 OFFCURVE",
"218 61 CURVE SMOOTH"
);
},
{
closed = 1;
nodes = (
"302 557 OFFCURVE",
"282 583 OFFCURVE",
"282 614 CURVE SMOOTH",
"282 655 OFFCURVE",
"313 686 OFFCURVE",
"358 686 CURVE SMOOTH",
"397 686 OFFCURVE",
"417 660 OFFCURVE",
"417 629 CURVE SMOOTH",
"417 588 OFFCURVE",
"386 557 OFFCURVE",
"341 557 CURVE SMOOTH"
);
}
);
width = 560;
}
);
leftKerningGroup = _a1;
rightKerningGroup = _a;
unicode = 00E5;
},
{
glyphname = ae;
layers = (
{
layerId = "573A4E99-B1EA-4FCA-90B1-EE1ED57C0074";
paths = (
{
closed = 1;
nodes = (
"688 -10 OFFCURVE",
"749 11 OFFCURVE",
"804 52 CURVE",
"781 117 LINE",
"734 80 OFFCURVE",
"681 61 OFFCURVE",
"622 61 CURVE SMOOTH",
"538 61 OFFCURVE",
"479 101 OFFCURVE",
"479 189 CURVE SMOOTH",
"479 196 OFFCURVE",
"479 203 OFFCURVE",
"480 210 CURVE",
"833 210 LINE",
"850 234 OFFCURVE",
"859 270 OFFCURVE",
"859 293 CURVE SMOOTH",
"859 405 OFFCURVE",
"785 480 OFFCURVE",
"668 480 CURVE SMOOTH",
"584 480 OFFCURVE",
"519 447 OFFCURVE",
"472 395 CURVE",
"444 451 OFFCURVE",
"379 480 OFFCURVE",
"298 480 CURVE SMOOTH",
"235 480 OFFCURVE",
"173 460 OFFCURVE",
"116 417 CURVE",
"138 353 LINE",
"194 390 OFFCURVE",
"247 409 OFFCURVE",
"297 409 CURVE SMOOTH",
"369 409 OFFCURVE",
"410 379 OFFCURVE",
"410 314 CURVE SMOOTH",
"410 307 OFFCURVE",
"410 303 OFFCURVE",
"409 296 CURVE",
"235 275 LINE SMOOTH",
"99 259 OFFCURVE",
"32 211 OFFCURVE",
"32 122 CURVE SMOOTH",
"32 39 OFFCURVE",
"100 -10 OFFCURVE",
"194 -10 CURVE SMOOTH",
"294 -10 OFFCURVE",
"375 27 OFFCURVE",
"418 108 CURVE",
"446 39 OFFCURVE",
"511 -10 OFFCURVE",
"611 -10 CURVE SMOOTH"
);
},
{
closed = 1;
nodes = (
"154 61 OFFCURVE",
"114 88 OFFCURVE",
"114 128 CURVE SMOOTH",
"114 169 OFFCURVE",
"146 197 OFFCURVE",
"245 210 CURVE SMOOTH",
"398 229 LINE",
"391 189 LINE SMOOTH",
"378 122 OFFCURVE",
"319 61 OFFCURVE",
"218 61 CURVE SMOOTH"
);
},
{
closed = 1;
nodes = (
"734 409 OFFCURVE",
"776 375 OFFCURVE",
"776 300 CURVE SMOOTH",
"776 291 OFFCURVE",
"775 284 OFFCURVE",
"773 278 CURVE",
"487 278 LINE",
"508 360 OFFCURVE",
"582 409 OFFCURVE",
"659 409 CURVE SMOOTH"
);
}
);
width = 908;
}
);
leftKerningGroup = _a1;
rightKerningGroup = _b;
unicode = 00E6;
},
{
glyphname = ccedilla;
layers = (
{
layerId = "573A4E99-B1EA-4FCA-90B1-EE1ED57C0074";
paths = (
{
closed = 1;
nodes = (
"254 -188 OFFCURVE",
"296 -154 OFFCURVE",
"296 -102 CURVE SMOOTH",
"296 -67 OFFCURVE",
"270 -47 OFFCURVE",
"223 -47 CURVE",
"246 -10 LINE",
"260 -10 LINE SMOOTH",
"323 -10 OFFCURVE",
"379 10 OFFCURVE",
"428 49 CURVE",
"407 109 LINE",
"359 74 OFFCURVE",
"319 61 OFFCURVE",
"268 61 CURVE SMOOTH",
"183 61 OFFCURVE",
"132 117 OFFCURVE",
"132 197 CURVE SMOOTH",
"132 327 OFFCURVE",
"210 409 OFFCURVE",
"322 409 CURVE SMOOTH",
"373 409 OFFCURVE",
"415 396 OFFCURVE",
"451 361 CURVE",
"493 421 LINE",
"454 460 OFFCURVE",
"402 480 OFFCURVE",
"330 480 CURVE SMOOTH",
"164 480 OFFCURVE",
"49 369 OFFCURVE",
"49 193 CURVE SMOOTH",
"49 96 OFFCURVE",
"105 17 OFFCURVE",
"204 -4 CURVE",
"178 -47 LINE",
"174 -71 LINE",
"197 -71 LINE SMOOTH",
"226 -71 OFFCURVE",
"240 -81 OFFCURVE",
"240 -100 CURVE SMOOTH",
"240 -127 OFFCURVE",
"219 -142 OFFCURVE",
"184 -142 CURVE SMOOTH",
"167 -142 OFFCURVE",
"139 -140 OFFCURVE",
"123 -136 CURVE",
"115 -178 LINE",
"134 -185 OFFCURVE",
"166 -188 OFFCURVE",
"185 -188 CURVE SMOOTH"
);
}
);
width = 508;
}
);
leftKerningGroup = _c1;
unicode = 00E7;
},
{
glyphname = egrave;
layers = (
{
layerId = "573A4E99-B1EA-4FCA-90B1-EE1ED57C0074";
paths = (
{
closed = 1;
nodes = (
"340 -10 OFFCURVE",
"401 11 OFFCURVE",
"456 52 CURVE",
"434 117 LINE",
"387 80 OFFCURVE",
"334 61 OFFCURVE",
"275 61 CURVE SMOOTH",
"191 61 OFFCURVE",
"132 101 OFFCURVE",
"132 189 CURVE SMOOTH",
"132 196 OFFCURVE",
"132 203 OFFCURVE",
"133 210 CURVE",
"486 210 LINE",
"503 234 OFFCURVE",
"512 270 OFFCURVE",
"512 293 CURVE SMOOTH",
"512 405 OFFCURVE",
"437 480 OFFCURVE",
"320 480 CURVE SMOOTH",
"170 480 OFFCURVE",
"49 373 OFFCURVE",
"49 193 CURVE SMOOTH",
"49 78 OFFCURVE",
"127 -10 OFFCURVE",
"263 -10 CURVE SMOOTH"
);
},
{
closed = 1;
nodes = (
"387 409 OFFCURVE",
"429 375 OFFCURVE",
"429 300 CURVE SMOOTH",
"429 291 OFFCURVE",
"428 284 OFFCURVE",
"426 278 CURVE",
"140 278 LINE",
"161 360 OFFCURVE",
"235 409 OFFCURVE",
"312 409 CURVE SMOOTH"
);
},
{
closed = 1;
nodes = (
"365 547 LINE",
"317 696 LINE",
"237 696 LINE",
"311 547 LINE"
);
}
);
width = 560;
}
);
leftKerningGroup = _c1;
rightKerningGroup = _b;
unicode = 00E8;
},
{
glyphname = eacute;
layers = (
{
layerId = "573A4E99-B1EA-4FCA-90B1-EE1ED57C0074";
paths = (
{
closed = 1;
nodes = (
"340 -10 OFFCURVE",
"401 11 OFFCURVE",
"456 52 CURVE",
"434 117 LINE",
"387 80 OFFCURVE",
"334 61 OFFCURVE",
"275 61 CURVE SMOOTH",
"191 61 OFFCURVE",
"132 101 OFFCURVE",
"132 189 CURVE SMOOTH",
"132 196 OFFCURVE",
"132 203 OFFCURVE",
"133 210 CURVE",
"486 210 LINE",
"503 234 OFFCURVE",
"512 270 OFFCURVE",
"512 293 CURVE SMOOTH",
"512 405 OFFCURVE",
"437 480 OFFCURVE",
"320 480 CURVE SMOOTH",
"170 480 OFFCURVE",
"49 373 OFFCURVE",
"49 193 CURVE SMOOTH",
"49 78 OFFCURVE",
"127 -10 OFFCURVE",
"263 -10 CURVE SMOOTH"
);
},
{
closed = 1;
nodes = (
"387 409 OFFCURVE",
"429 375 OFFCURVE",
"429 300 CURVE SMOOTH",
"429 291 OFFCURVE",
"428 284 OFFCURVE",
"426 278 CURVE",
"140 278 LINE",
"161 360 OFFCURVE",
"235 409 OFFCURVE",
"312 409 CURVE SMOOTH"
);
},
{
closed = 1;
nodes = (
"368 547 LINE",
"494 696 LINE",
"409 696 LINE",
"308 547 LINE"
);
}
);
width = 560;
}
);
leftKerningGroup = _c1;
rightKerningGroup = _b;
unicode = 00E9;
},
{
glyphname = ecircumflex;
layers = (
{
layerId = "573A4E99-B1EA-4FCA-90B1-EE1ED57C0074";
paths = (
{
closed = 1;
nodes = (
"340 -10 OFFCURVE",
"401 11 OFFCURVE",
"456 52 CURVE",
"434 117 LINE",
"387 80 OFFCURVE",
"334 61 OFFCURVE",
"275 61 CURVE SMOOTH",
"191 61 OFFCURVE",
"132 101 OFFCURVE",
"132 189 CURVE SMOOTH",
"132 196 OFFCURVE",
"132 203 OFFCURVE",
"133 210 CURVE",
"486 210 LINE",
"503 234 OFFCURVE",
"512 270 OFFCURVE",
"512 293 CURVE SMOOTH",
"512 405 OFFCURVE",
"437 480 OFFCURVE",
"320 480 CURVE SMOOTH",
"170 480 OFFCURVE",
"49 373 OFFCURVE",
"49 193 CURVE SMOOTH",
"49 78 OFFCURVE",
"127 -10 OFFCURVE",
"263 -10 CURVE SMOOTH"
);
},
{
closed = 1;
nodes = (
"387 409 OFFCURVE",
"429 375 OFFCURVE",
"429 300 CURVE SMOOTH",
"429 291 OFFCURVE",
"428 284 OFFCURVE",
"426 278 CURVE",
"140 278 LINE",
"161 360 OFFCURVE",
"235 409 OFFCURVE",
"312 409 CURVE SMOOTH"
);
},
{
closed = 1;
nodes = (
"479 547 LINE",
"403 696 LINE",
"325 696 LINE",
"197 547 LINE",
"267 547 LINE",
"361 651 LINE",
"419 547 LINE"
);
}
);
width = 560;
}
);
leftKerningGroup = _c1;
rightKerningGroup = _b;
unicode = 00EA;
},
{
glyphname = edieresis;
layers = (
{
layerId = "573A4E99-B1EA-4FCA-90B1-EE1ED57C0074";
paths = (
{
closed = 1;
nodes = (
"340 -10 OFFCURVE",
"401 11 OFFCURVE",
"456 52 CURVE",
"434 117 LINE",
"387 80 OFFCURVE",
"334 61 OFFCURVE",
"275 61 CURVE SMOOTH",
"191 61 OFFCURVE",
"132 101 OFFCURVE",
"132 189 CURVE SMOOTH",
"132 196 OFFCURVE",
"132 203 OFFCURVE",
"133 210 CURVE",
"486 210 LINE",
"503 234 OFFCURVE",
"512 270 OFFCURVE",
"512 293 CURVE SMOOTH",
"512 405 OFFCURVE",
"437 480 OFFCURVE",
"320 480 CURVE SMOOTH",
"170 480 OFFCURVE",
"49 373 OFFCURVE",
"49 193 CURVE SMOOTH",
"49 78 OFFCURVE",
"127 -10 OFFCURVE",
"263 -10 CURVE SMOOTH"
);
},
{
closed = 1;
nodes = (
"387 409 OFFCURVE",
"429 375 OFFCURVE",
"429 300 CURVE SMOOTH",
"429 291 OFFCURVE",
"428 284 OFFCURVE",
"426 278 CURVE",
"140 278 LINE",
"161 360 OFFCURVE",
"235 409 OFFCURVE",
"312 409 CURVE SMOOTH"
);
},
{
closed = 1;
nodes = (
"285 578 OFFCURVE",
"304 598 OFFCURVE",
"304 626 CURVE SMOOTH",
"304 647 OFFCURVE",
"290 665 OFFCURVE",
"263 665 CURVE SMOOTH",
"232 665 OFFCURVE",
"212 646 OFFCURVE",
"212 617 CURVE SMOOTH",
"212 594 OFFCURVE",
"226 578 OFFCURVE",
"253 578 CURVE SMOOTH"
);
},
{
closed = 1;
nodes = (
"473 578 OFFCURVE",
"492 598 OFFCURVE",
"492 626 CURVE SMOOTH",
"492 647 OFFCURVE",
"478 665 OFFCURVE",
"451 665 CURVE SMOOTH",
"420 665 OFFCURVE",
"400 646 OFFCURVE",
"400 617 CURVE SMOOTH",
"400 594 OFFCURVE",
"414 578 OFFCURVE",
"441 578 CURVE SMOOTH"
);
}
);
width = 560;
}
);
leftKerningGroup = _c1;
rightKerningGroup = _b;
unicode = 00EB;
},
{
glyphname = igrave;
layers = (
{
layerId = "573A4E99-B1EA-4FCA-90B1-EE1ED57C0074";
paths = (
{
closed = 1;
nodes = (
"118 0 LINE",
"200 470 LINE",
"119 470 LINE",
"37 0 LINE"
);
},
{
closed = 1;
nodes = (
"199 547 LINE",
"152 696 LINE",
"72 696 LINE",
"145 547 LINE"
);
}
);
width = 239;
}
);
unicode = 00EC;
},
{
glyphname = iacute;
layers = (
{
layerId = "573A4E99-B1EA-4FCA-90B1-EE1ED57C0074";
paths = (
{
closed = 1;
nodes = (
"118 0 LINE",
"200 470 LINE",
"119 470 LINE",
"37 0 LINE"
);
},
{
closed = 1;
nodes = (
"202 547 LINE",
"329 696 LINE",
"243 696 LINE",
"143 547 LINE"
);
}
);
width = 239;
}
);
unicode = 00ED;
},
{
glyphname = icircumflex;
layers = (
{
layerId = "573A4E99-B1EA-4FCA-90B1-EE1ED57C0074";
paths = (
{
closed = 1;
nodes = (
"118 0 LINE",
"200 470 LINE",
"119 470 LINE",
"37 0 LINE"
);
},
{
closed = 1;
nodes = (
"313 547 LINE",
"238 696 LINE",
"160 696 LINE",
"31 547 LINE",
"102 547 LINE",
"196 651 LINE",
"253 547 LINE"
);
}
);
width = 239;
}
);
unicode = 00EE;
},
{
glyphname = idieresis;
layers = (
{
layerId = "573A4E99-B1EA-4FCA-90B1-EE1ED57C0074";
paths = (
{
closed = 1;
nodes = (
"118 0 LINE",
"200 470 LINE",
"119 470 LINE",
"37 0 LINE"
);
},
{
closed = 1;
nodes = (
"119 578 OFFCURVE",
"138 598 OFFCURVE",
"138 626 CURVE SMOOTH",
"138 647 OFFCURVE",
"124 665 OFFCURVE",
"97 665 CURVE SMOOTH",
"66 665 OFFCURVE",
"46 646 OFFCURVE",
"46 617 CURVE SMOOTH",
"46 594 OFFCURVE",
"60 578 OFFCURVE",
"87 578 CURVE SMOOTH"
);
},
{
closed = 1;
nodes = (
"307 578 OFFCURVE",
"326 598 OFFCURVE",
"326 626 CURVE SMOOTH",
"326 647 OFFCURVE",
"312 665 OFFCURVE",
"285 665 CURVE SMOOTH",
"254 665 OFFCURVE",
"234 646 OFFCURVE",
"234 617 CURVE SMOOTH",
"234 594 OFFCURVE",
"248 578 OFFCURVE",
"275 578 CURVE SMOOTH"
);
}
);
width = 239;
}
);
unicode = 00EF;
},
{
glyphname = eth;
layers = (
{
layerId = "573A4E99-B1EA-4FCA-90B1-EE1ED57C0074";
paths = (
{
closed = 1;
nodes = (
"431 -10 OFFCURVE",
"538 89 OFFCURVE",
"538 252 CURVE SMOOTH",
"538 307 OFFCURVE",
"519 363 OFFCURVE",
"480 435 CURVE SMOOTH",
"403 578 LINE",
"500 614 LINE",
"509 668 LINE",
"380 621 LINE",
"355 668 LINE",
"275 668 LINE",
"313 599 LINE",
"228 568 LINE",
"218 514 LINE",
"336 556 LINE",
"418 405 LINE",
"389 428 OFFCURVE",
"348 438 OFFCURVE",
"303 438 CURVE SMOOTH",
"148 438 OFFCURVE",
"45 348 OFFCURVE",
"45 189 CURVE SMOOTH",
"45 73 OFFCURVE",
"130 -10 OFFCURVE",
"260 -10 CURVE SMOOTH"
);
},
{
closed = 1;
nodes = (
"183 61 OFFCURVE",
"128 118 OFFCURVE",
"128 194 CURVE SMOOTH",
"128 314 OFFCURVE",
"211 377 OFFCURVE",
"316 377 CURVE SMOOTH",
"400 377 OFFCURVE",
"455 320 OFFCURVE",
"455 244 CURVE SMOOTH",
"455 125 OFFCURVE",
"372 61 OFFCURVE",
"268 61 CURVE SMOOTH"
);
}
);
width = 590;
}
);
leftKerningGroup = _c1;
rightKerningGroup = _b;
unicode = 00F0;
},
{
glyphname = ntilde;
layers = (
{
layerId = "573A4E99-B1EA-4FCA-90B1-EE1ED57C0074";
paths = (
{
closed = 1;
nodes = (
"449 0 LINE",
"500 289 LINE SMOOTH",
"503 308 OFFCURVE",
"505 325 OFFCURVE",
"505 341 CURVE SMOOTH",
"505 436 OFFCURVE",
"451 480 OFFCURVE",
"350 480 CURVE SMOOTH",
"274 480 OFFCURVE",
"226 460 OFFCURVE",
"186 409 CURVE",
"197 470 LINE",
"119 470 LINE",
"37 0 LINE",
"118 0 LINE",
"162 252 LINE",
"181 356 OFFCURVE",
"236 409 OFFCURVE",
"323 409 CURVE SMOOTH",
"388 409 OFFCURVE",
"421 382 OFFCURVE",
"421 321 CURVE SMOOTH",
"421 309 OFFCURVE",
"420 295 OFFCURVE",
"417 280 CURVE SMOOTH",
"368 0 LINE"
);
},
{
closed = 1;
nodes = (
"469 560 OFFCURVE",
"502 595 OFFCURVE",
"513 683 CURVE",
"462 683 LINE",
"449 631 OFFCURVE",
"436 615 OFFCURVE",
"413 615 CURVE SMOOTH",
"376 615 OFFCURVE",
"350 683 OFFCURVE",
"286 683 CURVE SMOOTH",
"233 683 OFFCURVE",
"200 648 OFFCURVE",
"189 560 CURVE",
"240 560 LINE",
"253 612 OFFCURVE",
"266 628 OFFCURVE",
"289 628 CURVE SMOOTH",
"325 628 OFFCURVE",
"353 560 OFFCURVE",
"416 560 CURVE SMOOTH"
);
}
);
width = 570;
}
);
leftKerningGroup = _m1;
rightKerningGroup = _h;
unicode = 00F1;
},
{
glyphname = ograve;
layers = (
{
layerId = "573A4E99-B1EA-4FCA-90B1-EE1ED57C0074";
paths = (
{
closed = 1;
nodes = (
"426 -10 OFFCURVE",
"541 101 OFFCURVE",
"541 277 CURVE SMOOTH",
"541 392 OFFCURVE",
"462 480 OFFCURVE",
"330 480 CURVE SMOOTH",
"164 480 OFFCURVE",
"49 369 OFFCURVE",
"49 193 CURVE SMOOTH",
"49 78 OFFCURVE",
"128 -10 OFFCURVE",
"260 -10 CURVE SMOOTH"
);
},
{
closed = 1;
nodes = (
"183 61 OFFCURVE",
"132 117 OFFCURVE",
"132 197 CURVE SMOOTH",
"132 327 OFFCURVE",
"210 409 OFFCURVE",
"322 409 CURVE SMOOTH",
"407 409 OFFCURVE",
"458 353 OFFCURVE",
"458 273 CURVE SMOOTH",
"458 143 OFFCURVE",
"380 61 OFFCURVE",
"268 61 CURVE SMOOTH"
);
},
{
closed = 1;
nodes = (
"375 547 LINE",
"327 696 LINE",
"247 696 LINE",
"321 547 LINE"
);
}
);
width = 590;
}
);
leftKerningGroup = _c1;
rightKerningGroup = _b;
unicode = 00F2;
},
{
glyphname = oacute;
layers = (
{
layerId = "573A4E99-B1EA-4FCA-90B1-EE1ED57C0074";
paths = (
{
closed = 1;
nodes = (
"426 -10 OFFCURVE",
"541 101 OFFCURVE",
"541 277 CURVE SMOOTH",
"541 392 OFFCURVE",
"462 480 OFFCURVE",
"330 480 CURVE SMOOTH",
"164 480 OFFCURVE",
"49 369 OFFCURVE",
"49 193 CURVE SMOOTH",
"49 78 OFFCURVE",
"128 -10 OFFCURVE",
"260 -10 CURVE SMOOTH"
);
},
{
closed = 1;
nodes = (
"183 61 OFFCURVE",
"132 117 OFFCURVE",
"132 197 CURVE SMOOTH",
"132 327 OFFCURVE",
"210 409 OFFCURVE",
"322 409 CURVE SMOOTH",
"407 409 OFFCURVE",
"458 353 OFFCURVE",
"458 273 CURVE SMOOTH",
"458 143 OFFCURVE",
"380 61 OFFCURVE",
"268 61 CURVE SMOOTH"
);
},
{
closed = 1;
nodes = (
"378 547 LINE",
"504 696 LINE",
"419 696 LINE",
"318 547 LINE"
);
}
);
width = 590;
}
);
leftKerningGroup = _c1;
rightKerningGroup = _b;
unicode = 00F3;
},
{
glyphname = ocircumflex;
layers = (
{
layerId = "573A4E99-B1EA-4FCA-90B1-EE1ED57C0074";
paths = (
{
closed = 1;
nodes = (
"426 -10 OFFCURVE",
"541 101 OFFCURVE",
"541 277 CURVE SMOOTH",
"541 392 OFFCURVE",
"462 480 OFFCURVE",
"330 480 CURVE SMOOTH",
"164 480 OFFCURVE",
"49 369 OFFCURVE",
"49 193 CURVE SMOOTH",
"49 78 OFFCURVE",
"128 -10 OFFCURVE",
"260 -10 CURVE SMOOTH"
);
},
{
closed = 1;
nodes = (
"183 61 OFFCURVE",
"132 117 OFFCURVE",
"132 197 CURVE SMOOTH",
"132 327 OFFCURVE",
"210 409 OFFCURVE",
"322 409 CURVE SMOOTH",
"407 409 OFFCURVE",
"458 353 OFFCURVE",
"458 273 CURVE SMOOTH",
"458 143 OFFCURVE",
"380 61 OFFCURVE",
"268 61 CURVE SMOOTH"
);
},
{
closed = 1;
nodes = (
"489 547 LINE",
"413 696 LINE",
"335 696 LINE",
"207 547 LINE",
"277 547 LINE",
"371 651 LINE",
"429 547 LINE"
);
}
);
width = 590;
}
);
leftKerningGroup = _c1;
rightKerningGroup = _b;
unicode = 00F4;
},
{
glyphname = otilde;
layers = (
{
layerId = "573A4E99-B1EA-4FCA-90B1-EE1ED57C0074";
paths = (
{
closed = 1;
nodes = (
"426 -10 OFFCURVE",
"541 101 OFFCURVE",
"541 277 CURVE SMOOTH",
"541 392 OFFCURVE",
"462 480 OFFCURVE",
"330 480 CURVE SMOOTH",
"164 480 OFFCURVE",
"49 369 OFFCURVE",
"49 193 CURVE SMOOTH",
"49 78 OFFCURVE",
"128 -10 OFFCURVE",
"260 -10 CURVE SMOOTH"
);
},
{
closed = 1;
nodes = (
"183 61 OFFCURVE",
"132 117 OFFCURVE",
"132 197 CURVE SMOOTH",
"132 327 OFFCURVE",
"210 409 OFFCURVE",
"322 409 CURVE SMOOTH",
"407 409 OFFCURVE",
"458 353 OFFCURVE",
"458 273 CURVE SMOOTH",
"458 143 OFFCURVE",
"380 61 OFFCURVE",
"268 61 CURVE SMOOTH"
);
},
{
closed = 1;
nodes = (
"479 560 OFFCURVE",
"512 595 OFFCURVE",
"523 683 CURVE",
"472 683 LINE",
"459 631 OFFCURVE",
"446 615 OFFCURVE",
"423 615 CURVE SMOOTH",
"386 615 OFFCURVE",
"360 683 OFFCURVE",
"296 683 CURVE SMOOTH",
"243 683 OFFCURVE",
"210 648 OFFCURVE",
"199 560 CURVE",
"250 560 LINE",
"263 612 OFFCURVE",
"276 628 OFFCURVE",
"299 628 CURVE SMOOTH",
"335 628 OFFCURVE",
"363 560 OFFCURVE",
"426 560 CURVE SMOOTH"
);
}
);
width = 590;
}
);
leftKerningGroup = _c1;
rightKerningGroup = _b;
unicode = 00F5;
},
{
glyphname = odieresis;
layers = (
{
layerId = "573A4E99-B1EA-4FCA-90B1-EE1ED57C0074";
paths = (
{
closed = 1;
nodes = (
"426 -10 OFFCURVE",
"541 101 OFFCURVE",
"541 277 CURVE SMOOTH",
"541 392 OFFCURVE",
"462 480 OFFCURVE",
"330 480 CURVE SMOOTH",
"164 480 OFFCURVE",
"49 369 OFFCURVE",
"49 193 CURVE SMOOTH",
"49 78 OFFCURVE",
"128 -10 OFFCURVE",
"260 -10 CURVE SMOOTH"
);
},
{
closed = 1;
nodes = (
"183 61 OFFCURVE",
"132 117 OFFCURVE",
"132 197 CURVE SMOOTH",
"132 327 OFFCURVE",
"210 409 OFFCURVE",
"322 409 CURVE SMOOTH",
"407 409 OFFCURVE",
"458 353 OFFCURVE",
"458 273 CURVE SMOOTH",
"458 143 OFFCURVE",
"380 61 OFFCURVE",
"268 61 CURVE SMOOTH"
);
},
{
closed = 1;
nodes = (
"295 578 OFFCURVE",
"314 598 OFFCURVE",
"314 626 CURVE SMOOTH",
"314 647 OFFCURVE",
"300 665 OFFCURVE",
"273 665 CURVE SMOOTH",
"242 665 OFFCURVE",
"222 646 OFFCURVE",
"222 617 CURVE SMOOTH",
"222 594 OFFCURVE",
"236 578 OFFCURVE",
"263 578 CURVE SMOOTH"
);
},
{
closed = 1;
nodes = (
"483 578 OFFCURVE",
"502 598 OFFCURVE",
"502 626 CURVE SMOOTH",
"502 647 OFFCURVE",
"488 665 OFFCURVE",
"461 665 CURVE SMOOTH",
"430 665 OFFCURVE",
"410 646 OFFCURVE",
"410 617 CURVE SMOOTH",
"410 594 OFFCURVE",
"424 578 OFFCURVE",
"451 578 CURVE SMOOTH"
);
}
);
width = 590;
}
);
leftKerningGroup = _c1;
rightKerningGroup = _b;
unicode = 00F6;
},
{
glyphname = divide;
layers = (
{
layerId = "573A4E99-B1EA-4FCA-90B1-EE1ED57C0074";
paths = (
{
closed = 1;
nodes = (
"302 111 OFFCURVE",
"323 131 OFFCURVE",
"323 162 CURVE SMOOTH",
"323 185 OFFCURVE",
"308 201 OFFCURVE",
"281 201 CURVE SMOOTH",
"249 201 OFFCURVE",
"228 181 OFFCURVE",
"228 150 CURVE SMOOTH",
"228 127 OFFCURVE",
"243 111 OFFCURVE",
"270 111 CURVE SMOOTH"
);
},
{
closed = 1;
nodes = (
"513 300 LINE",
"525 368 LINE",
"101 368 LINE",
"89 300 LINE"
);
},
{
closed = 1;
nodes = (
"365 467 OFFCURVE",
"386 487 OFFCURVE",
"386 518 CURVE SMOOTH",
"386 541 OFFCURVE",
"371 557 OFFCURVE",
"344 557 CURVE SMOOTH",
"312 557 OFFCURVE",
"291 537 OFFCURVE",
"291 506 CURVE SMOOTH",
"291 483 OFFCURVE",
"306 467 OFFCURVE",
"333 467 CURVE SMOOTH"
);
}
);
width = 582;
}
);
unicode = 00F7;
},
{
glyphname = oslash;
layers = (
{
layerId = "573A4E99-B1EA-4FCA-90B1-EE1ED57C0074";
paths = (
{
closed = 1;
nodes = (
"42 -10 LINE",
"107 46 LINE",
"143 11 OFFCURVE",
"195 -10 OFFCURVE",
"260 -10 CURVE SMOOTH",
"426 -10 OFFCURVE",
"541 101 OFFCURVE",
"541 277 CURVE SMOOTH",
"541 320 OFFCURVE",
"530 358 OFFCURVE",
"509 391 CURVE",
"574 447 LINE",
"546 480 LINE",
"481 424 LINE",
"445 459 OFFCURVE",
"394 480 OFFCURVE",
"330 480 CURVE SMOOTH",
"164 480 OFFCURVE",
"49 369 OFFCURVE",
"49 193 CURVE SMOOTH",
"49 151 OFFCURVE",
"59 113 OFFCURVE",
"80 80 CURVE",
"14 23 LINE"
);
},
{
closed = 1;
nodes = (
"225 61 OFFCURVE",
"192 75 OFFCURVE",
"168 98 CURVE",
"445 336 LINE",
"454 319 OFFCURVE",
"458 298 OFFCURVE",
"458 273 CURVE SMOOTH",
"458 143 OFFCURVE",
"380 61 OFFCURVE",
"268 61 CURVE SMOOTH"
);
},
{
closed = 1;
nodes = (
"132 327 OFFCURVE",
"210 409 OFFCURVE",
"322 409 CURVE SMOOTH",
"363 409 OFFCURVE",
"397 395 OFFCURVE",
"420 372 CURVE",
"144 135 LINE",
"136 153 OFFCURVE",
"132 174 OFFCURVE",
"132 197 CURVE SMOOTH"
);
}
);
width = 590;
}
);
leftKerningGroup = _c1;
rightKerningGroup = _b;
unicode = 00F8;
},
{
glyphname = ugrave;
layers = (
{
layerId = "573A4E99-B1EA-4FCA-90B1-EE1ED57C0074";
paths = (
{
closed = 1;
nodes = (
"294 -10 OFFCURVE",
"342 10 OFFCURVE",
"382 61 CURVE",
"371 0 LINE",
"449 0 LINE",
"531 470 LINE",
"450 470 LINE",
"406 218 LINE",
"387 114 OFFCURVE",
"332 61 OFFCURVE",
"245 61 CURVE SMOOTH",
"180 61 OFFCURVE",
"147 88 OFFCURVE",
"147 149 CURVE SMOOTH",
"147 161 OFFCURVE",
"148 175 OFFCURVE",
"151 190 CURVE SMOOTH",
"200 470 LINE",
"119 470 LINE",
"68 181 LINE SMOOTH",
"65 162 OFFCURVE",
"63 145 OFFCURVE",
"63 129 CURVE SMOOTH",
"63 34 OFFCURVE",
"117 -10 OFFCURVE",
"218 -10 CURVE SMOOTH"
);
},
{
closed = 1;
nodes = (
"365 547 LINE",
"317 696 LINE",
"237 696 LINE",
"311 547 LINE"
);
}
);
width = 570;
}
);
leftKerningGroup = _u;
unicode = 00F9;
},
{
glyphname = uacute;
layers = (
{
layerId = "573A4E99-B1EA-4FCA-90B1-EE1ED57C0074";
paths = (
{
closed = 1;
nodes = (
"294 -10 OFFCURVE",
"342 10 OFFCURVE",
"382 61 CURVE",
"371 0 LINE",
"449 0 LINE",
"531 470 LINE",
"450 470 LINE",
"406 218 LINE",
"387 114 OFFCURVE",
"332 61 OFFCURVE",
"245 61 CURVE SMOOTH",
"180 61 OFFCURVE",
"147 88 OFFCURVE",
"147 149 CURVE SMOOTH",
"147 161 OFFCURVE",
"148 175 OFFCURVE",
"151 190 CURVE SMOOTH",
"200 470 LINE",
"119 470 LINE",
"68 181 LINE SMOOTH",
"65 162 OFFCURVE",
"63 145 OFFCURVE",
"63 129 CURVE SMOOTH",
"63 34 OFFCURVE",
"117 -10 OFFCURVE",
"218 -10 CURVE SMOOTH"
);
},
{
closed = 1;
nodes = (
"368 547 LINE",
"494 696 LINE",
"409 696 LINE",
"308 547 LINE"
);
}
);
width = 570;
}
);
leftKerningGroup = _u;
unicode = 00FA;
},
{
glyphname = ucircumflex;
layers = (
{
layerId = "573A4E99-B1EA-4FCA-90B1-EE1ED57C0074";
paths = (
{
closed = 1;
nodes = (
"294 -10 OFFCURVE",
"342 10 OFFCURVE",
"382 61 CURVE",
"371 0 LINE",
"449 0 LINE",
"531 470 LINE",
"450 470 LINE",
"406 218 LINE",
"387 114 OFFCURVE",
"332 61 OFFCURVE",
"245 61 CURVE SMOOTH",
"180 61 OFFCURVE",
"147 88 OFFCURVE",
"147 149 CURVE SMOOTH",
"147 161 OFFCURVE",
"148 175 OFFCURVE",
"151 190 CURVE SMOOTH",
"200 470 LINE",
"119 470 LINE",
"68 181 LINE SMOOTH",
"65 162 OFFCURVE",
"63 145 OFFCURVE",
"63 129 CURVE SMOOTH",
"63 34 OFFCURVE",
"117 -10 OFFCURVE",
"218 -10 CURVE SMOOTH"
);
},
{
closed = 1;
nodes = (
"479 547 LINE",
"403 696 LINE",
"325 696 LINE",
"197 547 LINE",
"267 547 LINE",
"361 651 LINE",
"419 547 LINE"
);
}
);
width = 570;
}
);
leftKerningGroup = _u;
unicode = 00FB;
},
{
glyphname = udieresis;
layers = (
{
layerId = "573A4E99-B1EA-4FCA-90B1-EE1ED57C0074";
paths = (
{
closed = 1;
nodes = (
"294 -10 OFFCURVE",
"342 10 OFFCURVE",
"382 61 CURVE",
"371 0 LINE",
"449 0 LINE",
"531 470 LINE",
"450 470 LINE",
"406 218 LINE",
"387 114 OFFCURVE",
"332 61 OFFCURVE",
"245 61 CURVE SMOOTH",
"180 61 OFFCURVE",
"147 88 OFFCURVE",
"147 149 CURVE SMOOTH",
"147 161 OFFCURVE",
"148 175 OFFCURVE",
"151 190 CURVE SMOOTH",
"200 470 LINE",
"119 470 LINE",
"68 181 LINE SMOOTH",
"65 162 OFFCURVE",
"63 145 OFFCURVE",
"63 129 CURVE SMOOTH",
"63 34 OFFCURVE",
"117 -10 OFFCURVE",
"218 -10 CURVE SMOOTH"
);
},
{
closed = 1;
nodes = (
"285 578 OFFCURVE",
"304 598 OFFCURVE",
"304 626 CURVE SMOOTH",
"304 647 OFFCURVE",
"290 665 OFFCURVE",
"263 665 CURVE SMOOTH",
"232 665 OFFCURVE",
"212 646 OFFCURVE",
"212 617 CURVE SMOOTH",
"212 594 OFFCURVE",
"226 578 OFFCURVE",
"253 578 CURVE SMOOTH"
);
},
{
closed = 1;
nodes = (
"473 578 OFFCURVE",
"492 598 OFFCURVE",
"492 626 CURVE SMOOTH",
"492 647 OFFCURVE",
"478 665 OFFCURVE",
"451 665 CURVE SMOOTH",
"420 665 OFFCURVE",
"400 646 OFFCURVE",
"400 617 CURVE SMOOTH",
"400 594 OFFCURVE",
"414 578 OFFCURVE",
"441 578 CURVE SMOOTH"
);
}
);
width = 570;
}
);
leftKerningGroup = _u;
unicode = 00FC;
},
{
glyphname = yacute;
layers = (
{
layerId = "573A4E99-B1EA-4FCA-90B1-EE1ED57C0074";
paths = (
{
closed = 1;
nodes = (
"116 -188 OFFCURVE",
"181 -146 OFFCURVE",
"266 0 CURVE SMOOTH",
"540 470 LINE",
"449 470 LINE",
"233 85 LINE",
"151 470 LINE",
"68 470 LINE",
"180 -7 LINE",
"124 -95 OFFCURVE",
"84 -118 OFFCURVE",
"41 -118 CURVE SMOOTH",
"14 -118 OFFCURVE",
"-11 -107 OFFCURVE",
"-32 -96 CURVE",
"-66 -157 LINE",
"-41 -176 OFFCURVE",
"-2 -188 OFFCURVE",
"34 -188 CURVE SMOOTH"
);
},
{
closed = 1;
nodes = (
"347 547 LINE",
"474 696 LINE",
"388 696 LINE",
"288 547 LINE"
);
}
);
width = 529;
}
);
leftKerningGroup = _v;
rightKerningGroup = _v;
unicode = 00FD;
},
{
glyphname = thorn;
layers = (
{
layerId = "573A4E99-B1EA-4FCA-90B1-EE1ED57C0074";
paths = (
{
closed = 1;
nodes = (
"451 -10 OFFCURVE",
"558 104 OFFCURVE",
"558 277 CURVE SMOOTH",
"558 393 OFFCURVE",
"484 480 OFFCURVE",
"364 480 CURVE SMOOTH",
"289 480 OFFCURVE",
"226 453 OFFCURVE",
"189 405 CURVE",
"235 668 LINE",
"154 668 LINE",
"5 -182 LINE",
"86 -182 LINE",
"132 81 LINE",
"159 24 OFFCURVE",
"214 -10 OFFCURVE",
"294 -10 CURVE SMOOTH"
);
},
{
closed = 1;
nodes = (
"202 61 OFFCURVE",
"154 117 OFFCURVE",
"154 197 CURVE SMOOTH",
"154 327 OFFCURVE",
"229 409 OFFCURVE",
"341 409 CURVE SMOOTH",
"426 409 OFFCURVE",
"475 353 OFFCURVE",
"475 273 CURVE SMOOTH",
"475 143 OFFCURVE",
"399 61 OFFCURVE",
"287 61 CURVE SMOOTH"
);
}
);
width = 607;
}
);
rightKerningGroup = _b;
unicode = 00FE;
},
{
glyphname = ydieresis;
layers = (
{
layerId = "573A4E99-B1EA-4FCA-90B1-EE1ED57C0074";
paths = (
{
closed = 1;
nodes = (
"116 -188 OFFCURVE",
"181 -146 OFFCURVE",
"266 0 CURVE SMOOTH",
"540 470 LINE",
"449 470 LINE",
"233 85 LINE",
"151 470 LINE",
"68 470 LINE",
"180 -7 LINE",
"124 -95 OFFCURVE",
"84 -118 OFFCURVE",
"41 -118 CURVE SMOOTH",
"14 -118 OFFCURVE",
"-11 -107 OFFCURVE",
"-32 -96 CURVE",
"-66 -157 LINE",
"-41 -176 OFFCURVE",
"-2 -188 OFFCURVE",
"34 -188 CURVE SMOOTH"
);
},
{
closed = 1;
nodes = (
"452 578 OFFCURVE",
"471 598 OFFCURVE",
"471 626 CURVE SMOOTH",
"471 647 OFFCURVE",
"457 665 OFFCURVE",
"430 665 CURVE SMOOTH",
"399 665 OFFCURVE",
"379 646 OFFCURVE",
"379 617 CURVE SMOOTH",
"379 594 OFFCURVE",
"393 578 OFFCURVE",
"420 578 CURVE SMOOTH"
);
},
{
closed = 1;
nodes = (
"264 578 OFFCURVE",
"283 598 OFFCURVE",
"283 626 CURVE SMOOTH",
"283 647 OFFCURVE",
"269 665 OFFCURVE",
"242 665 CURVE SMOOTH",
"211 665 OFFCURVE",
"191 646 OFFCURVE",
"191 617 CURVE SMOOTH",
"191 594 OFFCURVE",
"205 578 OFFCURVE",
"232 578 CURVE SMOOTH"
);
}
);
width = 529;
}
);
leftKerningGroup = _v;
rightKerningGroup = _v;
unicode = 00FF;
},
{
glyphname = dotlessi;
layers = (
{
layerId = "573A4E99-B1EA-4FCA-90B1-EE1ED57C0074";
paths = (
{
closed = 1;
nodes = (
"118 0 LINE",
"200 470 LINE",
"119 470 LINE",
"37 0 LINE"
);
}
);
width = 239;
}
);
leftKerningGroup = _m1;
unicode = 0131;
},
{
glyphname = Lslash;
layers = (
{
layerId = "573A4E99-B1EA-4FCA-90B1-EE1ED57C0074";
paths = (
{
closed = 1;
nodes = (
"446 0 LINE",
"458 76 LINE",
"139 76 LINE",
"183 326 LINE",
"382 398 LINE",
"392 450 LINE",
"192 377 LINE",
"243 668 LINE",
"157 668 LINE",
"101 344 LINE",
"22 316 LINE",
"13 264 LINE",
"91 292 LINE",
"40 0 LINE"
);
}
);
width = 533;
}
);
rightKerningGroup = _L;
unicode = 0141;
},
{
glyphname = lslash;
layers = (
{
layerId = "573A4E99-B1EA-4FCA-90B1-EE1ED57C0074";
paths = (
{
closed = 1;
nodes = (
"121 0 LINE",
"178 323 LINE",
"257 352 LINE",
"266 404 LINE",
"187 376 LINE",
"238 668 LINE",
"157 668 LINE",
"101 344 LINE",
"22 316 LINE",
"13 264 LINE",
"91 292 LINE",
"40 0 LINE"
);
}
);
width = 246;
}
);
unicode = 0142;
},
{
glyphname = OE;
layers = (
{
layerId = "573A4E99-B1EA-4FCA-90B1-EE1ED57C0074";
paths = (
{
closed = 1;
nodes = (
"955 0 LINE",
"968 74 LINE",
"598 74 LINE",
"640 309 LINE",
"979 309 LINE",
"991 379 LINE",
"652 379 LINE",
"690 594 LINE",
"1059 594 LINE",
"1072 668 LINE",
"464 668 LINE SMOOTH",
"204 668 OFFCURVE",
"65 530 OFFCURVE",
"65 277 CURVE SMOOTH",
"65 94 OFFCURVE",
"169 0 OFFCURVE",
"368 0 CURVE SMOOTH"
);
},
{
closed = 1;
nodes = (
"152 489 OFFCURVE",
"256 594 OFFCURVE",
"463 594 CURVE SMOOTH",
"603 594 LINE",
"512 74 LINE",
"382 74 LINE SMOOTH",
"226 74 OFFCURVE",
"152 130 OFFCURVE",
"152 279 CURVE SMOOTH"
);
}
);
width = 1052;
}
);
leftKerningGroup = _C1;
unicode = 0152;
},
{
glyphname = oe;
layers = (
{
layerId = "573A4E99-B1EA-4FCA-90B1-EE1ED57C0074";
paths = (
{
closed = 1;
nodes = (
"742 -10 OFFCURVE",
"803 11 OFFCURVE",
"858 52 CURVE",
"836 117 LINE",
"789 80 OFFCURVE",
"736 61 OFFCURVE",
"677 61 CURVE SMOOTH",
"593 61 OFFCURVE",
"534 101 OFFCURVE",
"534 189 CURVE SMOOTH",
"534 196 OFFCURVE",
"534 203 OFFCURVE",
"535 210 CURVE",
"888 210 LINE",
"905 234 OFFCURVE",
"914 270 OFFCURVE",
"914 293 CURVE SMOOTH",
"914 405 OFFCURVE",
"839 480 OFFCURVE",
"722 480 CURVE SMOOTH",
"637 480 OFFCURVE",
"560 444 OFFCURVE",
"512 376 CURVE",
"480 439 OFFCURVE",
"417 480 OFFCURVE",
"330 480 CURVE SMOOTH",
"164 480 OFFCURVE",
"49 369 OFFCURVE",
"49 193 CURVE SMOOTH",
"49 78 OFFCURVE",
"128 -10 OFFCURVE",
"260 -10 CURVE SMOOTH",
"353 -10 OFFCURVE",
"431 28 OFFCURVE",
"479 93 CURVE",
"511 30 OFFCURVE",
"574 -10 OFFCURVE",
"665 -10 CURVE SMOOTH"
);
},
{
closed = 1;
nodes = (
"183 61 OFFCURVE",
"132 117 OFFCURVE",
"132 197 CURVE SMOOTH",
"132 327 OFFCURVE",
"210 409 OFFCURVE",
"322 409 CURVE SMOOTH",
"407 409 OFFCURVE",
"458 353 OFFCURVE",
"458 273 CURVE SMOOTH",
"458 143 OFFCURVE",
"380 61 OFFCURVE",
"268 61 CURVE SMOOTH"
);
},
{
closed = 1;
nodes = (
"789 409 OFFCURVE",
"831 375 OFFCURVE",
"831 300 CURVE SMOOTH",
"831 291 OFFCURVE",
"830 284 OFFCURVE",
"828 278 CURVE",
"542 278 LINE",
"563 360 OFFCURVE",
"637 409 OFFCURVE",
"714 409 CURVE SMOOTH"
);
}
);
width = 962;
}
);
leftKerningGroup = _c1;
rightKerningGroup = _b;
unicode = 0153;
},
{
glyphname = Scaron;
layers = (
{
layerId = "573A4E99-B1EA-4FCA-90B1-EE1ED57C0074";
paths = (
{
closed = 1;
nodes = (
"425 -10 OFFCURVE",
"533 74 OFFCURVE",
"533 214 CURVE SMOOTH",
"533 285 OFFCURVE",
"491 352 OFFCURVE",
"395 371 CURVE SMOOTH",
"284 393 LINE SMOOTH",
"225 404 OFFCURVE",
"198 428 OFFCURVE",
"198 475 CURVE SMOOTH",
"198 555 OFFCURVE",
"260 602 OFFCURVE",
"363 602 CURVE SMOOTH",
"430 602 OFFCURVE",
"488 574 OFFCURVE",
"535 533 CURVE",
"581 596 LINE",
"524 652 OFFCURVE",
"438 678 OFFCURVE",
"362 678 CURVE SMOOTH",
"203 678 OFFCURVE",
"110 586 OFFCURVE",
"110 462 CURVE SMOOTH",
"110 390 OFFCURVE",
"154 332 OFFCURVE",
"251 313 CURVE SMOOTH",
"362 291 LINE SMOOTH",
"418 280 OFFCURVE",
"446 251 OFFCURVE",
"446 202 CURVE SMOOTH",
"446 111 OFFCURVE",
"373 66 OFFCURVE",
"262 66 CURVE SMOOTH",
"191 66 OFFCURVE",
"137 92 OFFCURVE",
"73 149 CURVE",
"26 87 LINE",
"86 20 OFFCURVE",
"170 -10 OFFCURVE",
"253 -10 CURVE SMOOTH"
);
},
{
closed = 1;
nodes = (
"423 739 LINE",
"551 888 LINE",
"481 888 LINE",
"387 784 LINE",
"330 888 LINE",
"269 888 LINE",
"345 739 LINE"
);
}
);
width = 592;
}
);
leftKerningGroup = _S;
rightKerningGroup = _S;
unicode = 0160;
},
{
glyphname = scaron;
layers = (
{
layerId = "573A4E99-B1EA-4FCA-90B1-EE1ED57C0074";
paths = (
{
closed = 1;
nodes = (
"343 -10 OFFCURVE",
"422 49 OFFCURVE",
"422 148 CURVE SMOOTH",
"422 208 OFFCURVE",
"389 253 OFFCURVE",
"305 269 CURVE SMOOTH",
"220 285 LINE SMOOTH",
"177 293 OFFCURVE",
"166 309 OFFCURVE",
"166 336 CURVE SMOOTH",
"166 384 OFFCURVE",
"210 409 OFFCURVE",
"279 409 CURVE SMOOTH",
"336 409 OFFCURVE",
"374 388 OFFCURVE",
"409 359 CURVE",
"452 419 LINE",
"412 458 OFFCURVE",
"354 480 OFFCURVE",
"282 480 CURVE SMOOTH",
"153 480 OFFCURVE",
"83 416 OFFCURVE",
"83 325 CURVE SMOOTH",
"83 271 OFFCURVE",
"113 225 OFFCURVE",
"195 209 CURVE SMOOTH",
"280 193 LINE SMOOTH",
"327 184 OFFCURVE",
"339 166 OFFCURVE",
"339 139 CURVE SMOOTH",
"339 90 OFFCURVE",
"293 61 OFFCURVE",
"212 61 CURVE SMOOTH",
"155 61 OFFCURVE",
"118 81 OFFCURVE",
"67 121 CURVE",
"22 58 LINE",
"73 14 OFFCURVE",
"132 -10 OFFCURVE",
"207 -10 CURVE SMOOTH"
);
},
{
closed = 1;
nodes = (
"337 547 LINE",
"465 696 LINE",
"395 696 LINE",
"301 592 LINE",
"244 696 LINE",
"183 696 LINE",
"259 547 LINE"
);
}
);
width = 490;
}
);
leftKerningGroup = _s;
rightKerningGroup = _s;
unicode = 0161;
},
{
glyphname = Ydieresis;
layers = (
{
layerId = "573A4E99-B1EA-4FCA-90B1-EE1ED57C0074";
paths = (
{
closed = 1;
nodes = (
"340 0 LINE",
"386 260 LINE",
"725 668 LINE",
"619 668 LINE",
"351 340 LINE",
"198 668 LINE",
"103 668 LINE",
"300 260 LINE",
"255 0 LINE"
);
},
{
closed = 1;
nodes = (
"374 770 OFFCURVE",
"393 790 OFFCURVE",
"393 818 CURVE SMOOTH",
"393 839 OFFCURVE",
"379 857 OFFCURVE",
"352 857 CURVE SMOOTH",
"321 857 OFFCURVE",
"301 838 OFFCURVE",
"301 809 CURVE SMOOTH",
"301 786 OFFCURVE",
"315 770 OFFCURVE",
"342 770 CURVE SMOOTH"
);
},
{
closed = 1;
nodes = (
"562 770 OFFCURVE",
"581 790 OFFCURVE",
"581 818 CURVE SMOOTH",
"581 839 OFFCURVE",
"567 857 OFFCURVE",
"540 857 CURVE SMOOTH",
"509 857 OFFCURVE",
"489 838 OFFCURVE",
"489 809 CURVE SMOOTH",
"489 786 OFFCURVE",
"503 770 OFFCURVE",
"530 770 CURVE SMOOTH"
);
}
);
width = 679;
}
);
leftKerningGroup = _Y;
rightKerningGroup = _Y;
unicode = 0178;
},
{
glyphname = Zcaron;
layers = (
{
layerId = "573A4E99-B1EA-4FCA-90B1-EE1ED57C0074";
paths = (
{
closed = 1;
nodes = (
"483 0 LINE",
"496 76 LINE",
"123 76 LINE",
"578 600 LINE",
"590 668 LINE",
"128 668 LINE",
"115 592 LINE",
"468 592 LINE",
"13 68 LINE",
"1 0 LINE"
);
},
{
closed = 1;
nodes = (
"411 739 LINE",
"540 888 LINE",
"469 888 LINE",
"375 784 LINE",
"318 888 LINE",
"258 888 LINE",
"333 739 LINE"
);
}
);
width = 568;
}
);
leftKerningGroup = _Z;
rightKerningGroup = _Z;
unicode = 017D;
},
{
glyphname = zcaron;
layers = (
{
layerId = "573A4E99-B1EA-4FCA-90B1-EE1ED57C0074";
paths = (
{
closed = 1;
nodes = (
"375 0 LINE",
"387 70 LINE",
"110 70 LINE",
"436 408 LINE",
"447 470 LINE",
"93 470 LINE",
"81 400 LINE",
"339 400 LINE",
"12 62 LINE",
"1 0 LINE"
);
},
{
closed = 1;
nodes = (
"322 547 LINE",
"451 696 LINE",
"380 696 LINE",
"286 592 LINE",
"229 696 LINE",
"169 696 LINE",
"244 547 LINE"
);
}
);
width = 460;
}
);
leftKerningGroup = _z;
rightKerningGroup = _z;
unicode = 017E;
},
{
glyphname = florin;
layers = (
{
layerId = "573A4E99-B1EA-4FCA-90B1-EE1ED57C0074";
paths = (
{
closed = 1;
nodes = (
"117 -188 OFFCURVE",
"180 -145 OFFCURVE",
"213 -50 CURVE SMOOTH",
"337 302 LINE",
"489 302 LINE",
"501 372 LINE",
"361 372 LINE",
"417 530 LINE SMOOTH",
"434 579 OFFCURVE",
"467 604 OFFCURVE",
"516 604 CURVE SMOOTH",
"532 604 OFFCURVE",
"567 602 OFFCURVE",
"577 600 CURVE",
"589 666 LINE",
"576 671 OFFCURVE",
"549 674 OFFCURVE",
"525 674 CURVE SMOOTH",
"432 674 OFFCURVE",
"371 631 OFFCURVE",
"338 536 CURVE SMOOTH",
"280 372 LINE",
"128 372 LINE",
"116 302 LINE",
"256 302 LINE",
"134 -44 LINE SMOOTH",
"117 -93 OFFCURVE",
"84 -118 OFFCURVE",
"35 -118 CURVE SMOOTH",
"19 -118 OFFCURVE",
"-16 -117 OFFCURVE",
"-28 -114 CURVE",
"-39 -180 LINE",
"-26 -185 OFFCURVE",
"0 -188 OFFCURVE",
"24 -188 CURVE SMOOTH"
);
}
);
width = 549;
}
);
unicode = 0192;
},
{
glyphname = circumflex;
layers = (
{
anchors = (
{
name = _top;
position = "{347, 510}";
}
);
layerId = "573A4E99-B1EA-4FCA-90B1-EE1ED57C0074";
paths = (
{
closed = 1;
nodes = (
"494 547 LINE",
"418 696 LINE",
"340 696 LINE",
"212 547 LINE",
"282 547 LINE",
"376 651 LINE",
"434 547 LINE"
);
}
);
width = 600;
}
);
unicode = 02C6;
},
{
glyphname = caron;
layers = (
{
anchors = (
{
name = _top;
position = "{347, 510}";
}
);
layerId = "573A4E99-B1EA-4FCA-90B1-EE1ED57C0074";
paths = (
{
closed = 1;
nodes = (
"392 547 LINE",
"520 696 LINE",
"450 696 LINE",
"356 592 LINE",
"299 696 LINE",
"238 696 LINE",
"314 547 LINE"
);
}
);
width = 600;
}
);
unicode = 02C7;
},
{
glyphname = breve;
layers = (
{
anchors = (
{
name = _top;
position = "{347, 510}";
}
);
layerId = "573A4E99-B1EA-4FCA-90B1-EE1ED57C0074";
paths = (
{
closed = 1;
nodes = (
"450 537 OFFCURVE",
"488 589 OFFCURVE",
"504 663 CURVE",
"510 696 LINE",
"456 696 LINE",
"449 663 LINE SMOOTH",
"441 620 OFFCURVE",
"412 592 OFFCURVE",
"361 592 CURVE SMOOTH",
"318 592 OFFCURVE",
"294 613 OFFCURVE",
"294 646 CURVE SMOOTH",
"294 651 OFFCURVE",
"295 656 OFFCURVE",
"296 663 CURVE SMOOTH",
"303 696 LINE",
"248 696 LINE",
"242 663 LINE SMOOTH",
"240 653 OFFCURVE",
"239 644 OFFCURVE",
"239 636 CURVE SMOOTH",
"239 576 OFFCURVE",
"282 537 OFFCURVE",
"357 537 CURVE SMOOTH"
);
}
);
width = 600;
}
);
unicode = 02D8;
},
{
glyphname = dotaccent;
layers = (
{
anchors = (
{
name = _top;
position = "{347, 510}";
}
);
layerId = "573A4E99-B1EA-4FCA-90B1-EE1ED57C0074";
paths = (
{
closed = 1;
nodes = (
"394 578 OFFCURVE",
"413 598 OFFCURVE",
"413 626 CURVE SMOOTH",
"413 647 OFFCURVE",
"399 665 OFFCURVE",
"372 665 CURVE SMOOTH",
"341 665 OFFCURVE",
"321 646 OFFCURVE",
"321 617 CURVE SMOOTH",
"321 594 OFFCURVE",
"335 578 OFFCURVE",
"362 578 CURVE SMOOTH"
);
}
);
width = 600;
}
);
unicode = 02D9;
},
{
glyphname = ring;
layers = (
{
anchors = (
{
name = _top;
position = "{347, 510}";
}
);
layerId = "573A4E99-B1EA-4FCA-90B1-EE1ED57C0074";
paths = (
{
closed = 1;
nodes = (
"432 517 OFFCURVE",
"481 568 OFFCURVE",
"481 636 CURVE SMOOTH",
"481 687 OFFCURVE",
"443 726 OFFCURVE",
"379 726 CURVE SMOOTH",
"300 726 OFFCURVE",
"251 675 OFFCURVE",
"251 607 CURVE SMOOTH",
"251 556 OFFCURVE",
"289 517 OFFCURVE",
"353 517 CURVE SMOOTH"
);
},
{
closed = 1;
nodes = (
"319 557 OFFCURVE",
"298 583 OFFCURVE",
"298 614 CURVE SMOOTH",
"298 655 OFFCURVE",
"330 686 OFFCURVE",
"374 686 CURVE SMOOTH",
"413 686 OFFCURVE",
"434 660 OFFCURVE",
"434 629 CURVE SMOOTH",
"434 588 OFFCURVE",
"402 557 OFFCURVE",
"358 557 CURVE SMOOTH"
);
}
);
width = 600;
}
);
unicode = 02DA;
},
{
glyphname = ogonek;
layers = (
{
layerId = "573A4E99-B1EA-4FCA-90B1-EE1ED57C0074";
paths = (
{
closed = 1;
nodes = (
"260 -188 OFFCURVE",
"281 -185 OFFCURVE",
"304 -178 CURVE",
"312 -133 LINE",
"293 -136 OFFCURVE",
"268 -138 OFFCURVE",
"251 -138 CURVE SMOOTH",
"228 -138 OFFCURVE",
"216 -129 OFFCURVE",
"216 -112 CURVE SMOOTH",
"216 -75 OFFCURVE",
"271 -32 OFFCURVE",
"336 0 CURVE",
"282 0 LINE",
"211 -31 OFFCURVE",
"158 -76 OFFCURVE",
"158 -128 CURVE SMOOTH",
"158 -168 OFFCURVE",
"188 -188 OFFCURVE",
"241 -188 CURVE SMOOTH"
);
}
);
width = 600;
}
);
unicode = 02DB;
},
{
glyphname = tilde;
layers = (
{
anchors = (
{
name = _top;
position = "{347, 510}";
}
);
layerId = "573A4E99-B1EA-4FCA-90B1-EE1ED57C0074";
paths = (
{
closed = 1;
nodes = (
"484 560 OFFCURVE",
"517 595 OFFCURVE",
"528 683 CURVE",
"477 683 LINE",
"464 631 OFFCURVE",
"451 615 OFFCURVE",
"428 615 CURVE SMOOTH",
"391 615 OFFCURVE",
"365 683 OFFCURVE",
"301 683 CURVE SMOOTH",
"248 683 OFFCURVE",
"215 648 OFFCURVE",
"204 560 CURVE",
"255 560 LINE",
"268 612 OFFCURVE",
"281 628 OFFCURVE",
"304 628 CURVE SMOOTH",
"340 628 OFFCURVE",
"368 560 OFFCURVE",
"431 560 CURVE SMOOTH"
);
}
);
width = 600;
}
);
unicode = 02DC;
},
{
glyphname = hungarumlaut;
layers = (
{
anchors = (
{
name = _top;
position = "{307, 510}";
}
);
layerId = "573A4E99-B1EA-4FCA-90B1-EE1ED57C0074";
paths = (
{
closed = 1;
nodes = (
"262 547 LINE",
"389 696 LINE",
"303 696 LINE",
"203 547 LINE"
);
},
{
closed = 1;
nodes = (
"423 547 LINE",
"549 696 LINE",
"464 696 LINE",
"364 547 LINE"
);
}
);
width = 600;
}
);
unicode = 02DD;
},
{
glyphname = pi;
layers = (
{
layerId = "573A4E99-B1EA-4FCA-90B1-EE1ED57C0074";
paths = (
{
closed = 1;
nodes = (
"500 0 LINE",
"570 400 LINE",
"674 400 LINE",
"686 470 LINE",
"65 470 LINE",
"53 400 LINE",
"158 400 LINE",
"88 0 LINE",
"169 0 LINE",
"239 400 LINE",
"489 400 LINE",
"419 0 LINE"
);
}
);
width = 671;
}
);
unicode = 03C0;
},
{
glyphname = endash;
layers = (
{
layerId = "573A4E99-B1EA-4FCA-90B1-EE1ED57C0074";
paths = (
{
closed = 1;
nodes = (
"518 253 LINE",
"529 319 LINE",
"66 319 LINE",
"54 253 LINE"
);
}
);
width = 568;
}
);
leftKerningGroup = _hypen;
rightKerningGroup = _hypen;
unicode = 2013;
},
{
glyphname = emdash;
layers = (
{
layerId = "573A4E99-B1EA-4FCA-90B1-EE1ED57C0074";
paths = (
{
closed = 1;
nodes = (
"748 253 LINE",
"759 319 LINE",
"66 319 LINE",
"54 253 LINE"
);
}
);
width = 798;
}
);
leftKerningGroup = _hypen;
rightKerningGroup = _hypen;
unicode = 2014;
},
{
glyphname = quoteleft;
layers = (
{
layerId = "573A4E99-B1EA-4FCA-90B1-EE1ED57C0074";
paths = (
{
closed = 1;
nodes = (
"197 432 LINE",
"210 510 LINE SMOOTH",
"219 562 OFFCURVE",
"239 604 OFFCURVE",
"272 647 CURVE",
"228 668 LINE",
"172 631 OFFCURVE",
"148 585 OFFCURVE",
"135 510 CURVE SMOOTH",
"122 432 LINE"
);
}
);
width = 251;
}
);
leftKerningGroup = _quoteleft;
rightKerningGroup = _quoteleft;
unicode = 2018;
},
{
glyphname = quoteright;
layers = (
{
layerId = "573A4E99-B1EA-4FCA-90B1-EE1ED57C0074";
paths = (
{
closed = 1;
nodes = (
"131 432 LINE",
"187 469 OFFCURVE",
"211 515 OFFCURVE",
"224 590 CURVE SMOOTH",
"238 668 LINE",
"163 668 LINE",
"149 590 LINE SMOOTH",
"140 538 OFFCURVE",
"120 496 OFFCURVE",
"87 453 CURVE"
);
}
);
width = 251;
}
);
leftKerningGroup = _quoteright;
rightKerningGroup = _quoteright;
unicode = 2019;
},
{
glyphname = quotesinglbase;
layers = (
{
layerId = "573A4E99-B1EA-4FCA-90B1-EE1ED57C0074";
paths = (
{
closed = 1;
nodes = (
"29 -152 LINE",
"85 -115 OFFCURVE",
"108 -69 OFFCURVE",
"121 6 CURVE SMOOTH",
"135 84 LINE",
"60 84 LINE",
"47 6 LINE SMOOTH",
"38 -46 OFFCURVE",
"17 -88 OFFCURVE",
"-15 -131 CURVE"
);
}
);
width = 251;
}
);
leftKerningGroup = _comma;
rightKerningGroup = _comma;
unicode = 201A;
},
{
glyphname = quotedblleft;
layers = (
{
layerId = "573A4E99-B1EA-4FCA-90B1-EE1ED57C0074";
paths = (
{
closed = 1;
nodes = (
"197 432 LINE",
"210 510 LINE SMOOTH",
"219 562 OFFCURVE",
"239 604 OFFCURVE",
"272 647 CURVE",
"228 668 LINE",
"172 631 OFFCURVE",
"148 585 OFFCURVE",
"135 510 CURVE SMOOTH",
"122 432 LINE"
);
},
{
closed = 1;
nodes = (
"366 432 LINE",
"379 510 LINE SMOOTH",
"388 562 OFFCURVE",
"409 604 OFFCURVE",
"441 647 CURVE",
"398 668 LINE",
"342 631 OFFCURVE",
"318 585 OFFCURVE",
"305 510 CURVE SMOOTH",
"291 432 LINE"
);
}
);
width = 420;
}
);
leftKerningGroup = _quoteleft;
rightKerningGroup = _quoteleft;
unicode = 201C;
},
{
glyphname = quotedblright;
layers = (
{
layerId = "573A4E99-B1EA-4FCA-90B1-EE1ED57C0074";
paths = (
{
closed = 1;
nodes = (
"131 432 LINE",
"187 469 OFFCURVE",
"211 515 OFFCURVE",
"224 590 CURVE SMOOTH",
"238 668 LINE",
"163 668 LINE",
"149 590 LINE SMOOTH",
"140 538 OFFCURVE",
"120 496 OFFCURVE",
"87 453 CURVE"
);
},
{
closed = 1;
nodes = (
"300 432 LINE",
"356 469 OFFCURVE",
"380 515 OFFCURVE",
"393 590 CURVE SMOOTH",
"407 668 LINE",
"332 668 LINE",
"318 590 LINE SMOOTH",
"309 538 OFFCURVE",
"289 496 OFFCURVE",
"257 453 CURVE"
);
}
);
width = 420;
}
);
leftKerningGroup = _quoteright;
rightKerningGroup = _quoteright;
unicode = 201D;
},
{
glyphname = quotedblbase;
layers = (
{
layerId = "573A4E99-B1EA-4FCA-90B1-EE1ED57C0074";
paths = (
{
closed = 1;
nodes = (
"29 -152 LINE",
"85 -115 OFFCURVE",
"108 -69 OFFCURVE",
"121 6 CURVE SMOOTH",
"135 84 LINE",
"60 84 LINE",
"47 6 LINE SMOOTH",
"38 -46 OFFCURVE",
"17 -88 OFFCURVE",
"-15 -131 CURVE"
);
},
{
closed = 1;
nodes = (
"198 -152 LINE",
"254 -115 OFFCURVE",
"278 -69 OFFCURVE",
"291 6 CURVE SMOOTH",
"304 84 LINE",
"230 84 LINE",
"216 6 LINE SMOOTH",
"207 -46 OFFCURVE",
"187 -88 OFFCURVE",
"154 -131 CURVE"
);
}
);
width = 420;
}
);
leftKerningGroup = _comma;
rightKerningGroup = _comma;
unicode = 201E;
},
{
glyphname = dagger;
layers = (
{
layerId = "573A4E99-B1EA-4FCA-90B1-EE1ED57C0074";
paths = (
{
closed = 1;
nodes = (
"237 -100 LINE",
"331 437 LINE",
"494 437 LINE",
"506 502 LINE",
"343 502 LINE",
"372 668 LINE",
"300 668 LINE",
"271 502 LINE",
"108 502 LINE",
"97 437 LINE",
"259 437 LINE",
"165 -100 LINE"
);
}
);
width = 522;
}
);
unicode = 2020;
},
{
glyphname = daggerdbl;
layers = (
{
layerId = "573A4E99-B1EA-4FCA-90B1-EE1ED57C0074";
paths = (
{
closed = 1;
nodes = (
"237 -100 LINE",
"266 66 LINE",
"429 66 LINE",
"440 131 LINE",
"277 131 LINE",
"331 437 LINE",
"494 437 LINE",
"506 502 LINE",
"343 502 LINE",
"372 668 LINE",
"300 668 LINE",
"271 502 LINE",
"108 502 LINE",
"97 437 LINE",
"259 437 LINE",
"206 131 LINE",
"43 131 LINE",
"31 66 LINE",
"194 66 LINE",
"165 -100 LINE"
);
}
);
width = 522;
}
);
unicode = 2021;
},
{
glyphname = bullet;
layers = (
{
layerId = "573A4E99-B1EA-4FCA-90B1-EE1ED57C0074";
paths = (
{
closed = 1;
nodes = (
"272 177 OFFCURVE",
"322 225 OFFCURVE",
"322 300 CURVE SMOOTH",
"322 355 OFFCURVE",
"284 395 OFFCURVE",
"220 395 CURVE SMOOTH",
"143 395 OFFCURVE",
"91 347 OFFCURVE",
"91 272 CURVE SMOOTH",
"91 217 OFFCURVE",
"129 177 OFFCURVE",
"193 177 CURVE SMOOTH"
);
}
);
width = 360;
}
);
unicode = 2022;
},
{
glyphname = ellipsis;
layers = (
{
layerId = "573A4E99-B1EA-4FCA-90B1-EE1ED57C0074";
paths = (
{
closed = 1;
nodes = (
"119 -6 OFFCURVE",
"141 16 OFFCURVE",
"141 49 CURVE SMOOTH",
"141 73 OFFCURVE",
"125 91 OFFCURVE",
"96 91 CURVE SMOOTH",
"61 91 OFFCURVE",
"39 69 OFFCURVE",
"39 36 CURVE SMOOTH",
"39 12 OFFCURVE",
"56 -6 OFFCURVE",
"84 -6 CURVE SMOOTH"
);
},
{
closed = 1;
nodes = (
"365 -6 OFFCURVE",
"388 16 OFFCURVE",
"388 49 CURVE SMOOTH",
"388 73 OFFCURVE",
"371 91 OFFCURVE",
"343 91 CURVE SMOOTH",
"308 91 OFFCURVE",
"285 69 OFFCURVE",
"285 36 CURVE SMOOTH",
"285 12 OFFCURVE",
"302 -6 OFFCURVE",
"330 -6 CURVE SMOOTH"
);
},
{
closed = 1;
nodes = (
"612 -6 OFFCURVE",
"634 16 OFFCURVE",
"634 49 CURVE SMOOTH",
"634 73 OFFCURVE",
"618 91 OFFCURVE",
"589 91 CURVE SMOOTH",
"554 91 OFFCURVE",
"532 69 OFFCURVE",
"532 36 CURVE SMOOTH",
"532 12 OFFCURVE",
"549 -6 OFFCURVE",
"577 -6 CURVE SMOOTH"
);
}
);
width = 739;
}
);
leftKerningGroup = _comma;
rightKerningGroup = _comma;
unicode = 2026;
},
{
glyphname = perthousand;
layers = (
{
layerId = "573A4E99-B1EA-4FCA-90B1-EE1ED57C0074";
paths = (
{
closed = 1;
nodes = (
"357 268 OFFCURVE",
"414 400 OFFCURVE",
"414 519 CURVE SMOOTH",
"414 608 OFFCURVE",
"368 674 OFFCURVE",
"281 674 CURVE SMOOTH",
"148 674 OFFCURVE",
"88 542 OFFCURVE",
"88 423 CURVE SMOOTH",
"88 334 OFFCURVE",
"134 268 OFFCURVE",
"221 268 CURVE SMOOTH"
);
},
{
closed = 1;
nodes = (
"182 323 OFFCURVE",
"156 360 OFFCURVE",
"156 424 CURVE SMOOTH",
"156 513 OFFCURVE",
"193 619 OFFCURVE",
"277 619 CURVE SMOOTH",
"320 619 OFFCURVE",
"346 582 OFFCURVE",
"346 518 CURVE SMOOTH",
"346 429 OFFCURVE",
"309 323 OFFCURVE",
"225 323 CURVE SMOOTH"
);
},
{
closed = 1;
nodes = (
"294 0 LINE",
"762 668 LINE",
"691 668 LINE",
"223 0 LINE"
);
},
{
closed = 1;
nodes = (
"837 -6 OFFCURVE",
"897 126 OFFCURVE",
"897 245 CURVE SMOOTH",
"897 334 OFFCURVE",
"851 400 OFFCURVE",
"764 400 CURVE SMOOTH",
"631 400 OFFCURVE",
"571 268 OFFCURVE",
"571 149 CURVE SMOOTH",
"571 60 OFFCURVE",
"617 -6 OFFCURVE",
"704 -6 CURVE SMOOTH"
);
},
{
closed = 1;
nodes = (
"665 49 OFFCURVE",
"639 86 OFFCURVE",
"639 150 CURVE SMOOTH",
"639 239 OFFCURVE",
"676 345 OFFCURVE",
"760 345 CURVE SMOOTH",
"803 345 OFFCURVE",
"829 308 OFFCURVE",
"829 244 CURVE SMOOTH",
"829 155 OFFCURVE",
"792 49 OFFCURVE",
"708 49 CURVE SMOOTH"
);
},
{
closed = 1;
nodes = (
"1217 -6 OFFCURVE",
"1277 126 OFFCURVE",
"1277 245 CURVE SMOOTH",
"1277 334 OFFCURVE",
"1231 400 OFFCURVE",
"1144 400 CURVE SMOOTH",
"1011 400 OFFCURVE",
"951 268 OFFCURVE",
"951 149 CURVE SMOOTH",
"951 60 OFFCURVE",
"997 -6 OFFCURVE",
"1084 -6 CURVE SMOOTH"
);
},
{
closed = 1;
nodes = (
"1045 49 OFFCURVE",
"1019 86 OFFCURVE",
"1019 150 CURVE SMOOTH",
"1019 239 OFFCURVE",
"1056 345 OFFCURVE",
"1140 345 CURVE SMOOTH",
"1183 345 OFFCURVE",
"1209 308 OFFCURVE",
"1209 244 CURVE SMOOTH",
"1209 155 OFFCURVE",
"1172 49 OFFCURVE",
"1088 49 CURVE SMOOTH"
);
}
);
width = 1332;
}
);
unicode = 2030;
},
{
glyphname = guilsinglleft;
layers = (
{
layerId = "573A4E99-B1EA-4FCA-90B1-EE1ED57C0074";
paths = (
{
closed = 1;
nodes = (
"205 113 LINE",
"136 286 LINE",
"267 461 LINE",
"191 461 LINE",
"60 286 LINE",
"129 113 LINE"
);
}
);
width = 280;
}
);
unicode = 2039;
},
{
glyphname = guilsinglright;
layers = (
{
layerId = "573A4E99-B1EA-4FCA-90B1-EE1ED57C0074";
paths = (
{
closed = 1;
nodes = (
"105 113 LINE",
"236 286 LINE",
"167 461 LINE",
"91 461 LINE",
"160 286 LINE",
"29 113 LINE"
);
}
);
width = 280;
}
);
unicode = 203A;
},
{
glyphname = fraction;
layers = (
{
layerId = "573A4E99-B1EA-4FCA-90B1-EE1ED57C0074";
paths = (
{
closed = 1;
nodes = (
"-76 0 LINE",
"396 668 LINE",
"330 668 LINE",
"-142 0 LINE"
);
}
);
width = 221;
}
);
unicode = 2044;
},
{
glyphname = Euro;
layers = (
{
layerId = "573A4E99-B1EA-4FCA-90B1-EE1ED57C0074";
paths = (
{
closed = 1;
nodes = (
"419 -10 OFFCURVE",
"485 14 OFFCURVE",
"562 78 CURVE",
"541 139 LINE",
"466 82 OFFCURVE",
"412 61 OFFCURVE",
"348 61 CURVE SMOOTH",
"256 61 OFFCURVE",
"192 117 OFFCURVE",
"183 228 CURVE",
"373 228 LINE",
"406 280 LINE",
"179 280 LINE",
"180 317 OFFCURVE",
"184 353 OFFCURVE",
"195 388 CURVE",
"474 388 LINE",
"506 440 LINE",
"216 440 LINE",
"256 538 OFFCURVE",
"334 607 OFFCURVE",
"438 607 CURVE SMOOTH",
"503 607 OFFCURVE",
"555 586 OFFCURVE",
"612 529 CURVE",
"651 584 LINE",
"595 651 OFFCURVE",
"521 678 OFFCURVE",
"441 678 CURVE SMOOTH",
"287 678 OFFCURVE",
"172 578 OFFCURVE",
"122 440 CURVE",
"67 440 LINE",
"59 388 LINE",
"106 388 LINE",
"97 354 OFFCURVE",
"92 318 OFFCURVE",
"91 280 CURVE",
"39 280 LINE",
"30 228 LINE",
"92 228 LINE",
"103 85 OFFCURVE",
"199 -10 OFFCURVE",
"339 -10 CURVE SMOOTH"
);
}
);
width = 642;
}
);
unicode = 20AC;
},
{
glyphname = trademark;
layers = (
{
layerId = "573A4E99-B1EA-4FCA-90B1-EE1ED57C0074";
paths = (
{
closed = 1;
nodes = (
"167 426 LINE",
"202 629 LINE",
"272 629 LINE",
"279 668 LINE",
"96 668 LINE",
"89 629 LINE",
"159 629 LINE",
"124 426 LINE"
);
},
{
closed = 1;
nodes = (
"542 426 LINE",
"584 668 LINE",
"514 668 LINE",
"416 485 LINE",
"382 668 LINE",
"316 668 LINE",
"274 426 LINE",
"318 426 LINE",
"351 621 LINE",
"388 426 LINE",
"429 426 LINE",
"533 621 LINE",
"498 426 LINE"
);
}
);
width = 559;
}
);
unicode = 2122;
},
{
glyphname = Omega;
layers = (
{
layerId = "573A4E99-B1EA-4FCA-90B1-EE1ED57C0074";
paths = (
{
closed = 1;
nodes = (
"676 0 LINE",
"688 76 LINE",
"505 76 LINE",
"647 116 OFFCURVE",
"749 214 OFFCURVE",
"749 401 CURVE SMOOTH",
"749 564 OFFCURVE",
"629 678 OFFCURVE",
"456 678 CURVE SMOOTH",
"219 678 OFFCURVE",
"63 530 OFFCURVE",
"63 295 CURVE SMOOTH",
"63 190 OFFCURVE",
"133 111 OFFCURVE",
"216 76 CURVE",
"33 76 LINE",
"20 0 LINE",
"298 0 LINE",
"311 76 LINE",
"206 117 OFFCURVE",
"151 189 OFFCURVE",
"151 285 CURVE SMOOTH",
"151 489 OFFCURVE",
"268 602 OFFCURVE",
"448 602 CURVE SMOOTH",
"576 602 OFFCURVE",
"661 516 OFFCURVE",
"661 383 CURVE SMOOTH",
"661 226 OFFCURVE",
"576 121 OFFCURVE",
"411 76 CURVE",
"398 0 LINE"
);
}
);
width = 780;
}
);
unicode = 2126;
},
{
glyphname = partialdiff;
layers = (
{
layerId = "573A4E99-B1EA-4FCA-90B1-EE1ED57C0074";
paths = (
{
closed = 1;
nodes = (
"460 -10 OFFCURVE",
"605 251 OFFCURVE",
"605 463 CURVE SMOOTH",
"605 595 OFFCURVE",
"525 678 OFFCURVE",
"400 678 CURVE SMOOTH",
"319 678 OFFCURVE",
"261 652 OFFCURVE",
"188 588 CURVE",
"201 531 LINE",
"268 583 OFFCURVE",
"320 607 OFFCURVE",
"383 607 CURVE SMOOTH",
"463 607 OFFCURVE",
"522 564 OFFCURVE",
"522 464 CURVE SMOOTH",
"522 429 OFFCURVE",
"517 375 OFFCURVE",
"502 335 CURVE",
"486 391 OFFCURVE",
"411 431 OFFCURVE",
"325 431 CURVE SMOOTH",
"173 431 OFFCURVE",
"38 336 OFFCURVE",
"38 163 CURVE SMOOTH",
"38 67 OFFCURVE",
"103 -10 OFFCURVE",
"221 -10 CURVE SMOOTH"
);
},
{
closed = 1;
nodes = (
"166 61 OFFCURVE",
"121 104 OFFCURVE",
"121 171 CURVE SMOOTH",
"121 286 OFFCURVE",
"208 366 OFFCURVE",
"331 366 CURVE SMOOTH",
"415 366 OFFCURVE",
"477 320 OFFCURVE",
"477 269 CURVE",
"434 149 OFFCURVE",
"340 61 OFFCURVE",
"235 61 CURVE SMOOTH"
);
}
);
width = 620;
}
);
unicode = 2202;
},
{
glyphname = Delta;
layers = (
{
layerId = "573A4E99-B1EA-4FCA-90B1-EE1ED57C0074";
paths = (
{
closed = 1;
nodes = (
"628 0 LINE",
"470 668 LINE",
"377 668 LINE",
"-14 0 LINE"
);
},
{
closed = 1;
nodes = (
"524 76 LINE",
"127 76 LINE",
"413 575 LINE"
);
}
);
width = 699;
}
);
leftKerningGroup = _A1;
rightKerningGroup = _A;
unicode = 2206;
},
{
glyphname = product;
layers = (
{
layerId = "573A4E99-B1EA-4FCA-90B1-EE1ED57C0074";
paths = (
{
closed = 1;
nodes = (
"416 -182 LINE",
"566 668 LINE",
"154 668 LINE",
"4 -182 LINE",
"85 -182 LINE",
"223 597 LINE",
"473 597 LINE",
"335 -182 LINE"
);
}
);
width = 570;
}
);
unicode = 220F;
},
{
glyphname = summation;
layers = (
{
layerId = "573A4E99-B1EA-4FCA-90B1-EE1ED57C0074";
paths = (
{
closed = 1;
nodes = (
"342 -182 LINE",
"355 -112 LINE",
"69 -112 LINE",
"313 243 LINE",
"194 598 LINE",
"480 598 LINE",
"492 668 LINE",
"118 668 LINE",
"108 608 LINE",
"229 243 LINE",
"-21 -122 LINE",
"-31 -182 LINE"
);
}
);
width = 460;
}
);
unicode = 2211;
},
{
glyphname = minus;
layers = (
{
layerId = "573A4E99-B1EA-4FCA-90B1-EE1ED57C0074";
paths = (
{
closed = 1;
nodes = (
"513 300 LINE",
"525 368 LINE",
"101 368 LINE",
"89 300 LINE"
);
}
);
width = 582;
}
);
leftKerningGroup = _plus;
rightKerningGroup = _plus;
unicode = 2212;
},
{
glyphname = radical;
layers = (
{
layerId = "573A4E99-B1EA-4FCA-90B1-EE1ED57C0074";
paths = (
{
closed = 1;
nodes = (
"240 -182 LINE",
"725 668 LINE",
"633 668 LINE",
"207 -97 LINE",
"149 183 LINE",
"25 183 LINE",
"13 118 LINE",
"87 118 LINE",
"152 -182 LINE"
);
}
);
width = 679;
}
);
unicode = 221A;
},
{
glyphname = infinity;
layers = (
{
layerId = "573A4E99-B1EA-4FCA-90B1-EE1ED57C0074";
paths = (
{
closed = 1;
nodes = (
"684 166 OFFCURVE",
"769 238 OFFCURVE",
"769 364 CURVE SMOOTH",
"769 448 OFFCURVE",
"711 502 OFFCURVE",
"615 502 CURVE SMOOTH",
"555 502 OFFCURVE",
"505 490 OFFCURVE",
"422 391 CURVE",
"371 483 OFFCURVE",
"325 502 OFFCURVE",
"266 502 CURVE SMOOTH",
"150 502 OFFCURVE",
"65 430 OFFCURVE",
"65 304 CURVE SMOOTH",
"65 220 OFFCURVE",
"123 166 OFFCURVE",
"219 166 CURVE SMOOTH",
"277 166 OFFCURVE",
"328 178 OFFCURVE",
"411 277 CURVE",
"461 185 OFFCURVE",
"510 166 OFFCURVE",
"568 166 CURVE SMOOTH"
);
},
{
closed = 1;
nodes = (
"518 225 OFFCURVE",
"485 254 OFFCURVE",
"450 334 CURVE",
"513 414 OFFCURVE",
"555 443 OFFCURVE",
"607 443 CURVE SMOOTH",
"667 443 OFFCURVE",
"702 409 OFFCURVE",
"702 358 CURVE SMOOTH",
"702 278 OFFCURVE",
"645 225 OFFCURVE",
"569 225 CURVE SMOOTH"
);
},
{
closed = 1;
nodes = (
"167 225 OFFCURVE",
"132 259 OFFCURVE",
"132 310 CURVE SMOOTH",
"132 390 OFFCURVE",
"189 443 OFFCURVE",
"265 443 CURVE SMOOTH",
"316 443 OFFCURVE",
"349 414 OFFCURVE",
"384 334 CURVE",
"321 254 OFFCURVE",
"279 225 OFFCURVE",
"227 225 CURVE SMOOTH"
);
}
);
width = 802;
}
);
unicode = 221E;
},
{
glyphname = integral;
layers = (
{
layerId = "573A4E99-B1EA-4FCA-90B1-EE1ED57C0074";
paths = (
{
closed = 1;
nodes = (
"119 -188 OFFCURVE",
"173 -145 OFFCURVE",
"190 -50 CURVE SMOOTH",
"292 530 LINE SMOOTH",
"301 579 OFFCURVE",
"329 604 OFFCURVE",
"378 604 CURVE SMOOTH",
"394 604 OFFCURVE",
"417 603 OFFCURVE",
"428 600 CURVE",
"440 666 LINE",
"425 671 OFFCURVE",
"399 674 OFFCURVE",
"375 674 CURVE SMOOTH",
"282 674 OFFCURVE",
"229 631 OFFCURVE",
"212 536 CURVE SMOOTH",
"110 -44 LINE SMOOTH",
"101 -93 OFFCURVE",
"73 -118 OFFCURVE",
"24 -118 CURVE SMOOTH",
"8 -118 OFFCURVE",
"-16 -117 OFFCURVE",
"-28 -114 CURVE",
"-39 -180 LINE",
"-24 -185 OFFCURVE",
"2 -188 OFFCURVE",
"26 -188 CURVE SMOOTH"
);
}
);
width = 400;
}
);
unicode = 222B;
},
{
glyphname = approxequal;
layers = (
{
layerId = "573A4E99-B1EA-4FCA-90B1-EE1ED57C0074";
paths = (
{
closed = 1;
nodes = (
"459 136 OFFCURVE",
"500 190 OFFCURVE",
"515 298 CURVE",
"451 298 LINE",
"435 234 OFFCURVE",
"415 204 OFFCURVE",
"376 204 CURVE SMOOTH",
"323 204 OFFCURVE",
"284 298 OFFCURVE",
"198 298 CURVE SMOOTH",
"118 298 OFFCURVE",
"77 244 OFFCURVE",
"62 136 CURVE",
"126 136 LINE",
"142 200 OFFCURVE",
"162 230 OFFCURVE",
"201 230 CURVE SMOOTH",
"252 230 OFFCURVE",
"294 136 OFFCURVE",
"379 136 CURVE SMOOTH"
);
},
{
closed = 1;
nodes = (
"500 370 OFFCURVE",
"541 424 OFFCURVE",
"556 532 CURVE",
"492 532 LINE",
"476 468 OFFCURVE",
"456 438 OFFCURVE",
"417 438 CURVE SMOOTH",
"364 438 OFFCURVE",
"325 532 OFFCURVE",
"239 532 CURVE SMOOTH",
"159 532 OFFCURVE",
"118 478 OFFCURVE",
"103 370 CURVE",
"167 370 LINE",
"183 434 OFFCURVE",
"203 464 OFFCURVE",
"242 464 CURVE SMOOTH",
"293 464 OFFCURVE",
"335 370 OFFCURVE",
"420 370 CURVE SMOOTH"
);
}
);
width = 582;
}
);
unicode = 2248;
},
{
glyphname = notequal;
layers = (
{
layerId = "573A4E99-B1EA-4FCA-90B1-EE1ED57C0074";
paths = (
{
closed = 1;
nodes = (
"494 190 LINE",
"506 258 LINE",
"305 258 LINE",
"372 410 LINE",
"533 410 LINE",
"545 478 LINE",
"402 478 LINE",
"443 569 LINE",
"381 569 LINE",
"340 478 LINE",
"121 478 LINE",
"109 410 LINE",
"310 410 LINE",
"243 258 LINE",
"82 258 LINE",
"70 190 LINE",
"213 190 LINE",
"172 99 LINE",
"234 99 LINE",
"275 190 LINE"
);
}
);
width = 582;
}
);
unicode = 2260;
},
{
glyphname = lessequal;
layers = (
{
layerId = "573A4E99-B1EA-4FCA-90B1-EE1ED57C0074";
paths = (
{
closed = 1;
nodes = (
"461 0 LINE",
"472 69 LINE",
"48 69 LINE",
"37 0 LINE"
);
},
{
closed = 1;
nodes = (
"490 169 LINE",
"503 240 LINE",
"193 361 LINE",
"545 483 LINE",
"559 561 LINE",
"107 401 LINE",
"94 328 LINE"
);
}
);
width = 582;
}
);
unicode = 2264;
},
{
glyphname = greaterequal;
layers = (
{
layerId = "573A4E99-B1EA-4FCA-90B1-EE1ED57C0074";
paths = (
{
closed = 1;
nodes = (
"461 0 LINE",
"472 69 LINE",
"48 69 LINE",
"37 0 LINE"
);
},
{
closed = 1;
nodes = (
"519 328 LINE",
"532 401 LINE",
"136 561 LINE",
"123 489 LINE",
"433 368 LINE",
"81 247 LINE",
"67 169 LINE"
);
}
);
width = 582;
}
);
unicode = 2265;
},
{
glyphname = lozenge;
layers = (
{
layerId = "573A4E99-B1EA-4FCA-90B1-EE1ED57C0074";
paths = (
{
closed = 1;
nodes = (
"283 0 LINE",
"540 334 LINE",
"400 668 LINE",
"326 668 LINE",
"68 334 LINE",
"209 0 LINE"
);
},
{
closed = 1;
nodes = (
"258 71 LINE",
"146 334 LINE",
"351 597 LINE",
"462 334 LINE"
);
}
);
width = 577;
}
);
unicode = 25CA;
},
{
glyphname = fi;
layers = (
{
layerId = "573A4E99-B1EA-4FCA-90B1-EE1ED57C0074";
paths = (
{
closed = 1;
nodes = (
"169 0 LINE",
"239 400 LINE",
"363 400 LINE",
"375 470 LINE",
"251 470 LINE",
"262 532 LINE SMOOTH",
"271 583 OFFCURVE",
"297 604 OFFCURVE",
"348 604 CURVE SMOOTH",
"365 604 OFFCURVE",
"386 603 OFFCURVE",
"398 600 CURVE",
"410 666 LINE",
"395 671 OFFCURVE",
"367 674 OFFCURVE",
"342 674 CURVE SMOOTH",
"247 674 OFFCURVE",
"198 630 OFFCURVE",
"182 537 CURVE SMOOTH",
"170 470 LINE",
"65 470 LINE",
"53 400 LINE",
"158 400 LINE",
"88 0 LINE"
);
},
{
closed = 1;
nodes = (
"478 0 LINE",
"560 470 LINE",
"479 470 LINE",
"397 0 LINE"
);
},
{
closed = 1;
nodes = (
"575 574 OFFCURVE",
"598 595 OFFCURVE",
"598 628 CURVE SMOOTH",
"598 652 OFFCURVE",
"581 669 OFFCURVE",
"552 669 CURVE SMOOTH",
"517 669 OFFCURVE",
"494 648 OFFCURVE",
"494 615 CURVE SMOOTH",
"494 591 OFFCURVE",
"511 574 OFFCURVE",
"540 574 CURVE SMOOTH"
);
}
);
width = 599;
}
);
unicode = FB01;
},
{
glyphname = fl;
layers = (
{
layerId = "573A4E99-B1EA-4FCA-90B1-EE1ED57C0074";
paths = (
{
closed = 1;
nodes = (
"169 0 LINE",
"239 400 LINE",
"363 400 LINE",
"375 470 LINE",
"251 470 LINE",
"262 532 LINE SMOOTH",
"271 583 OFFCURVE",
"297 604 OFFCURVE",
"348 604 CURVE SMOOTH",
"365 604 OFFCURVE",
"386 603 OFFCURVE",
"398 600 CURVE",
"410 666 LINE",
"395 671 OFFCURVE",
"367 674 OFFCURVE",
"342 674 CURVE SMOOTH",
"247 674 OFFCURVE",
"198 630 OFFCURVE",
"182 537 CURVE SMOOTH",
"170 470 LINE",
"65 470 LINE",
"53 400 LINE",
"158 400 LINE",
"88 0 LINE"
);
},
{
closed = 1;
nodes = (
"478 0 LINE",
"595 668 LINE",
"514 668 LINE",
"397 0 LINE"
);
}
);
width = 599;
}
);
unicode = FB02;
},
